<svg width="228" height="40" viewBox="0 0 228 40" fill="none" xmlns="http://www.w3.org/2000/svg">
<path d="M23.4137 24.0755C22.6993 22.7173 21.8471 22.0373 21.1737 21.6977C20.5002 21.3582 20.0052 21.3582 20.0052 21.3582C20.0052 21.3582 18.0232 21.3582 16.5966 24.0755C15.1146 26.8955 12.0052 29.0755 8.23042 27.9013C6.31105 27.3057 5.10384 26.5199 4.01465 26.1644C4.68222 30.0182 7.03267 32.7866 10.0408 34.587C13.0489 36.3875 16.7119 37.231 20.0052 37.231C26.5917 37.231 34.6601 33.8724 35.9962 26.1644C34.907 26.5164 33.6989 27.3044 31.7804 27.9013C28.0052 29.0768 24.8957 26.8968 23.4137 24.0755ZM24.525 32.9879H24.4719C24.3055 33.4554 24.0688 33.8954 23.7696 34.2933C23.1615 35.0933 22.0128 36.051 20.0052 36.051C17.9953 36.051 16.8489 35.095 16.2408 34.2933C15.9422 33.8954 15.7062 33.4553 15.5408 32.9879H15.4876C12.5773 32.9679 12.8192 30.5733 12.8192 30.5733C12.8192 30.5733 13.8137 31.6302 15.9944 31.3288C18.175 31.0275 18.7619 30.335 18.8385 30.0582C18.9151 29.7813 18.8385 29.1897 18.8385 29.1897C18.8385 29.1897 16.6651 28.6324 16.5083 26.2937C16.4995 26.22 16.495 26.1458 16.4948 26.0715C16.4948 24.7093 18.0674 23.6053 20.0083 23.6053C21.948 23.6053 23.5219 24.7093 23.5219 26.0715C23.5217 26.1458 23.5171 26.22 23.5079 26.2937C23.3511 28.6324 21.1777 29.1897 21.1777 29.1897C21.1777 29.1897 21.1011 29.7813 21.1777 30.0582C21.2543 30.335 21.8408 31.027 24.0214 31.3288C26.202 31.6306 27.1971 30.5733 27.1971 30.5733C27.1971 30.5733 27.4354 32.9693 24.525 32.9893V32.9879Z" fill="#18171F"/>
<path d="M21.3185 33.3524C21.1811 33.3139 21.038 33.2988 20.8955 33.3079C21.038 33.2988 21.1811 33.3139 21.3185 33.3524Z" fill="black"/>
<path d="M18.3057 33.5706C18.4809 33.3893 18.7845 33.2951 19.0917 33.3075C18.7845 33.2937 18.4804 33.3884 18.3057 33.5706Z" fill="black"/>
<path d="M37.9389 14.2089C37.602 11.256 36.934 7.85598 35.6227 5.17554C35.523 4.97169 35.4194 4.77228 35.3119 4.57732C35.0713 4.13654 34.8015 3.71191 34.5043 3.3062C34.4966 3.29509 34.4889 3.28398 34.4808 3.27332V3.27065L34.4727 3.25998C34.4187 3.18769 34.364 3.11702 34.3088 3.04798C33.8278 2.50148 33.1764 2.12815 32.457 1.98665C30.9844 1.69198 28.6543 2.22932 25.475 5.94843C25.5682 6.09064 25.6511 6.23915 25.7232 6.39287L25.743 6.43732C25.7754 6.50976 25.7935 6.55776 25.7984 6.57065C25.8565 6.63909 25.9164 6.7142 25.9786 6.79287C26.0869 6.93328 26.1865 7.08007 26.2768 7.23243C26.2768 7.23243 25.4295 6.66798 23.5137 6.31065C22.901 6.1984 22.2823 6.1205 21.6606 6.07732C21.1547 6.04087 20.6056 6.02087 20.0074 6.02398H19.9989C19.893 6.02398 19.7894 6.02398 19.6862 6.02398H19.5606C19.4681 6.02398 19.3769 6.02591 19.2871 6.02976L19.1736 6.03243C19.0835 6.03539 18.9935 6.03894 18.9034 6.04309L18.8007 6.04754C18.7106 6.05198 18.6205 6.05731 18.5349 6.06265L18.4421 6.06843L18.1817 6.08798L18.0971 6.09509C18.011 6.1022 17.9272 6.1102 17.8439 6.11865L17.7664 6.1262C17.6831 6.13509 17.602 6.14443 17.5218 6.15376L17.4489 6.1622C17.3691 6.17243 17.2912 6.18265 17.2142 6.19331L17.1457 6.20265C17.0691 6.21331 16.9948 6.22487 16.9205 6.23643L16.8547 6.24665C16.7822 6.2582 16.7119 6.2702 16.6421 6.28265L16.5763 6.29776C16.5074 6.3102 16.4412 6.32265 16.3754 6.33554L16.3137 6.34754C16.2493 6.36043 16.1876 6.37376 16.1259 6.38709L16.0642 6.39998C16.0047 6.41331 15.9475 6.4262 15.8903 6.43998L15.8281 6.4542L15.6696 6.49376L15.6052 6.5102C15.5565 6.52265 15.5097 6.53554 15.4628 6.54843L15.3957 6.56709C15.3507 6.57909 15.3106 6.59154 15.2691 6.60354L15.1989 6.62443C15.161 6.63554 15.125 6.64709 15.089 6.65865C15.0642 6.6662 15.039 6.67376 15.0151 6.68176L14.9227 6.71243C14.8962 6.72131 14.8696 6.72976 14.8444 6.73865L14.77 6.76487C14.7417 6.77509 14.7128 6.78487 14.6858 6.79509L14.6308 6.81554L14.5408 6.84976L14.507 6.86354L14.4074 6.90309L14.3957 6.90798C13.9453 7.09332 13.7353 7.2342 13.7353 7.2342C13.825 7.08306 13.9236 6.93732 14.0308 6.79776C14.0917 6.7182 14.1525 6.6422 14.211 6.57287V6.56665C14.2799 6.38978 14.365 6.21946 14.4651 6.05776L14.4745 6.0422V6.03998C14.4862 6.02132 14.498 6.0022 14.5106 5.98265C14.5178 5.97109 14.5245 5.95998 14.5322 5.94843C14.4687 5.8742 14.4061 5.80265 14.3435 5.73109L14.279 5.65687C14.2367 5.60887 14.1948 5.56309 14.1529 5.51643C14.111 5.46976 14.0691 5.42265 14.0281 5.37732C13.9871 5.33198 13.9543 5.29776 13.9173 5.2582C13.8723 5.20887 13.8272 5.15865 13.7822 5.11065C13.7471 5.07376 13.7128 5.03909 13.6786 5.00265C13.6335 4.9542 13.5849 4.90443 13.5385 4.85731C13.5052 4.82309 13.4723 4.79065 13.4389 4.75731C13.3939 4.7102 13.3448 4.6622 13.2984 4.61643C13.266 4.58443 13.234 4.5542 13.2016 4.52265C13.1565 4.4782 13.1083 4.43376 13.0624 4.38931L12.9678 4.30043C12.9227 4.25598 12.8777 4.2142 12.8299 4.17243L12.7362 4.08887C12.6912 4.04843 12.6462 4.00754 12.6011 3.96843C12.57 3.94131 12.5394 3.91554 12.511 3.88931C12.466 3.85109 12.4209 3.81243 12.3759 3.77598C12.3453 3.7502 12.3151 3.72576 12.2858 3.70087C12.2408 3.66532 12.1989 3.62931 12.1556 3.59465C12.1254 3.5702 12.0953 3.54754 12.0655 3.52398C12.0205 3.4902 11.9804 3.45687 11.9381 3.42443C11.9079 3.40132 11.8781 3.37998 11.848 3.35731L11.7245 3.26531L11.6344 3.20131L11.5142 3.11643L11.4241 3.05643C11.3849 3.02976 11.3457 3.00354 11.307 2.9782C11.2772 2.95865 11.2475 2.93998 11.2169 2.92131C11.179 2.89687 11.1412 2.87243 11.1034 2.84932L11.0133 2.79598C10.9763 2.77376 10.9399 2.75154 10.9034 2.73065C10.8736 2.71331 10.8444 2.69731 10.8133 2.68043C10.7822 2.66354 10.7421 2.64043 10.7065 2.62131C10.6709 2.6022 10.648 2.58976 10.6187 2.57465C10.5894 2.55954 10.5498 2.5382 10.5155 2.52087C10.4813 2.50354 10.4565 2.49154 10.4254 2.47643L10.3259 2.42843L10.2358 2.38843C10.2034 2.37376 10.1714 2.35909 10.1399 2.34398C10.1083 2.32887 10.0813 2.31909 10.0525 2.30709C10.0236 2.29509 9.9903 2.28131 9.95922 2.26931L9.87273 2.23598L9.78264 2.20265C9.75337 2.19198 9.72454 2.1822 9.69571 2.17243L9.60967 2.14354L9.52364 2.11687C9.49571 2.10843 9.46823 2.09998 9.44075 2.09243C9.41328 2.08487 9.38355 2.07643 9.35517 2.06887L9.27544 2.04798L9.1903 2.02798L9.11373 2.01065L9.02949 1.99376L8.95562 1.97998L8.87228 1.9662L8.80111 1.95554L8.71958 1.94532L8.65021 1.93732L8.57003 1.9302L8.50337 1.92487L8.42454 1.92087C8.40292 1.92087 8.38129 1.91998 8.35967 1.9182C8.33805 1.91643 8.31237 1.91643 8.28264 1.9182H8.22949H8.15066H8.0912L8.01463 1.92265L7.95652 1.92665L7.8831 1.93331L7.82544 1.93954L7.75517 1.94887L7.69841 1.95731C7.67589 1.96043 7.65336 1.96443 7.63129 1.96843L7.57499 1.97865L7.51147 1.99154L7.45562 2.00398C7.43535 2.00843 7.41508 2.01331 7.39526 2.01865L7.3394 2.03287L7.28355 2.04843L7.22769 2.06487L7.17544 2.08132L7.11913 2.09954L7.07409 2.11643L7.01733 2.13732L6.97228 2.1542L6.91463 2.17732L6.87679 2.19376L6.81778 2.21954L6.7849 2.23509L6.72499 2.26354L6.69706 2.27732L6.6358 2.30887L6.61373 2.32087L6.55066 2.35554L6.53445 2.36487L6.46958 2.40309L6.45877 2.40976L6.3921 2.45109L6.38805 2.45376C6.1317 2.61592 5.90099 2.8145 5.70337 3.04309C5.64781 3.11183 5.59315 3.1825 5.5394 3.25509L5.53084 3.26576V3.26843C5.25054 3.648 4.99477 4.04464 4.76508 4.45598C4.63384 4.68857 4.50817 4.92754 4.38805 5.17287C3.56598 6.85465 2.99706 8.81954 2.60382 10.7791C2.37093 11.9413 2.19841 13.1018 2.07363 14.2013C2.0391 14.5065 2.00772 14.8067 1.97949 15.1018C2.02883 15.16 2.08578 15.2116 2.14886 15.2551C2.23426 15.3128 2.33144 15.3512 2.43356 15.3678C2.53567 15.3844 2.64022 15.3787 2.73985 15.3511C3.5903 15.1498 3.71553 13.992 3.71553 13.992C3.60066 9.58531 5.53039 6.25865 6.57093 4.79687C6.62769 4.71776 6.68129 4.64354 6.7322 4.57465C6.87625 4.37991 7.08311 4.23927 7.31883 4.17579C7.55456 4.11232 7.80515 4.12978 8.02949 4.22531C8.46684 4.41532 8.86563 4.682 9.20652 5.01243L9.21012 5.01598C9.37032 5.17068 9.51934 5.33627 9.65607 5.51154C9.65839 5.51403 9.6605 5.51671 9.66237 5.51954C10.3214 6.36398 10.6534 7.34176 10.8065 7.9222C10.8427 8.06146 10.829 8.20879 10.7675 8.33915C10.7061 8.46952 10.6008 8.57487 10.4696 8.63732C9.93871 8.89518 9.43607 9.20614 8.96958 9.56531C8.88535 9.66843 3.13174 16.7249 3.87949 25.1142C3.8921 25.2578 3.90787 25.3991 3.92454 25.5395C3.95066 25.7502 3.98084 25.9582 4.01463 26.1618C5.10382 26.5138 6.31192 27.3018 8.23039 27.8986C12.0052 29.0729 15.1146 26.8929 16.5966 24.0729C18.0241 21.356 20.0038 21.3555 20.0052 21.3555C20.0065 21.3555 20.5007 21.3555 21.1736 21.6951C21.8466 22.0346 22.6993 22.7146 23.4137 24.0729C24.8957 26.8929 28.0052 29.0729 31.7799 27.8986C33.6993 27.3018 34.9065 26.5138 35.9957 26.1618C36.0308 25.9573 36.0609 25.7499 36.0858 25.5395C36.1034 25.3991 36.1191 25.2578 36.1308 25.1142C36.8795 16.7249 31.1259 9.66843 31.0408 9.56531C30.5744 9.20615 30.0719 8.89518 29.5412 8.63732C29.4099 8.57495 29.3045 8.46962 29.243 8.33925C29.1815 8.20888 29.1676 8.06151 29.2038 7.9222C29.357 7.33954 29.6889 6.36398 30.3484 5.51954C30.3501 5.51661 30.3523 5.51392 30.3547 5.51154C30.4913 5.33617 30.6403 5.17057 30.8007 5.01598L30.8043 5.01243C31.1453 4.68234 31.5443 4.41609 31.9817 4.22665C32.2061 4.13119 32.4567 4.11377 32.6924 4.17724C32.9281 4.24071 33.1349 4.38131 33.279 4.57598C33.3299 4.64443 33.3835 4.71865 33.4403 4.7982C34.4808 6.26176 36.4106 9.58665 36.2953 13.9933C36.2953 13.9933 36.4205 15.1511 37.2705 15.3524C37.3702 15.3801 37.4748 15.3858 37.577 15.3692C37.6792 15.3526 37.7765 15.3141 37.8619 15.2564C37.925 15.2129 37.982 15.1614 38.0313 15.1031C38.0052 14.8102 37.9727 14.5106 37.9389 14.2089Z" fill="#E70C00"/>
<path d="M13.1654 15.6853C13.3525 15.9852 13.5878 16.2528 13.8623 16.4778C14.5943 17.0742 15.5042 17.2458 16.1776 16.8333C17.0726 16.2862 17.2181 14.9129 16.5199 13.736C16.5051 13.7107 16.4907 13.6858 16.4749 13.6609C15.7488 12.5053 14.46 11.9862 13.547 12.4636C13.5169 12.4793 13.4881 12.4957 13.4605 12.5129C12.5488 13.072 12.4159 14.4925 13.1654 15.6853Z" fill="#18171F"/>
<path d="M5.96786 11.2423C7.36426 8.8596 9.77011 5.53471 6.56832 4.79782C5.52778 6.26138 3.59805 9.58627 3.71291 13.9929C3.73859 13.9818 4.59444 13.5867 5.96786 11.2423Z" fill="#18171F"/>
<path d="M9.20898 5.0173C9.37205 5.18738 9.5207 5.35257 9.65493 5.51288C9.5182 5.33761 9.36919 5.17201 9.20898 5.0173Z" fill="#18171F"/>
<path d="M8.96889 9.56668C9.43538 9.20751 9.93801 8.89655 10.4689 8.63868C10.6001 8.57624 10.7054 8.47088 10.7668 8.34052C10.8283 8.21015 10.842 8.06282 10.8058 7.92357C10.6527 7.3409 10.3207 6.36535 9.66168 5.5209C9.6598 5.51807 9.65769 5.5154 9.65537 5.5129C9.52084 5.3529 9.37219 5.18772 9.20943 5.01735L9.20582 5.01379C8.86494 4.68337 8.46614 4.41669 8.0288 4.22668C7.80446 4.13115 7.55387 4.11368 7.31814 4.17716C7.08241 4.24063 6.87556 4.38128 6.73151 4.57602C6.6806 4.64446 6.627 4.71868 6.57024 4.79824C9.77204 5.53513 7.36484 8.86002 5.96979 11.2427C4.59637 13.5867 3.74052 13.9818 3.71484 13.9929C3.73163 14.6291 3.78971 15.2636 3.88872 15.8925C3.897 15.9449 3.92241 15.9932 3.96107 16.03C3.99972 16.0669 4.04952 16.0903 4.10289 16.0967C4.15626 16.1031 4.21028 16.0921 4.25675 16.0654C4.30322 16.0388 4.33959 15.9978 4.36034 15.9489C4.9689 14.5147 6.47745 11.468 8.96754 9.56802L8.96889 9.56668Z" fill="#DBBDBF"/>
<path d="M3.48275 26.0311C3.66341 26.0634 3.84161 26.108 4.01608 26.1644C3.98049 25.96 3.95031 25.752 3.92599 25.5422C3.90842 25.4018 3.89266 25.2604 3.88095 25.1169C3.12959 16.7275 8.8832 9.67107 8.96563 9.56796C6.47374 11.468 4.96698 14.5146 4.35842 15.9489C4.33767 15.9978 4.3013 16.0387 4.25484 16.0654C4.20837 16.0921 4.15434 16.103 4.10097 16.0967C4.0476 16.0903 3.9978 16.0669 3.95915 16.03C3.92049 15.9931 3.89509 15.9448 3.8868 15.8924C3.78779 15.2635 3.72971 14.6291 3.71293 13.9929C3.71293 13.9929 3.5877 15.1506 2.73725 15.352C2.63763 15.3797 2.53306 15.3855 2.43093 15.3689C2.32879 15.3523 2.23161 15.3138 2.14626 15.256C2.08318 15.2125 2.02622 15.1609 1.97689 15.1026C1.76203 17.3475 1.7332 19.2395 1.7359 20.208C1.7359 20.6373 1.74491 20.8858 1.74581 20.9022C1.7465 20.9449 1.74242 20.9875 1.73365 21.0293C1.73005 21.0462 1.72779 21.0635 1.72284 21.0804C1.71788 21.0973 1.21698 22.8258 1.19041 25.0804C1.1877 25.3333 1.1904 25.6004 1.20302 25.8773C1.21158 26.0862 1.22419 26.3004 1.24311 26.52C2.09356 26.0089 2.7841 25.904 3.48275 26.0311Z" fill="#A50400"/>
<path d="M16.1923 31.8062C18.0806 31.5396 19.0689 30.8525 19.5198 30.4227V28.976C18.9365 28.8939 18.381 28.6776 17.8982 28.3444C17.8594 28.3178 17.8211 28.2907 17.7838 28.2631C17.709 28.2076 17.6365 28.1498 17.5671 28.0898C16.9756 27.5813 16.5842 26.9258 16.5085 26.2942C16.6653 28.6329 18.8387 29.1902 18.8387 29.1902C18.8387 29.1902 18.9153 29.7818 18.8387 30.0587C18.7621 30.3356 18.1756 31.0276 15.9946 31.3293C13.8135 31.6311 12.8193 30.5738 12.8193 30.5738C12.8193 30.5738 13.7338 32.1547 16.1923 31.8062Z" fill="#DBBDBF"/>
<path d="M14.0318 6.79558C13.9246 6.93514 13.8259 7.08088 13.7363 7.23202C13.9464 7.10481 14.1674 6.99595 14.3967 6.90669L14.4084 6.9018L14.5079 6.86225L14.5417 6.84847L14.6318 6.81425L14.6868 6.7938C14.7138 6.78358 14.7426 6.7738 14.771 6.76358L14.8453 6.73736C14.8706 6.72847 14.8971 6.72002 14.9237 6.71114L15.0161 6.68047C15.0399 6.67247 15.0652 6.66491 15.0899 6.65736C15.126 6.6458 15.162 6.63425 15.1998 6.62314L15.2701 6.60225C15.3116 6.59025 15.3534 6.5778 15.3967 6.5658L15.4638 6.54713C15.5089 6.53425 15.5575 6.52136 15.6061 6.50891L15.6706 6.49247L15.8291 6.45291L15.8913 6.43869C15.9485 6.42491 16.0057 6.41202 16.0652 6.39869L16.1273 6.38669C16.189 6.37336 16.2507 6.36002 16.3152 6.34713L16.3769 6.33514C16.4426 6.32225 16.5089 6.3098 16.5778 6.29736L16.6408 6.28625C16.7107 6.2738 16.7809 6.2618 16.8534 6.25025L16.9192 6.24003C16.9926 6.22847 17.067 6.21691 17.1444 6.20625L17.2129 6.19691C17.2899 6.18625 17.3679 6.17602 17.4476 6.1658L17.5206 6.15736C17.6007 6.14802 17.6818 6.13869 17.7652 6.1298L17.8426 6.12225C17.926 6.1138 18.0098 6.1058 18.0958 6.09869L18.1805 6.09158L18.4408 6.07203L18.5336 6.06625C18.621 6.06091 18.7093 6.05558 18.7994 6.05114L18.9021 6.04669C18.9922 6.04284 19.0823 6.03928 19.1724 6.03602L19.2859 6.03336C19.376 6.03069 19.4671 6.02877 19.5593 6.02758H19.685C19.7881 6.02758 19.8917 6.02758 19.9976 6.02758H20.0061C20.6043 6.02447 21.1534 6.04447 21.6593 6.08091C22.281 6.1241 22.8997 6.202 23.5125 6.31425C25.4179 6.6698 26.2665 7.22936 26.2751 7.23514C26.1848 7.08277 26.0852 6.93598 25.9769 6.79558C25.9165 6.71691 25.8561 6.64091 25.7967 6.57336C25.7742 6.55514 25.4471 6.3178 24.8016 6.04402C23.8746 5.65114 22.2904 5.18314 20.0043 5.18314C17.7183 5.18314 16.1363 5.65025 15.2093 6.04314C14.5625 6.31691 14.2345 6.55514 14.212 6.57336C14.1543 6.63869 14.0931 6.71558 14.0318 6.79558Z" fill="#FF3E39"/>
<path d="M5.70312 3.0458C5.90075 2.81721 6.13146 2.61863 6.38781 2.45647L6.39187 2.4538L6.45853 2.41246L6.46934 2.4058L6.53421 2.36758L6.55042 2.35824L6.61349 2.32358L6.63556 2.31158L6.69682 2.28002L6.72475 2.26624L6.78466 2.2378L6.81754 2.22224L6.87655 2.19647L6.91439 2.18002L6.97205 2.15691L7.01709 2.14002L7.07205 2.12002L7.11709 2.10313L7.1734 2.08491L7.22565 2.06847L7.28151 2.05202L7.33736 2.03647L7.39322 2.02224C7.41304 2.01691 7.43331 2.01202 7.45358 2.00758L7.50943 1.99513L7.57295 1.98224L7.62925 1.97202C7.65133 1.96802 7.6743 1.96402 7.69637 1.96091L7.75313 1.95247L7.8234 1.94313L7.88106 1.93691L7.95448 1.93024L8.01259 1.92624L8.08916 1.9218H8.14862H8.22745H8.28962C8.31514 1.9218 8.34082 1.9218 8.36664 1.9218C8.39247 1.9218 8.41409 1.92269 8.43151 1.92447L8.51033 1.92847L8.577 1.9338L8.65718 1.94091L8.72655 1.94891L8.80808 1.95913L8.87925 1.9698L8.96259 1.98358L9.03646 1.99735L9.1207 2.01424L9.19727 2.03158L9.28241 2.05158L9.36214 2.07247C9.39052 2.08002 9.41889 2.08758 9.44772 2.09602C9.47655 2.10447 9.50268 2.11202 9.53061 2.12047L9.61664 2.14713L9.70268 2.17602C9.73151 2.1858 9.76034 2.19558 9.78962 2.20624L9.87971 2.23958L9.96619 2.27291C9.99727 2.28491 10.0284 2.2978 10.0594 2.31069C10.0905 2.32358 10.1175 2.33469 10.1468 2.34758C10.1761 2.36046 10.2103 2.37558 10.2428 2.39202L10.3329 2.43202L10.4324 2.48002C10.4617 2.49424 10.491 2.50847 10.5225 2.52446C10.554 2.54046 10.591 2.56002 10.6257 2.57824C10.6603 2.59646 10.6842 2.60846 10.7135 2.62491C10.7428 2.64135 10.7847 2.66402 10.8202 2.68402C10.8558 2.70402 10.8793 2.71691 10.9103 2.73424C10.9468 2.75513 10.9833 2.77869 11.0202 2.79958L11.1103 2.85291C11.1482 2.87602 11.186 2.90046 11.2239 2.92491C11.2536 2.94357 11.2833 2.96224 11.3139 2.9818C11.3527 3.00713 11.3919 3.03335 11.4311 3.06002L11.5211 3.12002L11.6414 3.20491L11.7315 3.26891L11.8468 3.35557C11.877 3.3778 11.9067 3.40002 11.9369 3.42269C11.9793 3.45513 12.0216 3.48846 12.0644 3.52224C12.0941 3.5458 12.1243 3.56669 12.1545 3.59291C12.1995 3.62757 12.241 3.66357 12.2847 3.69913C12.3148 3.72402 12.345 3.74846 12.3748 3.77424C12.4198 3.81068 12.4648 3.84935 12.5099 3.88757C12.5405 3.91379 12.5711 3.93957 12.6 3.96668C12.645 4.00579 12.6901 4.04668 12.7351 4.08713L12.8288 4.17068C12.8739 4.21246 12.9189 4.25602 12.9666 4.29868L13.0612 4.38757C13.1063 4.43202 13.154 4.47646 13.2004 4.5209C13.2329 4.55246 13.2648 4.58268 13.2973 4.61468C13.3423 4.65913 13.391 4.70846 13.4378 4.75557C13.4712 4.7889 13.504 4.82135 13.5374 4.85557C13.5824 4.90268 13.6306 4.95246 13.6775 5.0009C13.7117 5.03735 13.7459 5.07202 13.7811 5.1089C13.8261 5.1569 13.8712 5.20713 13.9162 5.25646C13.9531 5.29602 13.9896 5.33468 14.027 5.37557C14.0644 5.41646 14.1103 5.46802 14.1518 5.51468C14.1932 5.56135 14.2356 5.60713 14.2779 5.65513L14.3423 5.72935C14.4049 5.8009 14.4675 5.87246 14.5311 5.94668C14.8084 5.51334 15.1827 5.14845 15.6252 4.88002C14.1946 3.43157 12.8189 2.39113 11.5455 1.7858C11.4387 1.73558 11.3324 1.68713 11.2275 1.64269C11.1824 1.62358 11.1374 1.60536 11.0901 1.58713C11.0657 1.5778 11.0419 1.56713 11.0175 1.55824L10.9603 1.53691C10.9081 1.51736 10.8558 1.4978 10.804 1.48002C10.1401 1.24847 9.50808 1.14713 8.91619 1.18136C8.38056 1.21349 7.85822 1.359 7.38466 1.60802C6.78376 1.91973 6.22325 2.39898 5.70312 3.0458Z" fill="#FF3E39"/>
<path d="M23.833 16.8333C24.5087 17.2475 25.4258 17.0724 26.16 16.4689C26.4098 16.2619 26.6268 16.0192 26.8037 15.7489C26.8177 15.728 26.8321 15.7071 26.8456 15.6853C27.5952 14.4924 27.4623 13.072 26.5483 12.5128C26.5235 12.4977 26.4988 12.4839 26.4735 12.4684C25.5618 11.9795 24.2663 12.4982 23.5361 13.6591C23.5204 13.684 23.5055 13.7088 23.4911 13.7342C22.7929 14.9128 22.9384 16.2862 23.833 16.8333Z" fill="#18171F"/>
<path d="M34.0437 11.2423C35.4162 13.5872 36.2721 13.9818 36.2959 13.9929C36.4113 9.58627 34.4815 6.2596 33.441 4.79782C30.2414 5.53471 32.6486 8.8596 34.0437 11.2423Z" fill="#18171F"/>
<path d="M30.3574 5.51288C30.4926 5.35287 30.6399 5.18753 30.8034 5.0173C30.643 5.17189 30.494 5.3375 30.3574 5.51288Z" fill="#18171F"/>
<path d="M21.8298 33.7707C21.7806 33.6372 21.6848 33.5253 21.5595 33.4552C21.542 33.4445 21.5235 33.4347 21.505 33.4249L21.4771 33.4121L21.446 33.3974C21.4304 33.3906 21.4142 33.3844 21.3974 33.3787L21.3843 33.3738C21.3636 33.3663 21.342 33.3596 21.3203 33.3534C21.183 33.3149 21.0399 33.2999 20.8974 33.309H20.8942C20.8739 33.309 20.8532 33.3121 20.833 33.3143H20.8199L20.7699 33.3218L20.7456 33.3258L20.7077 33.3338L20.6717 33.3414L20.6465 33.3485C20.6303 33.353 20.6145 33.3569 20.6014 33.3623L20.5879 33.3667C20.5685 33.373 20.5492 33.3796 20.5298 33.3872C20.4121 33.4305 20.3051 33.4978 20.2156 33.5847C20.1261 33.6716 20.0562 33.7762 20.0104 33.8916C19.8595 33.5041 19.4758 33.3227 19.0965 33.3058C18.7893 33.2934 18.4857 33.3876 18.3104 33.5689C18.2546 33.6257 18.2123 33.694 18.1866 33.7689C18.142 33.8865 18.131 34.0139 18.1549 34.1372C18.1787 34.2605 18.2364 34.3749 18.3217 34.468C18.3938 34.5495 18.4794 34.6184 18.5749 34.6716C19.031 34.8393 19.5142 34.9235 20.001 34.92H20.0226C20.5077 34.9241 20.9894 34.8402 21.4438 34.6725C21.4875 34.6507 22.028 34.3512 21.8298 33.7707Z" fill="#FF9C9C"/>
<path d="M35.6515 15.9489C35.6722 15.9979 35.7086 16.0388 35.7551 16.0655C35.8015 16.0921 35.8555 16.1031 35.9089 16.0967C35.9623 16.0903 36.0121 16.0669 36.0507 16.0301C36.0894 15.9932 36.1148 15.9449 36.1231 15.8925C36.2223 15.2637 36.2804 14.6292 36.297 13.9929C36.2708 13.9818 35.415 13.5872 34.0447 11.2423C32.6483 8.85961 30.2424 5.53472 33.4443 4.79783C33.3875 4.71872 33.3339 4.64449 33.283 4.57561C33.1389 4.38093 32.932 4.24034 32.6963 4.17687C32.4606 4.1134 32.21 4.13082 31.9857 4.22627C31.5483 4.41617 31.1495 4.68286 30.8087 5.01338L30.8051 5.01694C30.6415 5.18716 30.4938 5.35249 30.3591 5.51249C30.3567 5.51487 30.3545 5.51756 30.3528 5.5205C29.6933 6.36494 29.3618 7.34272 29.2082 7.92316C29.172 8.06247 29.1859 8.20984 29.2474 8.34021C29.3089 8.47058 29.4143 8.5759 29.5456 8.63827C30.0763 8.89614 30.5788 9.20711 31.0452 9.56627C33.5361 11.4681 35.0456 14.5147 35.6515 15.9489Z" fill="#DBBDBF"/>
<path d="M38.0332 15.1035C37.9838 15.1618 37.9269 15.2134 37.8638 15.2569C37.7784 15.3146 37.6811 15.3532 37.5789 15.3698C37.4767 15.3864 37.3721 15.3806 37.2724 15.3529C36.4224 15.1515 36.2972 13.9937 36.2972 13.9937C36.2806 14.63 36.2225 15.2645 36.1233 15.8933C36.115 15.9457 36.0896 15.994 36.0509 16.0309C36.0123 16.0678 35.9625 16.0912 35.9091 16.0975C35.8557 16.1039 35.8017 16.093 35.7552 16.0663C35.7088 16.0396 35.6724 15.9987 35.6517 15.9497C35.0436 14.5155 33.5346 11.4689 31.0449 9.56885C31.1292 9.67196 36.8827 16.7284 36.135 25.1178C36.1224 25.2613 36.1066 25.4027 36.0899 25.5431C36.0638 25.7538 36.0338 25.9612 35.9999 26.1653C36.1732 26.1093 36.3502 26.0647 36.5296 26.032C37.2296 25.9058 37.9206 26.0098 38.771 26.5209C38.7904 26.3013 38.8025 26.0871 38.8116 25.8782C38.8228 25.6013 38.8269 25.3342 38.8242 25.0813C38.7976 22.8262 38.2967 21.0973 38.2917 21.0813C38.2868 21.0653 38.2845 21.0471 38.2809 21.0302C38.2722 20.9884 38.2681 20.9458 38.2688 20.9031C38.2688 20.8862 38.2773 20.6298 38.2787 20.1858C38.2764 19.2102 38.2458 17.3302 38.0332 15.1035Z" fill="#A50400"/>
<path d="M22.4468 28.0898C22.377 28.1498 22.3049 28.2076 22.2297 28.2631C22.1923 28.2907 22.1545 28.3178 22.1158 28.3445C21.6329 28.6776 21.0774 28.8939 20.4941 28.976V30.4227C20.9446 30.8525 21.9333 31.5387 23.8212 31.8063C26.2801 32.1547 27.1959 30.5751 27.1959 30.5747C27.1959 30.5742 26.2009 31.6316 24.0202 31.3303C21.8396 31.0289 21.2531 30.3365 21.1766 30.0596C21.1 29.7827 21.1766 29.1911 21.1766 29.1911C21.1766 29.1911 23.35 28.6338 23.5067 26.2951C23.4297 26.9258 23.0383 27.5813 22.4468 28.0898Z" fill="#DBBDBF"/>
<path d="M32.4577 1.98667C33.1762 2.12839 33.8267 2.50137 34.3072 3.04712C33.7887 2.40089 33.2261 1.92089 32.6239 1.60845C32.1504 1.35934 31.628 1.21382 31.0923 1.18178C30.5009 1.14756 29.8689 1.24889 29.205 1.48045C29.1532 1.49823 29.1009 1.51778 29.0487 1.53734C29.0297 1.54445 29.0104 1.55112 28.9914 1.55867C28.9725 1.56623 28.9568 1.57245 28.9396 1.57912C28.8333 1.62134 28.7261 1.66801 28.618 1.71467C28.5833 1.73023 28.5487 1.74623 28.5144 1.76267C27.2266 2.36223 25.8333 3.41289 24.3838 4.88045C24.8263 5.14888 25.2006 5.51377 25.4779 5.94712C28.655 2.228 30.9851 1.69067 32.4577 1.98667Z" fill="#FF3E39"/>
<path d="M20.0081 33.1458H20.0036C18.427 32.5867 17.5888 33.6232 17.3955 33.8961C17.7225 34.2389 18.1235 34.5046 18.5689 34.6734C18.474 34.6202 18.389 34.5513 18.3176 34.4699C18.2323 34.3767 18.1746 34.2623 18.1507 34.139C18.1269 34.0157 18.1379 33.8883 18.1824 33.7707C18.2082 33.6958 18.2505 33.6275 18.3063 33.5707C18.4811 33.3885 18.7851 33.2938 19.0924 33.3076C19.4716 33.3245 19.8554 33.5059 20.0063 33.8934C20.0521 33.778 20.122 33.6734 20.2115 33.5865C20.301 33.4996 20.408 33.4323 20.5257 33.389C20.5451 33.3814 20.5644 33.3747 20.5838 33.3685L20.5973 33.3641C20.6126 33.3587 20.6284 33.3547 20.6424 33.3503L20.6676 33.3432L20.7036 33.3356L20.7415 33.3276L20.7658 33.3236L20.8158 33.3161H20.8288C20.8491 33.3161 20.8698 33.3121 20.8901 33.3107H20.8933C21.0358 33.3017 21.1788 33.3167 21.3162 33.3552C21.3378 33.3614 21.3613 33.3681 21.3802 33.3756L21.3933 33.3805C21.4098 33.3864 21.426 33.3927 21.4419 33.3992L21.473 33.4138L21.5009 33.4267C21.5194 33.4365 21.5379 33.4463 21.5554 33.457C21.6807 33.5271 21.7765 33.639 21.8257 33.7725C22.0221 34.353 21.4815 34.6525 21.4383 34.6752C21.8839 34.5065 22.2851 34.2408 22.6122 33.8979C22.423 33.6232 21.5851 32.5867 20.0081 33.1458Z" fill="#E06E6E"/>
<path d="M9.04955 36.572C10.0692 37.0574 11.1272 37.4602 12.2131 37.7764C13.5923 38.1775 15.0037 38.4614 16.432 38.6249C17.0065 38.693 17.592 38.7442 18.1887 38.7782C18.6932 38.8079 19.2056 38.8246 19.7257 38.8284C19.8194 38.8284 19.9126 38.8284 20.0063 38.8284H20.0464C20.2572 38.8284 20.4671 38.8284 20.677 38.8218C20.7464 38.8218 20.8122 38.8173 20.8833 38.8156C21.4749 38.7996 22.0572 38.768 22.6302 38.7209C22.6901 38.716 22.7491 38.7098 22.8104 38.704L22.9685 38.6889L23.1099 38.6756C23.1617 38.6711 23.214 38.6667 23.2653 38.6609C26.6252 38.3053 29.6257 37.3884 32.132 35.964H32.1351H32.1387C32.1838 35.9396 32.2234 35.9142 32.2658 35.8893L32.3518 35.8387C33.2271 35.3256 34.0536 34.7355 34.8212 34.0756C35.3841 33.5917 35.911 33.0684 36.3977 32.5098C36.4527 32.4458 36.5081 32.3822 36.5622 32.3178C36.8881 31.929 37.1786 31.5126 37.4302 31.0733C37.7852 30.4474 38.0695 29.7849 38.2779 29.0978C38.4985 28.3733 38.6507 27.6303 38.7324 26.8782C38.7444 26.7704 38.7553 26.6636 38.7649 26.5578C38.7649 26.5458 38.7649 26.5333 38.768 26.5218C37.9176 26.0084 37.2266 25.9044 36.5266 26.0329C36.3471 26.0654 36.1702 26.11 35.9968 26.1662C34.6613 33.8729 26.5928 37.2329 20.0059 37.2329C16.7126 37.2329 13.0486 36.3933 10.0414 34.5902C7.03423 32.7871 4.68333 30.0196 4.01576 26.1644C3.84129 26.108 3.66309 26.0635 3.48243 26.0311C2.78378 25.9053 2.09324 26.0102 1.24414 26.5227C1.24414 26.5342 1.24684 26.5467 1.24774 26.5587C1.25735 26.6644 1.26816 26.7713 1.28018 26.8791C1.36177 27.6309 1.51393 28.3737 1.73468 29.0978C1.86968 29.539 2.03524 29.9705 2.23017 30.3893C2.33333 30.6116 2.44549 30.8293 2.56846 31.0453C2.59009 31.0836 2.61351 31.1218 2.63513 31.16C2.87431 31.5665 3.14684 31.953 3.45 32.3156C4.93018 34.0756 6.82342 35.5058 9.04955 36.572Z" fill="#DBBDBF"/>
<path d="M27.1946 30.5747C27.1946 30.5747 26.2788 32.1547 23.8198 31.8062C21.932 31.5396 20.9437 30.8524 20.4928 30.4227V28.976C21.076 28.8939 21.6315 28.6776 22.1144 28.3444C22.1531 28.3178 22.191 28.2907 22.2284 28.2631C22.3036 28.2076 22.3756 28.1498 22.4455 28.0898C23.0369 27.5813 23.4283 26.9258 23.5036 26.2942C23.5128 26.2205 23.5174 26.1463 23.5175 26.072C23.5175 24.7098 21.945 23.6058 20.004 23.6058C18.0644 23.6058 16.4905 24.7098 16.4905 26.072C16.4907 26.1463 16.4952 26.2205 16.504 26.2942C16.5797 26.9258 16.9712 27.5831 17.5626 28.0898C17.632 28.1498 17.7045 28.2076 17.7793 28.2631C17.8166 28.2907 17.8549 28.3178 17.8937 28.3444C18.3765 28.6776 18.932 28.8939 19.5153 28.976V30.4227C19.0648 30.8524 18.0739 31.5387 16.1878 31.8062C13.7293 32.1547 12.8135 30.5751 12.8135 30.5747C12.8135 30.5747 12.5716 32.9693 15.482 32.9893H15.5351C15.7013 33.4569 15.938 33.8969 16.2374 34.2947C16.8455 35.0947 17.9941 36.0524 20.0018 36.0524C22.0117 36.0524 23.1581 35.0964 23.7662 34.2947C24.0654 33.8968 24.3021 33.4568 24.4684 32.9893H24.5216C27.4369 32.9693 27.1946 30.5747 27.1946 30.5747ZM21.4432 34.6733C20.9889 34.8411 20.5071 34.925 20.0221 34.9209H20.0018C19.5142 34.925 19.03 34.8411 18.573 34.6733C18.4775 34.6201 18.3919 34.5513 18.3198 34.4698C18.3912 34.5513 18.4762 34.6201 18.5712 34.6733C18.1255 34.5052 17.7239 34.2401 17.3964 33.8978C17.5896 33.6249 18.4275 32.5884 20.0045 33.1476H20.009C21.5856 32.5884 22.4238 33.6249 22.6171 33.8978C22.2899 34.2401 21.8886 34.5052 21.4432 34.6733Z" fill="black"/>
<path d="M26.8922 38.0262H30.5053C30.5053 38.0262 30.0445 38.2159 29.8093 38.3048L29.7719 38.319C29.5728 38.3943 29.3716 38.4667 29.1683 38.5364C28.965 38.606 28.7601 38.6733 28.5535 38.7381L28.4877 38.7577C28.3222 38.8093 28.1554 38.859 27.9872 38.907L27.7976 38.9599C27.6625 38.9973 27.5273 39.0337 27.3922 39.0688C27.3305 39.0852 27.2688 39.1013 27.2062 39.1168C27.0147 39.1652 26.8224 39.2119 26.6278 39.2559L26.5931 39.2635C26.4072 39.3052 26.22 39.3451 26.0314 39.383C25.9701 39.3955 25.9084 39.407 25.8467 39.419C25.6999 39.4486 25.5523 39.4762 25.4039 39.5017L25.2215 39.5341C25.0183 39.5688 24.8161 39.6021 24.6084 39.6323C24.6084 39.6323 24.6084 39.6323 24.6057 39.6323C23.8715 39.7405 23.1207 39.8221 22.3535 39.8772C21.5862 39.9323 20.8041 39.9596 20.0071 39.959C18.4671 39.9628 16.9291 39.8531 15.4057 39.631C15.1999 39.6008 14.9958 39.5675 14.7922 39.5328L14.6098 39.5004C14.4617 39.4743 14.3143 39.4467 14.1674 39.4177C14.1057 39.4057 14.044 39.3941 13.9827 39.3817C13.7944 39.3435 13.6072 39.3036 13.421 39.2621L13.3859 39.2546C13.1917 39.2101 12.9994 39.1657 12.8075 39.1155C12.7454 39.0999 12.6836 39.0839 12.6219 39.0675C12.4856 39.0325 12.3505 38.9962 12.2165 38.9586L12.0273 38.9057C11.8589 38.8573 11.6917 38.8079 11.526 38.7564L11.4607 38.7368C11.0475 38.6073 10.6413 38.4676 10.2422 38.3177L10.2053 38.3035C9.97013 38.2146 9.73904 38.1208 9.50977 38.0253H13.135C14.2202 38.2954 15.3221 38.4953 16.4336 38.6239C17.0084 38.6921 17.594 38.7432 18.1904 38.7773C18.6949 38.8069 19.2072 38.8236 19.7273 38.8275C19.821 38.8275 19.9143 38.8275 20.008 38.8275H20.0454C20.2562 38.8275 20.4661 38.8275 20.676 38.8208C20.7454 38.8208 20.8111 38.8164 20.8823 38.8146C21.4737 38.7986 22.0571 38.7701 22.6296 38.7204C22.689 38.715 22.7481 38.7093 22.8098 38.703L22.9679 38.6879L23.1093 38.6746C23.1611 38.6701 23.2129 38.6657 23.2643 38.6604C24.4873 38.534 25.6996 38.3221 26.8922 38.0262Z" fill="black"/>
<path d="M37.4406 33.0365C35.8707 34.9067 33.8933 36.4223 31.5469 37.5574H28.509C29.7654 37.1472 30.977 36.614 32.1257 35.9658H32.1289H32.1325C32.1775 35.9414 32.2171 35.916 32.2595 35.8911L32.3455 35.8409C33.2222 35.3271 34.05 34.7363 34.8189 34.0756C35.3819 33.5917 35.9088 33.0684 36.3955 32.5098C36.4505 32.4458 36.5059 32.3823 36.5599 32.3178C36.8859 31.9291 37.1764 31.5126 37.428 31.0734C37.7831 30.4475 38.0674 29.785 38.2757 29.0978C38.4963 28.3734 38.6484 27.6304 38.7302 26.8783C38.7422 26.7704 38.753 26.6636 38.7626 26.5578C38.7626 26.5458 38.7626 26.5334 38.7658 26.5218C38.7852 26.3023 38.7973 26.088 38.8063 25.8791C38.8176 25.6023 38.8217 25.3351 38.819 25.0823C38.7924 22.8271 38.2915 21.0987 38.2865 21.0823C38.2816 21.0658 38.2793 21.048 38.2757 21.0311C38.2669 20.9893 38.2629 20.9467 38.2635 20.904C38.2635 20.8871 38.2721 20.6307 38.2734 20.1867C38.2734 19.2089 38.2455 17.3311 38.0325 15.1045C38.0045 14.8111 37.9732 14.5122 37.9383 14.2076C37.6014 11.2547 36.9334 7.8547 35.6221 5.17425C35.5224 4.9704 35.4188 4.77099 35.3113 4.57603C35.0709 4.13513 34.8011 3.71049 34.5036 3.30492C34.496 3.29381 34.4883 3.2827 34.4802 3.27203V3.26936L34.4726 3.2587C34.418 3.18581 34.3635 3.11559 34.3086 3.0467C33.7897 2.40018 33.2284 1.92062 32.6248 1.60803C32.1513 1.35892 31.6289 1.2134 31.0933 1.18136C30.5018 1.14714 29.8698 1.24847 29.2059 1.48003C29.1541 1.49781 29.1018 1.51736 29.0496 1.53692C29.0307 1.54403 29.0113 1.5507 28.9924 1.55825C28.9735 1.56581 28.9577 1.57203 28.9406 1.5787C28.8343 1.62092 28.7271 1.66759 28.6189 1.71425C28.5843 1.72981 28.5496 1.74581 28.5153 1.76225C27.2275 2.36181 25.8343 3.41247 24.3847 4.88003C24.6258 5.02372 24.8464 5.19827 25.041 5.39914C25.3341 5.70256 25.5727 6.05287 25.7469 6.43514C25.7793 6.50759 25.7973 6.55559 25.8023 6.56847C25.7802 6.55025 25.4532 6.31336 24.8077 6.03959C23.8807 5.6467 22.2964 5.1787 20.0104 5.1787C17.7244 5.1787 16.1424 5.64581 15.2153 6.0387C14.5685 6.31247 14.2406 6.55025 14.218 6.56847C14.2183 6.56671 14.2183 6.56491 14.218 6.56314C14.287 6.38628 14.372 6.21595 14.4721 6.05425L14.4816 6.0387V6.03647L14.5176 5.97914L14.5392 5.94492C14.8166 5.51157 15.1909 5.14669 15.6334 4.87825C14.2027 3.42981 12.8271 2.38936 11.5536 1.78403C11.4469 1.73381 11.3406 1.68536 11.2356 1.64092C11.1906 1.62181 11.1455 1.60359 11.0982 1.58536C11.0739 1.57603 11.0496 1.56536 11.0257 1.55647L10.9685 1.53514C10.9162 1.51559 10.864 1.49603 10.8122 1.47825C10.1482 1.2467 9.51625 1.14536 8.92436 1.17958C8.38873 1.21172 7.86639 1.35723 7.39282 1.60625C6.79222 1.91884 6.23111 2.3984 5.70949 3.04492C5.65409 3.11381 5.60003 3.18403 5.54553 3.25692L5.53742 3.26759V3.27025C5.25711 3.64983 5.00135 4.04646 4.77165 4.45781C4.64042 4.6904 4.51475 4.92936 4.39463 5.1747C3.57255 6.85647 3.00363 8.81914 2.61039 10.7809C2.37751 11.9431 2.20499 13.1036 2.08021 14.2031C2.04568 14.5083 2.01429 14.8085 1.98607 15.1036C1.7712 17.3485 1.74192 19.2405 1.74508 20.2089C1.74508 20.6383 1.75408 20.8867 1.75453 20.9031C1.7556 20.9458 1.75167 20.9885 1.74282 21.0303C1.73922 21.0471 1.73697 21.0645 1.73201 21.0814C1.72706 21.0983 1.22571 22.8267 1.19958 25.0814C1.19643 25.3343 1.19958 25.6014 1.21219 25.8783C1.22075 26.0871 1.23336 26.3014 1.25228 26.5209C1.25228 26.5325 1.25499 26.5449 1.25589 26.5569C1.2655 26.6627 1.27631 26.7695 1.28832 26.8774C1.36626 27.6295 1.5148 28.3728 1.73201 29.0978C1.86715 29.539 2.0327 29.9705 2.22751 30.3894C2.33066 30.6116 2.44282 30.8294 2.5658 31.0454C2.58742 31.0836 2.61084 31.1218 2.63246 31.16C2.87133 31.5667 3.14388 31.9532 3.44733 32.3156C4.92526 34.0774 6.8185 35.5058 9.04508 36.5725C9.84268 36.9527 10.6644 37.2817 11.505 37.5574H8.46129C6.11444 36.4223 4.13697 34.9067 2.56715 33.0365C0.873455 31.0178 -0.00041876 28.2516 0.0446263 25.0365C0.0734551 22.9031 0.488321 21.2529 0.59733 20.8547C0.582915 20.3174 0.532914 17.5027 0.930661 14.0431C1.51625 8.93959 2.75363 5.0907 4.60453 2.6027C5.79327 1.00492 7.223 0.146696 8.85273 0.0529181C10.3919 -0.0359708 12.0744 0.56403 13.8527 1.83647C15.1888 2.79247 16.2487 3.89914 16.7415 4.42003C17.6117 4.2027 18.6892 4.05025 20.0041 4.05025C21.3189 4.05025 22.3964 4.2027 23.2667 4.42003C23.7595 3.89914 24.8194 2.79247 26.1554 1.83647C27.9338 0.56403 29.6162 -0.0359708 31.1554 0.0529181C32.7847 0.146696 34.2149 1.00492 35.4032 2.6027C37.2545 5.09158 38.4906 8.93959 39.0775 14.0431C39.4753 17.5027 39.4253 20.3174 39.4108 20.8547C39.5194 21.2547 39.9347 22.9049 39.9631 25.0365C40.0068 28.2534 39.1347 31.0178 37.4406 33.0365Z" fill="black"/>
<path d="M12.5387 24.741C14.1592 24.741 15.4729 23.1059 15.4729 21.0889C15.4729 19.072 14.1592 17.4369 12.5387 17.4369C10.9182 17.4369 9.60449 19.072 9.60449 21.0889C9.60449 23.1059 10.9182 24.741 12.5387 24.741Z" fill="black"/>
<path d="M27.7624 24.741C29.3829 24.741 30.6966 23.1059 30.6966 21.0889C30.6966 19.072 29.3829 17.4369 27.7624 17.4369C26.1418 17.4369 24.8281 19.072 24.8281 21.0889C24.8281 23.1059 26.1418 24.741 27.7624 24.741Z" fill="black"/>
<path d="M13.1723 20.8799C13.6833 20.8799 14.0975 20.3303 14.0975 19.6524C14.0975 18.9744 13.6833 18.4248 13.1723 18.4248C12.6613 18.4248 12.2471 18.9744 12.2471 19.6524C12.2471 20.3303 12.6613 20.8799 13.1723 20.8799Z" fill="#18171F"/>
<path d="M27.1694 20.8799C27.6804 20.8799 28.0946 20.3303 28.0946 19.6524C28.0946 18.9744 27.6804 18.4248 27.1694 18.4248C26.6584 18.4248 26.2441 18.9744 26.2441 19.6524C26.2441 20.3303 26.6584 20.8799 27.1694 20.8799Z" fill="#18171F"/>
<path d="M31.5484 37.5573L30.5047 38.0261H26.8916L28.5105 37.5573" fill="black"/>
<path d="M9.50561 38.0261L8.46191 37.5573H11.5079L13.1313 38.0261" fill="black"/>
<path d="M23.4137 24.0755C22.6993 22.7173 21.8471 22.0373 21.1737 21.6977C20.5002 21.3582 20.0052 21.3582 20.0052 21.3582C20.0052 21.3582 18.0232 21.3582 16.5966 24.0755C15.1146 26.8955 12.0052 29.0755 8.23042 27.9013C6.31105 27.3057 5.10384 26.5199 4.01465 26.1644C4.68222 30.0182 7.03267 32.7866 10.0408 34.587C13.0489 36.3875 16.7119 37.231 20.0052 37.231C26.5917 37.231 34.6601 33.8724 35.9962 26.1644C34.907 26.5164 33.6989 27.3044 31.7804 27.9013C28.0052 29.0768 24.8957 26.8968 23.4137 24.0755ZM24.525 32.9879H24.4719C24.3055 33.4554 24.0688 33.8954 23.7696 34.2933C23.1615 35.0933 22.0128 36.051 20.0052 36.051C17.9953 36.051 16.8489 35.095 16.2408 34.2933C15.9422 33.8954 15.7062 33.4553 15.5408 32.9879H15.4876C12.5773 32.9679 12.8192 30.5733 12.8192 30.5733C12.8192 30.5733 13.8137 31.6302 15.9944 31.3288C18.175 31.0275 18.7619 30.335 18.8385 30.0582C18.9151 29.7813 18.8385 29.1897 18.8385 29.1897C18.8385 29.1897 16.6651 28.6324 16.5083 26.2937C16.4995 26.22 16.495 26.1458 16.4948 26.0715C16.4948 24.7093 18.0674 23.6053 20.0083 23.6053C21.948 23.6053 23.5219 24.7093 23.5219 26.0715C23.5217 26.1458 23.5171 26.22 23.5079 26.2937C23.3511 28.6324 21.1777 29.1897 21.1777 29.1897C21.1777 29.1897 21.1011 29.7813 21.1777 30.0582C21.2543 30.335 21.8408 31.027 24.0214 31.3288C26.202 31.6306 27.1971 30.5733 27.1971 30.5733C27.1971 30.5733 27.4354 32.9693 24.525 32.9893V32.9879Z" fill="white"/>
<path d="M21.3185 33.3524C21.1811 33.3139 21.038 33.2988 20.8955 33.3079C21.038 33.2988 21.1811 33.3139 21.3185 33.3524Z" fill="black"/>
<path d="M18.3057 33.5706C18.4809 33.3893 18.7845 33.2951 19.0917 33.3075C18.7845 33.2937 18.4804 33.3884 18.3057 33.5706Z" fill="black"/>
<path d="M37.9389 14.2089C37.602 11.256 36.934 7.85598 35.6227 5.17554C35.523 4.97169 35.4194 4.77228 35.3119 4.57732C35.0713 4.13654 34.8015 3.71191 34.5043 3.3062C34.4966 3.29509 34.4889 3.28398 34.4808 3.27332V3.27065L34.4727 3.25998C34.4187 3.18769 34.364 3.11702 34.3088 3.04798C33.8278 2.50148 33.1764 2.12815 32.457 1.98665C30.9844 1.69198 28.6543 2.22932 25.475 5.94843C25.5682 6.09064 25.6511 6.23915 25.7232 6.39287L25.743 6.43732C25.7754 6.50976 25.7935 6.55776 25.7984 6.57065C25.8565 6.63909 25.9164 6.7142 25.9786 6.79287C26.0869 6.93328 26.1865 7.08007 26.2768 7.23243C26.2768 7.23243 25.4295 6.66798 23.5137 6.31065C22.901 6.1984 22.2823 6.1205 21.6606 6.07732C21.1547 6.04087 20.6056 6.02087 20.0074 6.02398H19.9989C19.893 6.02398 19.7894 6.02398 19.6862 6.02398H19.5606C19.4681 6.02398 19.3769 6.02591 19.2871 6.02976L19.1736 6.03243C19.0835 6.03539 18.9935 6.03894 18.9034 6.04309L18.8007 6.04754C18.7106 6.05198 18.6205 6.05731 18.5349 6.06265L18.4421 6.06843L18.1817 6.08798L18.0971 6.09509C18.011 6.1022 17.9272 6.1102 17.8439 6.11865L17.7664 6.1262C17.6831 6.13509 17.602 6.14443 17.5218 6.15376L17.4489 6.1622C17.3691 6.17243 17.2912 6.18265 17.2142 6.19331L17.1457 6.20265C17.0691 6.21331 16.9948 6.22487 16.9205 6.23643L16.8547 6.24665C16.7822 6.2582 16.7119 6.2702 16.6421 6.28265L16.5763 6.29776C16.5074 6.3102 16.4412 6.32265 16.3754 6.33554L16.3137 6.34754C16.2493 6.36043 16.1876 6.37376 16.1259 6.38709L16.0642 6.39998C16.0047 6.41331 15.9475 6.4262 15.8903 6.43998L15.8281 6.4542L15.6696 6.49376L15.6052 6.5102C15.5565 6.52265 15.5097 6.53554 15.4628 6.54843L15.3957 6.56709C15.3507 6.57909 15.3106 6.59154 15.2691 6.60354L15.1989 6.62443C15.161 6.63554 15.125 6.64709 15.089 6.65865C15.0642 6.6662 15.039 6.67376 15.0151 6.68176L14.9227 6.71243C14.8962 6.72131 14.8696 6.72976 14.8444 6.73865L14.77 6.76487C14.7417 6.77509 14.7128 6.78487 14.6858 6.79509L14.6308 6.81554L14.5408 6.84976L14.507 6.86354L14.4074 6.90309L14.3957 6.90798C13.9453 7.09332 13.7353 7.2342 13.7353 7.2342C13.825 7.08306 13.9236 6.93732 14.0308 6.79776C14.0917 6.7182 14.1525 6.6422 14.211 6.57287V6.56665C14.2799 6.38978 14.365 6.21946 14.4651 6.05776L14.4745 6.0422V6.03998C14.4862 6.02132 14.498 6.0022 14.5106 5.98265C14.5178 5.97109 14.5245 5.95998 14.5322 5.94843C14.4687 5.8742 14.4061 5.80265 14.3435 5.73109L14.279 5.65687C14.2367 5.60887 14.1948 5.56309 14.1529 5.51643C14.111 5.46976 14.0691 5.42265 14.0281 5.37732C13.9871 5.33198 13.9543 5.29776 13.9173 5.2582C13.8723 5.20887 13.8272 5.15865 13.7822 5.11065C13.7471 5.07376 13.7128 5.03909 13.6786 5.00265C13.6335 4.9542 13.5849 4.90443 13.5385 4.85731C13.5052 4.82309 13.4723 4.79065 13.4389 4.75731C13.3939 4.7102 13.3448 4.6622 13.2984 4.61643C13.266 4.58443 13.234 4.5542 13.2016 4.52265C13.1565 4.4782 13.1083 4.43376 13.0624 4.38931L12.9678 4.30043C12.9227 4.25598 12.8777 4.2142 12.8299 4.17243L12.7362 4.08887C12.6912 4.04843 12.6462 4.00754 12.6011 3.96843C12.57 3.94131 12.5394 3.91554 12.511 3.88931C12.466 3.85109 12.4209 3.81243 12.3759 3.77598C12.3453 3.7502 12.3151 3.72576 12.2858 3.70087C12.2408 3.66532 12.1989 3.62931 12.1556 3.59465C12.1254 3.5702 12.0953 3.54754 12.0655 3.52398C12.0205 3.4902 11.9804 3.45687 11.9381 3.42443C11.9079 3.40132 11.8781 3.37998 11.848 3.35731L11.7245 3.26531L11.6344 3.20131L11.5142 3.11643L11.4241 3.05643C11.3849 3.02976 11.3457 3.00354 11.307 2.9782C11.2772 2.95865 11.2475 2.93998 11.2169 2.92131C11.179 2.89687 11.1412 2.87243 11.1034 2.84932L11.0133 2.79598C10.9763 2.77376 10.9399 2.75154 10.9034 2.73065C10.8736 2.71331 10.8444 2.69731 10.8133 2.68043C10.7822 2.66354 10.7421 2.64043 10.7065 2.62131C10.6709 2.6022 10.648 2.58976 10.6187 2.57465C10.5894 2.55954 10.5498 2.5382 10.5155 2.52087C10.4813 2.50354 10.4565 2.49154 10.4254 2.47643L10.3259 2.42843L10.2358 2.38843C10.2034 2.37376 10.1714 2.35909 10.1399 2.34398C10.1083 2.32887 10.0813 2.31909 10.0525 2.30709C10.0236 2.29509 9.9903 2.28131 9.95922 2.26931L9.87273 2.23598L9.78264 2.20265C9.75337 2.19198 9.72454 2.1822 9.69571 2.17243L9.60967 2.14354L9.52364 2.11687C9.49571 2.10843 9.46823 2.09998 9.44075 2.09243C9.41328 2.08487 9.38355 2.07643 9.35517 2.06887L9.27544 2.04798L9.1903 2.02798L9.11373 2.01065L9.02949 1.99376L8.95562 1.97998L8.87228 1.9662L8.80111 1.95554L8.71958 1.94532L8.65021 1.93732L8.57003 1.9302L8.50337 1.92487L8.42454 1.92087C8.40292 1.92087 8.38129 1.91998 8.35967 1.9182C8.33805 1.91643 8.31237 1.91643 8.28264 1.9182H8.22949H8.15066H8.0912L8.01463 1.92265L7.95652 1.92665L7.8831 1.93331L7.82544 1.93954L7.75517 1.94887L7.69841 1.95731C7.67589 1.96043 7.65336 1.96443 7.63129 1.96843L7.57499 1.97865L7.51147 1.99154L7.45562 2.00398C7.43535 2.00843 7.41508 2.01331 7.39526 2.01865L7.3394 2.03287L7.28355 2.04843L7.22769 2.06487L7.17544 2.08132L7.11913 2.09954L7.07409 2.11643L7.01733 2.13732L6.97228 2.1542L6.91463 2.17732L6.87679 2.19376L6.81778 2.21954L6.7849 2.23509L6.72499 2.26354L6.69706 2.27732L6.6358 2.30887L6.61373 2.32087L6.55066 2.35554L6.53445 2.36487L6.46958 2.40309L6.45877 2.40976L6.3921 2.45109L6.38805 2.45376C6.1317 2.61592 5.90099 2.8145 5.70337 3.04309C5.64781 3.11183 5.59315 3.1825 5.5394 3.25509L5.53084 3.26576V3.26843C5.25054 3.648 4.99477 4.04464 4.76508 4.45598C4.63384 4.68857 4.50817 4.92754 4.38805 5.17287C3.56598 6.85465 2.99706 8.81954 2.60382 10.7791C2.37093 11.9413 2.19841 13.1018 2.07363 14.2013C2.0391 14.5065 2.00772 14.8067 1.97949 15.1018C2.02883 15.16 2.08578 15.2116 2.14886 15.2551C2.23426 15.3128 2.33144 15.3512 2.43356 15.3678C2.53567 15.3844 2.64022 15.3787 2.73985 15.3511C3.5903 15.1498 3.71553 13.992 3.71553 13.992C3.60066 9.58531 5.53039 6.25865 6.57093 4.79687C6.62769 4.71776 6.68129 4.64354 6.7322 4.57465C6.87625 4.37991 7.08311 4.23927 7.31883 4.17579C7.55456 4.11232 7.80515 4.12978 8.02949 4.22531C8.46684 4.41532 8.86563 4.682 9.20652 5.01243L9.21012 5.01598C9.37032 5.17068 9.51934 5.33627 9.65607 5.51154C9.65839 5.51403 9.6605 5.51671 9.66237 5.51954C10.3214 6.36398 10.6534 7.34176 10.8065 7.9222C10.8427 8.06146 10.829 8.20879 10.7675 8.33915C10.7061 8.46952 10.6008 8.57487 10.4696 8.63732C9.93871 8.89518 9.43607 9.20614 8.96958 9.56531C8.88535 9.66843 3.13174 16.7249 3.87949 25.1142C3.8921 25.2578 3.90787 25.3991 3.92454 25.5395C3.95066 25.7502 3.98084 25.9582 4.01463 26.1618C5.10382 26.5138 6.31192 27.3018 8.23039 27.8986C12.0052 29.0729 15.1146 26.8929 16.5966 24.0729C18.0241 21.356 20.0038 21.3555 20.0052 21.3555C20.0065 21.3555 20.5007 21.3555 21.1736 21.6951C21.8466 22.0346 22.6993 22.7146 23.4137 24.0729C24.8957 26.8929 28.0052 29.0729 31.7799 27.8986C33.6993 27.3018 34.9065 26.5138 35.9957 26.1618C36.0308 25.9573 36.0609 25.7499 36.0858 25.5395C36.1034 25.3991 36.1191 25.2578 36.1308 25.1142C36.8795 16.7249 31.1259 9.66843 31.0408 9.56531C30.5744 9.20615 30.0719 8.89518 29.5412 8.63732C29.4099 8.57495 29.3045 8.46962 29.243 8.33925C29.1815 8.20888 29.1676 8.06151 29.2038 7.9222C29.357 7.33954 29.6889 6.36398 30.3484 5.51954C30.3501 5.51661 30.3523 5.51392 30.3547 5.51154C30.4913 5.33617 30.6403 5.17057 30.8007 5.01598L30.8043 5.01243C31.1453 4.68234 31.5443 4.41609 31.9817 4.22665C32.2061 4.13119 32.4567 4.11377 32.6924 4.17724C32.9281 4.24071 33.1349 4.38131 33.279 4.57598C33.3299 4.64443 33.3835 4.71865 33.4403 4.7982C34.4808 6.26176 36.4106 9.58665 36.2953 13.9933C36.2953 13.9933 36.4205 15.1511 37.2705 15.3524C37.3702 15.3801 37.4748 15.3858 37.577 15.3692C37.6792 15.3526 37.7765 15.3141 37.8619 15.2564C37.925 15.2129 37.982 15.1614 38.0313 15.1031C38.0052 14.8102 37.9727 14.5106 37.9389 14.2089Z" fill="#E70C00"/>
<path d="M13.1654 15.6853C13.3525 15.9852 13.5878 16.2528 13.8623 16.4778C14.5943 17.0742 15.5042 17.2458 16.1776 16.8333C17.0726 16.2862 17.2181 14.9129 16.5199 13.736C16.5051 13.7107 16.4907 13.6858 16.4749 13.6609C15.7488 12.5053 14.46 11.9862 13.547 12.4636C13.5169 12.4793 13.4881 12.4957 13.4605 12.5129C12.5488 13.072 12.4159 14.4925 13.1654 15.6853Z" fill="white"/>
<path d="M5.96786 11.2423C7.36426 8.8596 9.77011 5.53471 6.56832 4.79782C5.52778 6.26138 3.59805 9.58627 3.71291 13.9929C3.73859 13.9818 4.59444 13.5867 5.96786 11.2423Z" fill="white"/>
<path d="M9.20898 5.0173C9.37205 5.18738 9.5207 5.35257 9.65493 5.51288C9.5182 5.33761 9.36919 5.17201 9.20898 5.0173Z" fill="white"/>
<path d="M8.96889 9.56668C9.43538 9.20751 9.93801 8.89655 10.4689 8.63868C10.6001 8.57624 10.7054 8.47088 10.7668 8.34052C10.8283 8.21015 10.842 8.06282 10.8058 7.92357C10.6527 7.3409 10.3207 6.36535 9.66168 5.5209C9.6598 5.51807 9.65769 5.5154 9.65537 5.5129C9.52084 5.3529 9.37219 5.18772 9.20943 5.01735L9.20582 5.01379C8.86494 4.68337 8.46614 4.41669 8.0288 4.22668C7.80446 4.13115 7.55387 4.11368 7.31814 4.17716C7.08241 4.24063 6.87556 4.38128 6.73151 4.57602C6.6806 4.64446 6.627 4.71868 6.57024 4.79824C9.77204 5.53513 7.36484 8.86002 5.96979 11.2427C4.59637 13.5867 3.74052 13.9818 3.71484 13.9929C3.73163 14.6291 3.78971 15.2636 3.88872 15.8925C3.897 15.9449 3.92241 15.9932 3.96107 16.03C3.99972 16.0669 4.04952 16.0903 4.10289 16.0967C4.15626 16.1031 4.21028 16.0921 4.25675 16.0654C4.30322 16.0388 4.33959 15.9978 4.36034 15.9489C4.9689 14.5147 6.47745 11.468 8.96754 9.56802L8.96889 9.56668Z" fill="#DBBDBF"/>
<path d="M3.48275 26.0311C3.66341 26.0634 3.84161 26.108 4.01608 26.1644C3.98049 25.96 3.95031 25.752 3.92599 25.5422C3.90842 25.4018 3.89266 25.2604 3.88095 25.1169C3.12959 16.7275 8.8832 9.67107 8.96563 9.56796C6.47374 11.468 4.96698 14.5146 4.35842 15.9489C4.33767 15.9978 4.3013 16.0387 4.25484 16.0654C4.20837 16.0921 4.15434 16.103 4.10097 16.0967C4.0476 16.0903 3.9978 16.0669 3.95915 16.03C3.92049 15.9931 3.89509 15.9448 3.8868 15.8924C3.78779 15.2635 3.72971 14.6291 3.71293 13.9929C3.71293 13.9929 3.5877 15.1506 2.73725 15.352C2.63763 15.3797 2.53306 15.3855 2.43093 15.3689C2.32879 15.3523 2.23161 15.3138 2.14626 15.256C2.08318 15.2125 2.02622 15.1609 1.97689 15.1026C1.76203 17.3475 1.7332 19.2395 1.7359 20.208C1.7359 20.6373 1.74491 20.8858 1.74581 20.9022C1.7465 20.9449 1.74242 20.9875 1.73365 21.0293C1.73005 21.0462 1.72779 21.0635 1.72284 21.0804C1.71788 21.0973 1.21698 22.8258 1.19041 25.0804C1.1877 25.3333 1.1904 25.6004 1.20302 25.8773C1.21158 26.0862 1.22419 26.3004 1.24311 26.52C2.09356 26.0089 2.7841 25.904 3.48275 26.0311Z" fill="#A50400"/>
<path d="M16.1923 31.8062C18.0806 31.5396 19.0689 30.8525 19.5198 30.4227V28.976C18.9365 28.8939 18.381 28.6776 17.8982 28.3444C17.8594 28.3178 17.8211 28.2907 17.7838 28.2631C17.709 28.2076 17.6365 28.1498 17.5671 28.0898C16.9756 27.5813 16.5842 26.9258 16.5085 26.2942C16.6653 28.6329 18.8387 29.1902 18.8387 29.1902C18.8387 29.1902 18.9153 29.7818 18.8387 30.0587C18.7621 30.3356 18.1756 31.0276 15.9946 31.3293C13.8135 31.6311 12.8193 30.5738 12.8193 30.5738C12.8193 30.5738 13.7338 32.1547 16.1923 31.8062Z" fill="#DBBDBF"/>
<path d="M14.0318 6.79558C13.9246 6.93514 13.8259 7.08088 13.7363 7.23202C13.9464 7.10481 14.1674 6.99595 14.3967 6.90669L14.4084 6.9018L14.5079 6.86225L14.5417 6.84847L14.6318 6.81425L14.6868 6.7938C14.7138 6.78358 14.7426 6.7738 14.771 6.76358L14.8453 6.73736C14.8706 6.72847 14.8971 6.72002 14.9237 6.71114L15.0161 6.68047C15.0399 6.67247 15.0652 6.66491 15.0899 6.65736C15.126 6.6458 15.162 6.63425 15.1998 6.62314L15.2701 6.60225C15.3116 6.59025 15.3534 6.5778 15.3967 6.5658L15.4638 6.54713C15.5089 6.53425 15.5575 6.52136 15.6061 6.50891L15.6706 6.49247L15.8291 6.45291L15.8913 6.43869C15.9485 6.42491 16.0057 6.41202 16.0652 6.39869L16.1273 6.38669C16.189 6.37336 16.2507 6.36002 16.3152 6.34713L16.3769 6.33514C16.4426 6.32225 16.5089 6.3098 16.5778 6.29736L16.6408 6.28625C16.7107 6.2738 16.7809 6.2618 16.8534 6.25025L16.9192 6.24003C16.9926 6.22847 17.067 6.21691 17.1444 6.20625L17.2129 6.19691C17.2899 6.18625 17.3679 6.17602 17.4476 6.1658L17.5206 6.15736C17.6007 6.14802 17.6818 6.13869 17.7652 6.1298L17.8426 6.12225C17.926 6.1138 18.0098 6.1058 18.0958 6.09869L18.1805 6.09158L18.4408 6.07203L18.5336 6.06625C18.621 6.06091 18.7093 6.05558 18.7994 6.05114L18.9021 6.04669C18.9922 6.04284 19.0823 6.03928 19.1724 6.03602L19.2859 6.03336C19.376 6.03069 19.4671 6.02877 19.5593 6.02758H19.685C19.7881 6.02758 19.8917 6.02758 19.9976 6.02758H20.0061C20.6043 6.02447 21.1534 6.04447 21.6593 6.08091C22.281 6.1241 22.8997 6.202 23.5125 6.31425C25.4179 6.6698 26.2665 7.22936 26.2751 7.23514C26.1848 7.08277 26.0852 6.93598 25.9769 6.79558C25.9165 6.71691 25.8561 6.64091 25.7967 6.57336C25.7742 6.55514 25.4471 6.3178 24.8016 6.04402C23.8746 5.65114 22.2904 5.18314 20.0043 5.18314C17.7183 5.18314 16.1363 5.65025 15.2093 6.04314C14.5625 6.31691 14.2345 6.55514 14.212 6.57336C14.1543 6.63869 14.0931 6.71558 14.0318 6.79558Z" fill="#FF3E39"/>
<path d="M5.70312 3.0458C5.90075 2.81721 6.13146 2.61863 6.38781 2.45647L6.39187 2.4538L6.45853 2.41246L6.46934 2.4058L6.53421 2.36758L6.55042 2.35824L6.61349 2.32358L6.63556 2.31158L6.69682 2.28002L6.72475 2.26624L6.78466 2.2378L6.81754 2.22224L6.87655 2.19647L6.91439 2.18002L6.97205 2.15691L7.01709 2.14002L7.07205 2.12002L7.11709 2.10313L7.1734 2.08491L7.22565 2.06847L7.28151 2.05202L7.33736 2.03647L7.39322 2.02224C7.41304 2.01691 7.43331 2.01202 7.45358 2.00758L7.50943 1.99513L7.57295 1.98224L7.62925 1.97202C7.65133 1.96802 7.6743 1.96402 7.69637 1.96091L7.75313 1.95247L7.8234 1.94313L7.88106 1.93691L7.95448 1.93024L8.01259 1.92624L8.08916 1.9218H8.14862H8.22745H8.28962C8.31514 1.9218 8.34082 1.9218 8.36664 1.9218C8.39247 1.9218 8.41409 1.92269 8.43151 1.92447L8.51033 1.92847L8.577 1.9338L8.65718 1.94091L8.72655 1.94891L8.80808 1.95913L8.87925 1.9698L8.96259 1.98358L9.03646 1.99735L9.1207 2.01424L9.19727 2.03158L9.28241 2.05158L9.36214 2.07247C9.39052 2.08002 9.41889 2.08758 9.44772 2.09602C9.47655 2.10447 9.50268 2.11202 9.53061 2.12047L9.61664 2.14713L9.70268 2.17602C9.73151 2.1858 9.76034 2.19558 9.78962 2.20624L9.87971 2.23958L9.96619 2.27291C9.99727 2.28491 10.0284 2.2978 10.0594 2.31069C10.0905 2.32358 10.1175 2.33469 10.1468 2.34758C10.1761 2.36046 10.2103 2.37558 10.2428 2.39202L10.3329 2.43202L10.4324 2.48002C10.4617 2.49424 10.491 2.50847 10.5225 2.52446C10.554 2.54046 10.591 2.56002 10.6257 2.57824C10.6603 2.59646 10.6842 2.60846 10.7135 2.62491C10.7428 2.64135 10.7847 2.66402 10.8202 2.68402C10.8558 2.70402 10.8793 2.71691 10.9103 2.73424C10.9468 2.75513 10.9833 2.77869 11.0202 2.79958L11.1103 2.85291C11.1482 2.87602 11.186 2.90046 11.2239 2.92491C11.2536 2.94357 11.2833 2.96224 11.3139 2.9818C11.3527 3.00713 11.3919 3.03335 11.4311 3.06002L11.5211 3.12002L11.6414 3.20491L11.7315 3.26891L11.8468 3.35557C11.877 3.3778 11.9067 3.40002 11.9369 3.42269C11.9793 3.45513 12.0216 3.48846 12.0644 3.52224C12.0941 3.5458 12.1243 3.56669 12.1545 3.59291C12.1995 3.62757 12.241 3.66357 12.2847 3.69913C12.3148 3.72402 12.345 3.74846 12.3748 3.77424C12.4198 3.81068 12.4648 3.84935 12.5099 3.88757C12.5405 3.91379 12.5711 3.93957 12.6 3.96668C12.645 4.00579 12.6901 4.04668 12.7351 4.08713L12.8288 4.17068C12.8739 4.21246 12.9189 4.25602 12.9666 4.29868L13.0612 4.38757C13.1063 4.43202 13.154 4.47646 13.2004 4.5209C13.2329 4.55246 13.2648 4.58268 13.2973 4.61468C13.3423 4.65913 13.391 4.70846 13.4378 4.75557C13.4712 4.7889 13.504 4.82135 13.5374 4.85557C13.5824 4.90268 13.6306 4.95246 13.6775 5.0009C13.7117 5.03735 13.7459 5.07202 13.7811 5.1089C13.8261 5.1569 13.8712 5.20713 13.9162 5.25646C13.9531 5.29602 13.9896 5.33468 14.027 5.37557C14.0644 5.41646 14.1103 5.46802 14.1518 5.51468C14.1932 5.56135 14.2356 5.60713 14.2779 5.65513L14.3423 5.72935C14.4049 5.8009 14.4675 5.87246 14.5311 5.94668C14.8084 5.51334 15.1827 5.14845 15.6252 4.88002C14.1946 3.43157 12.8189 2.39113 11.5455 1.7858C11.4387 1.73558 11.3324 1.68713 11.2275 1.64269C11.1824 1.62358 11.1374 1.60536 11.0901 1.58713C11.0657 1.5778 11.0419 1.56713 11.0175 1.55824L10.9603 1.53691C10.9081 1.51736 10.8558 1.4978 10.804 1.48002C10.1401 1.24847 9.50808 1.14713 8.91619 1.18136C8.38056 1.21349 7.85822 1.359 7.38466 1.60802C6.78376 1.91973 6.22325 2.39898 5.70312 3.0458Z" fill="#FF3E39"/>
<path d="M23.833 16.8333C24.5087 17.2475 25.4258 17.0724 26.16 16.4689C26.4098 16.2619 26.6268 16.0192 26.8037 15.7489C26.8177 15.728 26.8321 15.7071 26.8456 15.6853C27.5952 14.4924 27.4623 13.072 26.5483 12.5128C26.5235 12.4977 26.4988 12.4839 26.4735 12.4684C25.5618 11.9795 24.2663 12.4982 23.5361 13.6591C23.5204 13.684 23.5055 13.7088 23.4911 13.7342C22.7929 14.9128 22.9384 16.2862 23.833 16.8333Z" fill="white"/>
<path d="M34.0437 11.2423C35.4162 13.5872 36.2721 13.9818 36.2959 13.9929C36.4113 9.58627 34.4815 6.2596 33.441 4.79782C30.2414 5.53471 32.6486 8.8596 34.0437 11.2423Z" fill="white"/>
<path d="M30.3574 5.51288C30.4926 5.35287 30.6399 5.18753 30.8034 5.0173C30.643 5.17189 30.494 5.3375 30.3574 5.51288Z" fill="white"/>
<path d="M21.8298 33.7707C21.7806 33.6372 21.6848 33.5253 21.5595 33.4552C21.542 33.4445 21.5235 33.4347 21.505 33.4249L21.4771 33.4121L21.446 33.3974C21.4304 33.3906 21.4142 33.3844 21.3974 33.3787L21.3843 33.3738C21.3636 33.3663 21.342 33.3596 21.3203 33.3534C21.183 33.3149 21.0399 33.2999 20.8974 33.309H20.8942C20.8739 33.309 20.8532 33.3121 20.833 33.3143H20.8199L20.7699 33.3218L20.7456 33.3258L20.7077 33.3338L20.6717 33.3414L20.6465 33.3485C20.6303 33.353 20.6145 33.3569 20.6014 33.3623L20.5879 33.3667C20.5685 33.373 20.5492 33.3796 20.5298 33.3872C20.4121 33.4305 20.3051 33.4978 20.2156 33.5847C20.1261 33.6716 20.0562 33.7762 20.0104 33.8916C19.8595 33.5041 19.4758 33.3227 19.0965 33.3058C18.7893 33.2934 18.4857 33.3876 18.3104 33.5689C18.2546 33.6257 18.2123 33.694 18.1866 33.7689C18.142 33.8865 18.131 34.0139 18.1549 34.1372C18.1787 34.2605 18.2364 34.3749 18.3217 34.468C18.3938 34.5495 18.4794 34.6184 18.5749 34.6716C19.031 34.8393 19.5142 34.9235 20.001 34.92H20.0226C20.5077 34.9241 20.9894 34.8402 21.4438 34.6725C21.4875 34.6507 22.028 34.3512 21.8298 33.7707Z" fill="#FF9C9C"/>
<path d="M35.6515 15.9489C35.6722 15.9979 35.7086 16.0388 35.7551 16.0655C35.8015 16.0921 35.8555 16.1031 35.9089 16.0967C35.9623 16.0903 36.0121 16.0669 36.0507 16.0301C36.0894 15.9932 36.1148 15.9449 36.1231 15.8925C36.2223 15.2637 36.2804 14.6292 36.297 13.9929C36.2708 13.9818 35.415 13.5872 34.0447 11.2423C32.6483 8.85961 30.2424 5.53472 33.4443 4.79783C33.3875 4.71872 33.3339 4.64449 33.283 4.57561C33.1389 4.38093 32.932 4.24034 32.6963 4.17687C32.4606 4.1134 32.21 4.13082 31.9857 4.22627C31.5483 4.41617 31.1495 4.68286 30.8087 5.01338L30.8051 5.01694C30.6415 5.18716 30.4938 5.35249 30.3591 5.51249C30.3567 5.51487 30.3545 5.51756 30.3528 5.5205C29.6933 6.36494 29.3618 7.34272 29.2082 7.92316C29.172 8.06247 29.1859 8.20984 29.2474 8.34021C29.3089 8.47058 29.4143 8.5759 29.5456 8.63827C30.0763 8.89614 30.5788 9.20711 31.0452 9.56627C33.5361 11.4681 35.0456 14.5147 35.6515 15.9489Z" fill="#DBBDBF"/>
<path d="M38.0332 15.1035C37.9838 15.1618 37.9269 15.2134 37.8638 15.2569C37.7784 15.3146 37.6811 15.3532 37.5789 15.3698C37.4767 15.3864 37.3721 15.3806 37.2724 15.3529C36.4224 15.1515 36.2972 13.9937 36.2972 13.9937C36.2806 14.63 36.2225 15.2645 36.1233 15.8933C36.115 15.9457 36.0896 15.994 36.0509 16.0309C36.0123 16.0678 35.9625 16.0912 35.9091 16.0975C35.8557 16.1039 35.8017 16.093 35.7552 16.0663C35.7088 16.0396 35.6724 15.9987 35.6517 15.9497C35.0436 14.5155 33.5346 11.4689 31.0449 9.56885C31.1292 9.67196 36.8827 16.7284 36.135 25.1178C36.1224 25.2613 36.1066 25.4027 36.0899 25.5431C36.0638 25.7538 36.0338 25.9612 35.9999 26.1653C36.1732 26.1093 36.3502 26.0647 36.5296 26.032C37.2296 25.9058 37.9206 26.0098 38.771 26.5209C38.7904 26.3013 38.8025 26.0871 38.8116 25.8782C38.8228 25.6013 38.8269 25.3342 38.8242 25.0813C38.7976 22.8262 38.2967 21.0973 38.2917 21.0813C38.2868 21.0653 38.2845 21.0471 38.2809 21.0302C38.2722 20.9884 38.2681 20.9458 38.2688 20.9031C38.2688 20.8862 38.2773 20.6298 38.2787 20.1858C38.2764 19.2102 38.2458 17.3302 38.0332 15.1035Z" fill="#A50400"/>
<path d="M22.4468 28.0898C22.377 28.1498 22.3049 28.2076 22.2297 28.2631C22.1923 28.2907 22.1545 28.3178 22.1158 28.3445C21.6329 28.6776 21.0774 28.8939 20.4941 28.976V30.4227C20.9446 30.8525 21.9333 31.5387 23.8212 31.8063C26.2801 32.1547 27.1959 30.5751 27.1959 30.5747C27.1959 30.5742 26.2009 31.6316 24.0202 31.3303C21.8396 31.0289 21.2531 30.3365 21.1766 30.0596C21.1 29.7827 21.1766 29.1911 21.1766 29.1911C21.1766 29.1911 23.35 28.6338 23.5067 26.2951C23.4297 26.9258 23.0383 27.5813 22.4468 28.0898Z" fill="#DBBDBF"/>
<path d="M32.4577 1.98667C33.1762 2.12839 33.8267 2.50137 34.3072 3.04712C33.7887 2.40089 33.2261 1.92089 32.6239 1.60845C32.1504 1.35934 31.628 1.21382 31.0923 1.18178C30.5009 1.14756 29.8689 1.24889 29.205 1.48045C29.1532 1.49823 29.1009 1.51778 29.0487 1.53734C29.0297 1.54445 29.0104 1.55112 28.9914 1.55867C28.9725 1.56623 28.9568 1.57245 28.9396 1.57912C28.8333 1.62134 28.7261 1.66801 28.618 1.71467C28.5833 1.73023 28.5487 1.74623 28.5144 1.76267C27.2266 2.36223 25.8333 3.41289 24.3838 4.88045C24.8263 5.14888 25.2006 5.51377 25.4779 5.94712C28.655 2.228 30.9851 1.69067 32.4577 1.98667Z" fill="#FF3E39"/>
<path d="M20.0081 33.1458H20.0036C18.427 32.5867 17.5888 33.6232 17.3955 33.8961C17.7225 34.2389 18.1235 34.5046 18.5689 34.6734C18.474 34.6202 18.389 34.5513 18.3176 34.4699C18.2323 34.3767 18.1746 34.2623 18.1507 34.139C18.1269 34.0157 18.1379 33.8883 18.1824 33.7707C18.2082 33.6958 18.2505 33.6275 18.3063 33.5707C18.4811 33.3885 18.7851 33.2938 19.0924 33.3076C19.4716 33.3245 19.8554 33.5059 20.0063 33.8934C20.0521 33.778 20.122 33.6734 20.2115 33.5865C20.301 33.4996 20.408 33.4323 20.5257 33.389C20.5451 33.3814 20.5644 33.3747 20.5838 33.3685L20.5973 33.3641C20.6126 33.3587 20.6284 33.3547 20.6424 33.3503L20.6676 33.3432L20.7036 33.3356L20.7415 33.3276L20.7658 33.3236L20.8158 33.3161H20.8288C20.8491 33.3161 20.8698 33.3121 20.8901 33.3107H20.8933C21.0358 33.3017 21.1788 33.3167 21.3162 33.3552C21.3378 33.3614 21.3613 33.3681 21.3802 33.3756L21.3933 33.3805C21.4098 33.3864 21.426 33.3927 21.4419 33.3992L21.473 33.4138L21.5009 33.4267C21.5194 33.4365 21.5379 33.4463 21.5554 33.457C21.6807 33.5271 21.7765 33.639 21.8257 33.7725C22.0221 34.353 21.4815 34.6525 21.4383 34.6752C21.8839 34.5065 22.2851 34.2408 22.6122 33.8979C22.423 33.6232 21.5851 32.5867 20.0081 33.1458Z" fill="#E06E6E"/>
<path d="M9.04955 36.572C10.0692 37.0574 11.1272 37.4602 12.2131 37.7764C13.5923 38.1775 15.0037 38.4614 16.432 38.6249C17.0065 38.693 17.592 38.7442 18.1887 38.7782C18.6932 38.8079 19.2056 38.8246 19.7257 38.8284C19.8194 38.8284 19.9126 38.8284 20.0063 38.8284H20.0464C20.2572 38.8284 20.4671 38.8284 20.677 38.8218C20.7464 38.8218 20.8122 38.8173 20.8833 38.8156C21.4749 38.7996 22.0572 38.768 22.6302 38.7209C22.6901 38.716 22.7491 38.7098 22.8104 38.704L22.9685 38.6889L23.1099 38.6756C23.1617 38.6711 23.214 38.6667 23.2653 38.6609C26.6252 38.3053 29.6257 37.3884 32.132 35.964H32.1351H32.1387C32.1838 35.9396 32.2234 35.9142 32.2658 35.8893L32.3518 35.8387C33.2271 35.3256 34.0536 34.7355 34.8212 34.0756C35.3841 33.5917 35.911 33.0684 36.3977 32.5098C36.4527 32.4458 36.5081 32.3822 36.5622 32.3178C36.8881 31.929 37.1786 31.5126 37.4302 31.0733C37.7852 30.4474 38.0695 29.7849 38.2779 29.0978C38.4985 28.3733 38.6507 27.6303 38.7324 26.8782C38.7444 26.7704 38.7553 26.6636 38.7649 26.5578C38.7649 26.5458 38.7649 26.5333 38.768 26.5218C37.9176 26.0084 37.2266 25.9044 36.5266 26.0329C36.3471 26.0654 36.1702 26.11 35.9968 26.1662C34.6613 33.8729 26.5928 37.2329 20.0059 37.2329C16.7126 37.2329 13.0486 36.3933 10.0414 34.5902C7.03423 32.7871 4.68333 30.0196 4.01576 26.1644C3.84129 26.108 3.66309 26.0635 3.48243 26.0311C2.78378 25.9053 2.09324 26.0102 1.24414 26.5227C1.24414 26.5342 1.24684 26.5467 1.24774 26.5587C1.25735 26.6644 1.26816 26.7713 1.28018 26.8791C1.36177 27.6309 1.51393 28.3737 1.73468 29.0978C1.86968 29.539 2.03524 29.9705 2.23017 30.3893C2.33333 30.6116 2.44549 30.8293 2.56846 31.0453C2.59009 31.0836 2.61351 31.1218 2.63513 31.16C2.87431 31.5665 3.14684 31.953 3.45 32.3156C4.93018 34.0756 6.82342 35.5058 9.04955 36.572Z" fill="#DBBDBF"/>
<path d="M27.1946 30.5747C27.1946 30.5747 26.2788 32.1547 23.8198 31.8062C21.932 31.5396 20.9437 30.8524 20.4928 30.4227V28.976C21.076 28.8939 21.6315 28.6776 22.1144 28.3444C22.1531 28.3178 22.191 28.2907 22.2284 28.2631C22.3036 28.2076 22.3756 28.1498 22.4455 28.0898C23.0369 27.5813 23.4283 26.9258 23.5036 26.2942C23.5128 26.2205 23.5174 26.1463 23.5175 26.072C23.5175 24.7098 21.945 23.6058 20.004 23.6058C18.0644 23.6058 16.4905 24.7098 16.4905 26.072C16.4907 26.1463 16.4952 26.2205 16.504 26.2942C16.5797 26.9258 16.9712 27.5831 17.5626 28.0898C17.632 28.1498 17.7045 28.2076 17.7793 28.2631C17.8166 28.2907 17.8549 28.3178 17.8937 28.3444C18.3765 28.6776 18.932 28.8939 19.5153 28.976V30.4227C19.0648 30.8524 18.0739 31.5387 16.1878 31.8062C13.7293 32.1547 12.8135 30.5751 12.8135 30.5747C12.8135 30.5747 12.5716 32.9693 15.482 32.9893H15.5351C15.7013 33.4569 15.938 33.8969 16.2374 34.2947C16.8455 35.0947 17.9941 36.0524 20.0018 36.0524C22.0117 36.0524 23.1581 35.0964 23.7662 34.2947C24.0654 33.8968 24.3021 33.4568 24.4684 32.9893H24.5216C27.4369 32.9693 27.1946 30.5747 27.1946 30.5747ZM21.4432 34.6733C20.9889 34.8411 20.5071 34.925 20.0221 34.9209H20.0018C19.5142 34.925 19.03 34.8411 18.573 34.6733C18.4775 34.6201 18.3919 34.5513 18.3198 34.4698C18.3912 34.5513 18.4762 34.6201 18.5712 34.6733C18.1255 34.5052 17.7239 34.2401 17.3964 33.8978C17.5896 33.6249 18.4275 32.5884 20.0045 33.1476H20.009C21.5856 32.5884 22.4238 33.6249 22.6171 33.8978C22.2899 34.2401 21.8886 34.5052 21.4432 34.6733Z" fill="black"/>
<path d="M26.8922 38.0262H30.5053C30.5053 38.0262 30.0445 38.2159 29.8093 38.3048L29.7719 38.319C29.5728 38.3943 29.3716 38.4667 29.1683 38.5364C28.965 38.606 28.7601 38.6733 28.5535 38.7381L28.4877 38.7577C28.3222 38.8093 28.1554 38.859 27.9872 38.907L27.7976 38.9599C27.6625 38.9973 27.5273 39.0337 27.3922 39.0688C27.3305 39.0852 27.2688 39.1013 27.2062 39.1168C27.0147 39.1652 26.8224 39.2119 26.6278 39.2559L26.5931 39.2635C26.4072 39.3052 26.22 39.3451 26.0314 39.383C25.9701 39.3955 25.9084 39.407 25.8467 39.419C25.6999 39.4486 25.5523 39.4762 25.4039 39.5017L25.2215 39.5341C25.0183 39.5688 24.8161 39.6021 24.6084 39.6323C24.6084 39.6323 24.6084 39.6323 24.6057 39.6323C23.8715 39.7405 23.1207 39.8221 22.3535 39.8772C21.5862 39.9323 20.8041 39.9596 20.0071 39.959C18.4671 39.9628 16.9291 39.8531 15.4057 39.631C15.1999 39.6008 14.9958 39.5675 14.7922 39.5328L14.6098 39.5004C14.4617 39.4743 14.3143 39.4467 14.1674 39.4177C14.1057 39.4057 14.044 39.3941 13.9827 39.3817C13.7944 39.3435 13.6072 39.3036 13.421 39.2621L13.3859 39.2546C13.1917 39.2101 12.9994 39.1657 12.8075 39.1155C12.7454 39.0999 12.6836 39.0839 12.6219 39.0675C12.4856 39.0325 12.3505 38.9962 12.2165 38.9586L12.0273 38.9057C11.8589 38.8573 11.6917 38.8079 11.526 38.7564L11.4607 38.7368C11.0475 38.6073 10.6413 38.4676 10.2422 38.3177L10.2053 38.3035C9.97013 38.2146 9.73904 38.1208 9.50977 38.0253H13.135C14.2202 38.2954 15.3221 38.4953 16.4336 38.6239C17.0084 38.6921 17.594 38.7432 18.1904 38.7773C18.6949 38.8069 19.2072 38.8236 19.7273 38.8275C19.821 38.8275 19.9143 38.8275 20.008 38.8275H20.0454C20.2562 38.8275 20.4661 38.8275 20.676 38.8208C20.7454 38.8208 20.8111 38.8164 20.8823 38.8146C21.4737 38.7986 22.0571 38.7701 22.6296 38.7204C22.689 38.715 22.7481 38.7093 22.8098 38.703L22.9679 38.6879L23.1093 38.6746C23.1611 38.6701 23.2129 38.6657 23.2643 38.6604C24.4873 38.534 25.6996 38.3221 26.8922 38.0262Z" fill="black"/>
<path d="M37.4406 33.0365C35.8707 34.9067 33.8933 36.4223 31.5469 37.5574H28.509C29.7654 37.1472 30.977 36.614 32.1257 35.9658H32.1289H32.1325C32.1775 35.9414 32.2171 35.916 32.2595 35.8911L32.3455 35.8409C33.2222 35.3271 34.05 34.7363 34.8189 34.0756C35.3819 33.5917 35.9088 33.0684 36.3955 32.5098C36.4505 32.4458 36.5059 32.3823 36.5599 32.3178C36.8859 31.9291 37.1764 31.5126 37.428 31.0734C37.7831 30.4475 38.0674 29.785 38.2757 29.0978C38.4963 28.3734 38.6484 27.6304 38.7302 26.8783C38.7422 26.7704 38.753 26.6636 38.7626 26.5578C38.7626 26.5458 38.7626 26.5334 38.7658 26.5218C38.7852 26.3023 38.7973 26.088 38.8063 25.8791C38.8176 25.6023 38.8217 25.3351 38.819 25.0823C38.7924 22.8271 38.2915 21.0987 38.2865 21.0823C38.2816 21.0658 38.2793 21.048 38.2757 21.0311C38.2669 20.9893 38.2629 20.9467 38.2635 20.904C38.2635 20.8871 38.2721 20.6307 38.2734 20.1867C38.2734 19.2089 38.2455 17.3311 38.0325 15.1045C38.0045 14.8111 37.9732 14.5122 37.9383 14.2076C37.6014 11.2547 36.9334 7.8547 35.6221 5.17425C35.5224 4.9704 35.4188 4.77099 35.3113 4.57603C35.0709 4.13513 34.8011 3.71049 34.5036 3.30492C34.496 3.29381 34.4883 3.2827 34.4802 3.27203V3.26936L34.4726 3.2587C34.418 3.18581 34.3635 3.11559 34.3086 3.0467C33.7897 2.40018 33.2284 1.92062 32.6248 1.60803C32.1513 1.35892 31.6289 1.2134 31.0933 1.18136C30.5018 1.14714 29.8698 1.24847 29.2059 1.48003C29.1541 1.49781 29.1018 1.51736 29.0496 1.53692C29.0307 1.54403 29.0113 1.5507 28.9924 1.55825C28.9735 1.56581 28.9577 1.57203 28.9406 1.5787C28.8343 1.62092 28.7271 1.66759 28.6189 1.71425C28.5843 1.72981 28.5496 1.74581 28.5153 1.76225C27.2275 2.36181 25.8343 3.41247 24.3847 4.88003C24.6258 5.02372 24.8464 5.19827 25.041 5.39914C25.3341 5.70256 25.5727 6.05287 25.7469 6.43514C25.7793 6.50759 25.7973 6.55559 25.8023 6.56847C25.7802 6.55025 25.4532 6.31336 24.8077 6.03959C23.8807 5.6467 22.2964 5.1787 20.0104 5.1787C17.7244 5.1787 16.1424 5.64581 15.2153 6.0387C14.5685 6.31247 14.2406 6.55025 14.218 6.56847C14.2183 6.56671 14.2183 6.56491 14.218 6.56314C14.287 6.38628 14.372 6.21595 14.4721 6.05425L14.4816 6.0387V6.03647L14.5176 5.97914L14.5392 5.94492C14.8166 5.51157 15.1909 5.14669 15.6334 4.87825C14.2027 3.42981 12.8271 2.38936 11.5536 1.78403C11.4469 1.73381 11.3406 1.68536 11.2356 1.64092C11.1906 1.62181 11.1455 1.60359 11.0982 1.58536C11.0739 1.57603 11.0496 1.56536 11.0257 1.55647L10.9685 1.53514C10.9162 1.51559 10.864 1.49603 10.8122 1.47825C10.1482 1.2467 9.51625 1.14536 8.92436 1.17958C8.38873 1.21172 7.86639 1.35723 7.39282 1.60625C6.79222 1.91884 6.23111 2.3984 5.70949 3.04492C5.65409 3.11381 5.60003 3.18403 5.54553 3.25692L5.53742 3.26759V3.27025C5.25711 3.64983 5.00135 4.04646 4.77165 4.45781C4.64042 4.6904 4.51475 4.92936 4.39463 5.1747C3.57255 6.85647 3.00363 8.81914 2.61039 10.7809C2.37751 11.9431 2.20499 13.1036 2.08021 14.2031C2.04568 14.5083 2.01429 14.8085 1.98607 15.1036C1.7712 17.3485 1.74192 19.2405 1.74508 20.2089C1.74508 20.6383 1.75408 20.8867 1.75453 20.9031C1.7556 20.9458 1.75167 20.9885 1.74282 21.0303C1.73922 21.0471 1.73697 21.0645 1.73201 21.0814C1.72706 21.0983 1.22571 22.8267 1.19958 25.0814C1.19643 25.3343 1.19958 25.6014 1.21219 25.8783C1.22075 26.0871 1.23336 26.3014 1.25228 26.5209C1.25228 26.5325 1.25499 26.5449 1.25589 26.5569C1.2655 26.6627 1.27631 26.7695 1.28832 26.8774C1.36626 27.6295 1.5148 28.3728 1.73201 29.0978C1.86715 29.539 2.0327 29.9705 2.22751 30.3894C2.33066 30.6116 2.44282 30.8294 2.5658 31.0454C2.58742 31.0836 2.61084 31.1218 2.63246 31.16C2.87133 31.5667 3.14388 31.9532 3.44733 32.3156C4.92526 34.0774 6.8185 35.5058 9.04508 36.5725C9.84268 36.9527 10.6644 37.2817 11.505 37.5574H8.46129C6.11444 36.4223 4.13697 34.9067 2.56715 33.0365C0.873455 31.0178 -0.00041876 28.2516 0.0446263 25.0365C0.0734551 22.9031 0.488321 21.2529 0.59733 20.8547C0.582915 20.3174 0.532914 17.5027 0.930661 14.0431C1.51625 8.93959 2.75363 5.0907 4.60453 2.6027C5.79327 1.00492 7.223 0.146696 8.85273 0.0529181C10.3919 -0.0359708 12.0744 0.56403 13.8527 1.83647C15.1888 2.79247 16.2487 3.89914 16.7415 4.42003C17.6117 4.2027 18.6892 4.05025 20.0041 4.05025C21.3189 4.05025 22.3964 4.2027 23.2667 4.42003C23.7595 3.89914 24.8194 2.79247 26.1554 1.83647C27.9338 0.56403 29.6162 -0.0359708 31.1554 0.0529181C32.7847 0.146696 34.2149 1.00492 35.4032 2.6027C37.2545 5.09158 38.4906 8.93959 39.0775 14.0431C39.4753 17.5027 39.4253 20.3174 39.4108 20.8547C39.5194 21.2547 39.9347 22.9049 39.9631 25.0365C40.0068 28.2534 39.1347 31.0178 37.4406 33.0365Z" fill="black"/>
<path d="M12.5387 24.741C14.1592 24.741 15.4729 23.1059 15.4729 21.0889C15.4729 19.072 14.1592 17.4369 12.5387 17.4369C10.9182 17.4369 9.60449 19.072 9.60449 21.0889C9.60449 23.1059 10.9182 24.741 12.5387 24.741Z" fill="black"/>
<path d="M27.7624 24.741C29.3829 24.741 30.6966 23.1059 30.6966 21.0889C30.6966 19.072 29.3829 17.4369 27.7624 17.4369C26.1418 17.4369 24.8281 19.072 24.8281 21.0889C24.8281 23.1059 26.1418 24.741 27.7624 24.741Z" fill="black"/>
<path d="M13.1723 20.8799C13.6833 20.8799 14.0975 20.3303 14.0975 19.6524C14.0975 18.9744 13.6833 18.4248 13.1723 18.4248C12.6613 18.4248 12.2471 18.9744 12.2471 19.6524C12.2471 20.3303 12.6613 20.8799 13.1723 20.8799Z" fill="white"/>
<path d="M27.1694 20.8799C27.6804 20.8799 28.0946 20.3303 28.0946 19.6524C28.0946 18.9744 27.6804 18.4248 27.1694 18.4248C26.6584 18.4248 26.2441 18.9744 26.2441 19.6524C26.2441 20.3303 26.6584 20.8799 27.1694 20.8799Z" fill="white"/>
<path d="M31.5484 37.5573L30.5047 38.0261H26.8916L28.5105 37.5573" fill="black"/>
<path d="M9.50561 38.0261L8.46191 37.5573H11.5079L13.1313 38.0261" fill="black"/>
<path d="M60.71 25.72H58.79V31H51.71V10H61.82C63.76 10 65.45 10.32 66.89 10.96C68.33 11.6 69.44 12.52 70.22 13.72C71 14.92 71.39 16.32 71.39 17.92C71.39 19.42 71.05 20.73 70.37 21.85C69.69 22.97 68.71 23.86 67.43 24.52L71.84 31H64.28L60.71 25.72ZM64.25 17.92C64.25 17.14 64.01 16.54 63.53 16.12C63.05 15.68 62.33 15.46 61.37 15.46H58.79V20.38H61.37C62.33 20.38 63.05 20.17 63.53 19.75C64.01 19.31 64.25 18.7 64.25 17.92ZM91.5235 25.66V31H74.0635V10H91.1335V15.34H81.0235V17.8H89.9035V22.9H81.0235V25.66H91.5235ZM94.2491 10H104.599C106.939 10 108.999 10.43 110.779 11.29C112.579 12.13 113.969 13.34 114.949 14.92C115.949 16.5 116.449 18.36 116.449 20.5C116.449 22.64 115.949 24.5 114.949 26.08C113.969 27.66 112.579 28.88 110.779 29.74C108.999 30.58 106.939 31 104.599 31H94.2491V10ZM104.299 25.48C105.819 25.48 107.029 25.05 107.929 24.19C108.849 23.31 109.309 22.08 109.309 20.5C109.309 18.92 108.849 17.7 107.929 16.84C107.029 15.96 105.819 15.52 104.299 15.52H101.329V25.48H104.299Z" fill="#0B0D17"/>
<path d="M135.108 15.34V18.94H143.868V24.28H135.108V31H128.028V10H145.098V15.34H135.108ZM147.335 10H154.415V25.51H163.895V31H147.335V10ZM176.568 31.48C174.308 31.48 172.278 31.01 170.478 30.07C168.678 29.13 167.268 27.83 166.248 26.17C165.228 24.49 164.718 22.6 164.718 20.5C164.718 18.4 165.228 16.52 166.248 14.86C167.268 13.18 168.678 11.87 170.478 10.93C172.278 9.99 174.308 9.52 176.568 9.52C178.828 9.52 180.858 9.99 182.658 10.93C184.458 11.87 185.868 13.18 186.888 14.86C187.908 16.52 188.418 18.4 188.418 20.5C188.418 22.6 187.908 24.49 186.888 26.17C185.868 27.83 184.458 29.13 182.658 30.07C180.858 31.01 178.828 31.48 176.568 31.48ZM176.568 25.75C177.448 25.75 178.238 25.54 178.938 25.12C179.658 24.68 180.228 24.07 180.648 23.29C181.068 22.49 181.278 21.56 181.278 20.5C181.278 19.44 181.068 18.52 180.648 17.74C180.228 16.94 179.658 16.33 178.938 15.91C178.238 15.47 177.448 15.25 176.568 15.25C175.688 15.25 174.888 15.47 174.168 15.91C173.468 16.33 172.908 16.94 172.488 17.74C172.068 18.52 171.858 19.44 171.858 20.5C171.858 21.56 172.068 22.49 172.488 23.29C172.908 24.07 173.468 24.68 174.168 25.12C174.888 25.54 175.688 25.75 176.568 25.75ZM199.537 24.04L197.947 25.81V31H190.987V10H197.947V17.62L204.847 10H212.557L204.157 19.24L212.977 31H204.787L199.537 24.04ZM213.927 10H221.007V31H213.927V10Z" fill="#E70C00"/>
</svg>
