<svg width="116" height="142" viewBox="0 0 116 142" fill="none" xmlns="http://www.w3.org/2000/svg">
<g filter="url(#filter0_d)">
<rect width="96" height="96" rx="16" fill="white"/>
<path d="M48 72C61.2549 72 72 61.2549 72 48C72 34.7451 61.2549 24 48 24C34.7451 24 24 34.7451 24 48C24 61.2549 34.7451 72 48 72Z" fill="white"/>
<path d="M28.5488 45.2292L67.5697 30.1841C69.3807 29.5299 70.9624 30.626 70.3756 33.3645L70.3789 33.3611L63.735 64.6621C63.2426 66.8812 61.9239 67.4209 60.079 66.3753L49.9613 58.9185L45.0812 63.62C44.5416 64.1596 44.0863 64.6149 43.0407 64.6149L43.7591 54.3184L62.5108 37.3778C63.3268 36.6595 62.3287 36.2548 61.2527 36.9698L38.0797 51.5596L28.0901 48.4433C25.9215 47.7553 25.8743 46.2748 28.5488 45.2292Z" fill="#039BE5"/>
</g>
<path d="M7.85986 122.776H3.82786V120.4H14.8079V122.776H10.7759V133H7.85986V122.776ZM24.6804 128.194C24.6804 128.23 24.6624 128.482 24.6264 128.95H17.3004C17.4324 129.55 17.7444 130.024 18.2364 130.372C18.7284 130.72 19.3404 130.894 20.0724 130.894C20.5764 130.894 21.0204 130.822 21.4044 130.678C21.8004 130.522 22.1664 130.282 22.5024 129.958L23.9964 131.578C23.0844 132.622 21.7524 133.144 20.0004 133.144C18.9084 133.144 17.9424 132.934 17.1024 132.514C16.2624 132.082 15.6144 131.488 15.1584 130.732C14.7024 129.976 14.4744 129.118 14.4744 128.158C14.4744 127.21 14.6964 126.358 15.1404 125.602C15.5964 124.834 16.2144 124.24 16.9944 123.82C17.7864 123.388 18.6684 123.172 19.6404 123.172C20.5884 123.172 21.4464 123.376 22.2144 123.784C22.9824 124.192 23.5824 124.78 24.0144 125.548C24.4584 126.304 24.6804 127.186 24.6804 128.194ZM19.6584 125.296C19.0224 125.296 18.4884 125.476 18.0564 125.836C17.6244 126.196 17.3604 126.688 17.2644 127.312H22.0344C21.9384 126.7 21.6744 126.214 21.2424 125.854C20.8104 125.482 20.2824 125.296 19.6584 125.296ZM26.5499 119.644H29.3579V133H26.5499V119.644ZM41.45 128.194C41.45 128.23 41.432 128.482 41.396 128.95H34.07C34.202 129.55 34.514 130.024 35.006 130.372C35.498 130.72 36.11 130.894 36.842 130.894C37.346 130.894 37.79 130.822 38.174 130.678C38.57 130.522 38.936 130.282 39.272 129.958L40.766 131.578C39.854 132.622 38.522 133.144 36.77 133.144C35.678 133.144 34.712 132.934 33.872 132.514C33.032 132.082 32.384 131.488 31.928 130.732C31.472 129.976 31.244 129.118 31.244 128.158C31.244 127.21 31.466 126.358 31.91 125.602C32.366 124.834 32.984 124.24 33.764 123.82C34.556 123.388 35.438 123.172 36.41 123.172C37.358 123.172 38.216 123.376 38.984 123.784C39.752 124.192 40.352 124.78 40.784 125.548C41.228 126.304 41.45 127.186 41.45 128.194ZM36.428 125.296C35.792 125.296 35.258 125.476 34.826 125.836C34.394 126.196 34.13 126.688 34.034 127.312H38.804C38.708 126.7 38.444 126.214 38.012 125.854C37.58 125.482 37.052 125.296 36.428 125.296ZM53.3094 123.316V131.38C53.3094 133.156 52.8474 134.476 51.9234 135.34C50.9994 136.204 49.6494 136.636 47.8734 136.636C46.9374 136.636 46.0494 136.522 45.2094 136.294C44.3694 136.066 43.6734 135.736 43.1214 135.304L44.2374 133.288C44.6454 133.624 45.1614 133.888 45.7854 134.08C46.4094 134.284 47.0334 134.386 47.6574 134.386C48.6294 134.386 49.3434 134.164 49.7994 133.72C50.2674 133.288 50.5014 132.628 50.5014 131.74V131.326C49.7694 132.13 48.7494 132.532 47.4414 132.532C46.5534 132.532 45.7374 132.34 44.9934 131.956C44.2614 131.56 43.6794 131.008 43.2474 130.3C42.8154 129.592 42.5994 128.776 42.5994 127.852C42.5994 126.928 42.8154 126.112 43.2474 125.404C43.6794 124.696 44.2614 124.15 44.9934 123.766C45.7374 123.37 46.5534 123.172 47.4414 123.172C48.8454 123.172 49.9134 123.634 50.6454 124.558V123.316H53.3094ZM47.9994 130.228C48.7434 130.228 49.3494 130.012 49.8174 129.58C50.2974 129.136 50.5374 128.56 50.5374 127.852C50.5374 127.144 50.2974 126.574 49.8174 126.142C49.3494 125.698 48.7434 125.476 47.9994 125.476C47.2554 125.476 46.6434 125.698 46.1634 126.142C45.6834 126.574 45.4434 127.144 45.4434 127.852C45.4434 128.56 45.6834 129.136 46.1634 129.58C46.6434 130.012 47.2554 130.228 47.9994 130.228ZM58.605 124.594C58.941 124.126 59.391 123.772 59.955 123.532C60.531 123.292 61.191 123.172 61.935 123.172V125.764C61.623 125.74 61.413 125.728 61.305 125.728C60.501 125.728 59.871 125.956 59.415 126.412C58.959 126.856 58.731 127.528 58.731 128.428V133H55.923V123.316H58.605V124.594ZM67.4579 123.172C68.9579 123.172 70.1099 123.532 70.9139 124.252C71.7179 124.96 72.1199 126.034 72.1199 127.474V133H69.4919V131.794C68.9639 132.694 67.9799 133.144 66.5399 133.144C65.7959 133.144 65.1479 133.018 64.5959 132.766C64.0559 132.514 63.6419 132.166 63.3539 131.722C63.0659 131.278 62.9219 130.774 62.9219 130.21C62.9219 129.31 63.2579 128.602 63.9299 128.086C64.6139 127.57 65.6639 127.312 67.0799 127.312H69.3119C69.3119 126.7 69.1259 126.232 68.7539 125.908C68.3819 125.572 67.8239 125.404 67.0799 125.404C66.5639 125.404 66.0539 125.488 65.5499 125.656C65.0579 125.812 64.6379 126.028 64.2899 126.304L63.2819 124.342C63.8099 123.97 64.4399 123.682 65.1719 123.478C65.9159 123.274 66.6779 123.172 67.4579 123.172ZM67.2419 131.254C67.7219 131.254 68.1479 131.146 68.5199 130.93C68.8919 130.702 69.1559 130.372 69.3119 129.94V128.95H67.3859C66.2339 128.95 65.6579 129.328 65.6579 130.084C65.6579 130.444 65.7959 130.732 66.0719 130.948C66.3599 131.152 66.7499 131.254 67.2419 131.254ZM87.0632 123.172C88.2752 123.172 89.2352 123.532 89.9432 124.252C90.6632 124.96 91.0232 126.028 91.0232 127.456V133H88.2152V127.888C88.2152 127.12 88.0532 126.55 87.7292 126.178C87.4172 125.794 86.9672 125.602 86.3792 125.602C85.7192 125.602 85.1972 125.818 84.8132 126.25C84.4292 126.67 84.2372 127.3 84.2372 128.14V133H81.4292V127.888C81.4292 126.364 80.8172 125.602 79.5932 125.602C78.9452 125.602 78.4292 125.818 78.0452 126.25C77.6612 126.67 77.4692 127.3 77.4692 128.14V133H74.6612V123.316H77.3432V124.432C77.7032 124.024 78.1412 123.712 78.6572 123.496C79.1852 123.28 79.7612 123.172 80.3852 123.172C81.0692 123.172 81.6872 123.31 82.2392 123.586C82.7912 123.85 83.2352 124.24 83.5712 124.756C83.9672 124.252 84.4652 123.862 85.0652 123.586C85.6772 123.31 86.3432 123.172 87.0632 123.172Z" fill="#1F1E28"/>
<defs>
<filter id="filter0_d" x="-20" y="-10" width="136" height="136" filterUnits="userSpaceOnUse" color-interpolation-filters="sRGB">
<feFlood flood-opacity="0" result="BackgroundImageFix"/>
<feColorMatrix in="SourceAlpha" type="matrix" values="0 0 0 0 0 0 0 0 0 0 0 0 0 0 0 0 0 0 127 0" result="hardAlpha"/>
<feOffset dy="10"/>
<feGaussianBlur stdDeviation="10"/>
<feColorMatrix type="matrix" values="0 0 0 0 0.160784 0 0 0 0 0.160784 0 0 0 0 0.164706 0 0 0 0.07 0"/>
<feBlend mode="normal" in2="BackgroundImageFix" result="effect1_dropShadow"/>
<feBlend mode="normal" in="SourceGraphic" in2="effect1_dropShadow" result="shape"/>
</filter>
</defs>
</svg>
