<svg width="136" height="142" viewBox="0 0 136 142" fill="none" xmlns="http://www.w3.org/2000/svg">
<g filter="url(#filter0_d)">
<rect x="20" width="96" height="96" rx="16" fill="white"/>
<path d="M92 32.617C90.215 33.4 88.313 33.919 86.33 34.171C88.37 32.953 89.927 31.039 90.659 28.732C88.757 29.866 86.657 30.667 84.419 31.114C82.613 29.191 80.039 28 77.231 28C71.783 28 67.397 32.422 67.397 37.843C67.397 38.623 67.463 39.373 67.625 40.087C59.444 39.688 52.205 35.767 47.342 29.794C46.493 31.267 45.995 32.953 45.995 34.768C45.995 38.176 47.75 41.197 50.366 42.946C48.785 42.916 47.234 42.457 45.92 41.734C45.92 41.764 45.92 41.803 45.92 41.842C45.92 46.624 49.331 50.596 53.804 51.511C53.003 51.73 52.13 51.835 51.224 51.835C50.594 51.835 49.958 51.799 49.361 51.667C50.636 55.564 54.254 58.429 58.556 58.522C55.208 61.141 50.957 62.719 46.355 62.719C45.548 62.719 44.774 62.683 44 62.584C48.359 65.395 53.525 67 59.096 67C77.204 67 87.104 52 87.104 38.998C87.104 38.563 87.089 38.143 87.068 37.726C89.021 36.34 90.662 34.609 92 32.617Z" fill="#03A9F4"/>
</g>
<path d="M38.5737 122.776H34.5417V120.4H45.5217V122.776H41.4897V133H38.5737V122.776ZM61.8646 123.316L58.3546 133H55.6546L53.4766 126.988L51.2266 133H48.5266L45.0346 123.316H47.6806L49.9666 129.868L52.3426 123.316H54.7186L57.0226 129.868L59.3806 123.316H61.8646ZM63.17 123.316H65.978V133H63.17V123.316ZM64.574 121.966C64.058 121.966 63.638 121.816 63.314 121.516C62.99 121.216 62.828 120.844 62.828 120.4C62.828 119.956 62.99 119.584 63.314 119.284C63.638 118.984 64.058 118.834 64.574 118.834C65.09 118.834 65.51 118.978 65.834 119.266C66.158 119.554 66.32 119.914 66.32 120.346C66.32 120.814 66.158 121.204 65.834 121.516C65.51 121.816 65.09 121.966 64.574 121.966ZM74.8301 132.532C74.5541 132.736 74.2121 132.892 73.8041 133C73.4081 133.096 72.9881 133.144 72.5441 133.144C71.3921 133.144 70.4981 132.85 69.8621 132.262C69.2381 131.674 68.9261 130.81 68.9261 129.67V125.692H67.4321V123.532H68.9261V121.174H71.7341V123.532H74.1461V125.692H71.7341V129.634C71.7341 130.042 71.8361 130.36 72.0401 130.588C72.2561 130.804 72.5561 130.912 72.9401 130.912C73.3841 130.912 73.7621 130.792 74.0741 130.552L74.8301 132.532ZM82.4414 132.532C82.1654 132.736 81.8234 132.892 81.4154 133C81.0194 133.096 80.5994 133.144 80.1554 133.144C79.0034 133.144 78.1094 132.85 77.4734 132.262C76.8494 131.674 76.5374 130.81 76.5374 129.67V125.692H75.0434V123.532H76.5374V121.174H79.3454V123.532H81.7574V125.692H79.3454V129.634C79.3454 130.042 79.4474 130.36 79.6514 130.588C79.8674 130.804 80.1674 130.912 80.5514 130.912C80.9954 130.912 81.3734 130.792 81.6854 130.552L82.4414 132.532ZM93.2049 128.194C93.2049 128.23 93.1869 128.482 93.1509 128.95H85.8249C85.9569 129.55 86.2689 130.024 86.7609 130.372C87.2529 130.72 87.8649 130.894 88.5969 130.894C89.1009 130.894 89.5449 130.822 89.9289 130.678C90.3249 130.522 90.6909 130.282 91.0269 129.958L92.5209 131.578C91.6089 132.622 90.2769 133.144 88.5249 133.144C87.4329 133.144 86.4669 132.934 85.6269 132.514C84.7869 132.082 84.1389 131.488 83.6829 130.732C83.2269 129.976 82.9989 129.118 82.9989 128.158C82.9989 127.21 83.2209 126.358 83.6649 125.602C84.1209 124.834 84.7389 124.24 85.5189 123.82C86.3109 123.388 87.1929 123.172 88.1649 123.172C89.1129 123.172 89.9709 123.376 90.7389 123.784C91.5069 124.192 92.1069 124.78 92.5389 125.548C92.9829 126.304 93.2049 127.186 93.2049 128.194ZM88.1829 125.296C87.5469 125.296 87.0129 125.476 86.5809 125.836C86.1489 126.196 85.8849 126.688 85.7889 127.312H90.5589C90.4629 126.7 90.1989 126.214 89.7669 125.854C89.3349 125.482 88.8069 125.296 88.1829 125.296ZM97.7563 124.594C98.0923 124.126 98.5423 123.772 99.1063 123.532C99.6823 123.292 100.342 123.172 101.086 123.172V125.764C100.774 125.74 100.564 125.728 100.456 125.728C99.6523 125.728 99.0223 125.956 98.5663 126.412C98.1103 126.856 97.8823 127.528 97.8823 128.428V133H95.0743V123.316H97.7563V124.594Z" fill="#18171F"/>
<defs>
<filter id="filter0_d" x="0" y="-10" width="136" height="136" filterUnits="userSpaceOnUse" color-interpolation-filters="sRGB">
<feFlood flood-opacity="0" result="BackgroundImageFix"/>
<feColorMatrix in="SourceAlpha" type="matrix" values="0 0 0 0 0 0 0 0 0 0 0 0 0 0 0 0 0 0 127 0" result="hardAlpha"/>
<feOffset dy="10"/>
<feGaussianBlur stdDeviation="10"/>
<feColorMatrix type="matrix" values="0 0 0 0 0.160784 0 0 0 0 0.160784 0 0 0 0 0.164706 0 0 0 0.07 0"/>
<feBlend mode="normal" in2="BackgroundImageFix" result="effect1_dropShadow"/>
<feBlend mode="normal" in="SourceGraphic" in2="effect1_dropShadow" result="shape"/>
</filter>
</defs>
</svg>
