<svg width="117" height="142" viewBox="0 0 117 142" fill="none" xmlns="http://www.w3.org/2000/svg">
<g filter="url(#filter0_d)">
<rect x="20" width="96" height="96" rx="16" fill="white"/>
<path d="M68.0078 24.03C57.9978 24.03 55.0703 24.0403 54.5012 24.0875C52.447 24.2583 51.1688 24.5817 49.7762 25.2751C48.7029 25.808 47.8566 26.4257 47.0212 27.2917C45.4999 28.8709 44.5779 30.8137 44.2441 33.1232C44.0819 34.2443 44.0347 34.473 44.0251 40.1997C44.0214 42.1086 44.0251 44.6209 44.0251 47.9906C44.0251 57.9925 44.0361 60.9171 44.0841 61.4851C44.25 63.484 44.5635 64.7416 45.2274 66.1172C46.496 68.7504 48.9191 70.7272 51.7736 71.4648C52.762 71.7193 53.8536 71.8594 55.2551 71.9258C55.8488 71.9516 61.9009 71.9701 67.9566 71.9701C74.0123 71.9701 80.068 71.9627 80.647 71.9332C82.2697 71.8569 83.212 71.7304 84.2539 71.4611C85.6693 71.0982 86.9884 70.4306 88.119 69.505C89.2497 68.5795 90.1647 67.4183 90.8001 66.1025C91.451 64.76 91.7811 63.4545 91.9305 61.5599C91.9629 61.1469 91.9766 54.5612 91.9766 47.9844C91.9766 41.4064 91.9618 34.8329 91.9294 34.4199C91.7782 32.4947 91.4481 31.2002 90.7761 29.832C90.2248 28.7119 89.6126 27.8755 88.7238 27.0202C87.1379 25.5052 85.198 24.5832 82.886 24.2498C81.766 24.0879 81.5428 24.04 75.8117 24.03H68.0078Z" fill="url(#paint0_radial)"/>
<path d="M68.0078 24.03C57.9978 24.03 55.0703 24.0403 54.5012 24.0875C52.447 24.2583 51.1688 24.5817 49.7762 25.2751C48.7029 25.808 47.8566 26.4257 47.0212 27.2917C45.4999 28.8709 44.5779 30.8137 44.2441 33.1232C44.0819 34.2443 44.0347 34.473 44.0251 40.1997C44.0214 42.1086 44.0251 44.6209 44.0251 47.9906C44.0251 57.9925 44.0361 60.9171 44.0841 61.4851C44.25 63.484 44.5635 64.7416 45.2274 66.1172C46.496 68.7504 48.9191 70.7272 51.7736 71.4648C52.762 71.7193 53.8536 71.8594 55.2551 71.9258C55.8488 71.9516 61.9009 71.9701 67.9566 71.9701C74.0123 71.9701 80.068 71.9627 80.647 71.9332C82.2697 71.8569 83.212 71.7304 84.2539 71.4611C85.6693 71.0982 86.9884 70.4306 88.119 69.505C89.2497 68.5795 90.1647 67.4183 90.8001 66.1025C91.451 64.76 91.7811 63.4545 91.9305 61.5599C91.9629 61.1469 91.9766 54.5612 91.9766 47.9844C91.9766 41.4064 91.9618 34.8329 91.9294 34.4199C91.7782 32.4947 91.4481 31.2002 90.7761 29.832C90.2248 28.7119 89.6126 27.8755 88.7238 27.0202C87.1379 25.5052 85.198 24.5832 82.886 24.2498C81.766 24.0879 81.5428 24.04 75.8117 24.03H68.0078Z" fill="url(#paint1_radial)"/>
<path d="M67.9965 30.2996C63.1888 30.2996 62.5855 30.3206 60.6972 30.4066C58.8126 30.4929 57.5263 30.7912 56.4007 31.229C55.2364 31.6811 54.2487 32.286 53.2648 33.2703C52.2801 34.2543 51.6752 35.2419 51.2216 36.4058C50.7827 37.5318 50.484 38.8185 50.3992 40.7024C50.3151 42.5906 50.293 43.1944 50.293 48.0021C50.293 52.8097 50.3144 53.4113 50.3999 55.2995C50.4866 57.1841 50.7849 58.4705 51.2223 59.5961C51.6749 60.7604 52.2797 61.748 53.264 62.732C54.2476 63.7167 55.2353 64.323 56.3988 64.7751C57.5252 65.2129 58.8119 65.5113 60.6961 65.5976C62.5844 65.6835 63.1874 65.7045 67.9947 65.7045C72.8027 65.7045 73.4043 65.6835 75.2925 65.5976C77.1771 65.5113 78.4649 65.2129 79.5913 64.7751C80.7552 64.323 81.7414 63.7167 82.725 62.732C83.7097 61.748 84.3145 60.7604 84.7681 59.5964C85.2033 58.4705 85.502 57.1837 85.5905 55.2999C85.6754 53.4116 85.6975 52.8097 85.6975 48.0021C85.6975 43.1944 85.6754 42.591 85.5905 40.7027C85.502 38.8182 85.2033 37.5318 84.7681 36.4062C84.3145 35.2419 83.7097 34.2543 82.725 33.2703C81.7403 32.2856 80.7556 31.6808 79.5902 31.229C78.4616 30.7912 77.1745 30.4929 75.2899 30.4066C73.4017 30.3206 72.8005 30.2996 67.9914 30.2996H67.9965ZM66.4085 33.4897C66.8798 33.489 67.4057 33.4897 67.9965 33.4897C72.7231 33.4897 73.2833 33.5067 75.1498 33.5915C76.8758 33.6704 77.8125 33.9589 78.4365 34.2012C79.2627 34.522 79.8516 34.9056 80.4709 35.5251C81.0904 36.1447 81.474 36.7348 81.7956 37.5609C82.0379 38.1842 82.3267 39.121 82.4052 40.8469C82.49 42.7131 82.5085 43.2737 82.5085 47.998C82.5085 52.7223 82.49 53.2829 82.4052 55.149C82.3263 56.875 82.0379 57.8118 81.7956 58.4351C81.4747 59.2612 81.0904 59.8494 80.4709 60.4686C79.8513 61.0882 79.263 61.4718 78.4365 61.7926C77.8133 62.036 76.8758 62.3237 75.1498 62.4026C73.2837 62.4875 72.7231 62.5059 67.9965 62.5059C63.2696 62.5059 62.7094 62.4875 60.8433 62.4026C59.1173 62.323 58.1805 62.0346 57.5561 61.7923C56.73 61.4714 56.1399 61.0879 55.5204 60.4683C54.9008 59.8487 54.5172 59.2601 54.1956 58.4336C53.9533 57.8103 53.6645 56.8736 53.586 55.1476C53.5012 53.2814 53.4842 52.7209 53.4842 47.9936C53.4842 43.2663 53.5012 42.7087 53.586 40.8425C53.6649 39.1165 53.9533 38.1798 54.1956 37.5558C54.5165 36.7297 54.9008 36.1396 55.5204 35.52C56.1399 34.9004 56.73 34.5168 57.5561 34.1953C58.1801 33.9518 59.1173 33.6642 60.8433 33.5849C62.4763 33.5111 63.1092 33.489 66.4085 33.4853V33.4897ZM77.4459 36.4291C77.0258 36.4291 76.615 36.5537 76.2657 36.7871C75.9163 37.0206 75.644 37.3524 75.4833 37.7406C75.3225 38.1288 75.2805 38.556 75.3625 38.9681C75.4445 39.3802 75.6469 39.7587 75.9441 40.0557C76.2413 40.3528 76.6198 40.5551 77.032 40.6369C77.4441 40.7188 77.8712 40.6767 78.2594 40.5158C78.6475 40.3549 78.9793 40.0825 79.2126 39.733C79.4459 39.3836 79.5704 38.9728 79.5702 38.5526C79.5702 37.3798 78.6187 36.4283 77.4459 36.4283V36.4291ZM67.9965 38.9111C62.976 38.9111 58.9056 42.9816 58.9056 48.0021C58.9056 53.0225 62.976 57.0912 67.9965 57.0912C73.017 57.0912 77.0864 53.0225 77.0864 48.0021C77.0864 42.9816 73.0166 38.9111 67.9962 38.9111H67.9965ZM67.9965 42.1012C71.2553 42.1012 73.8973 44.743 73.8973 48.0021C73.8973 51.2608 71.2553 53.9029 67.9965 53.9029C64.7374 53.9029 62.0957 51.2608 62.0957 48.0021C62.0957 44.743 64.7374 42.1012 67.9965 42.1012Z" fill="white"/>
</g>
<path d="M20.9081 120.4H23.8241V133H20.9081V120.4ZM32.5023 123.172C33.7023 123.172 34.6683 123.532 35.4003 124.252C36.1443 124.972 36.5163 126.04 36.5163 127.456V133H33.7083V127.888C33.7083 127.12 33.5403 126.55 33.2043 126.178C32.8683 125.794 32.3823 125.602 31.7463 125.602C31.0383 125.602 30.4743 125.824 30.0543 126.268C29.6343 126.7 29.4243 127.348 29.4243 128.212V133H26.6163V123.316H29.2983V124.45C29.6703 124.042 30.1323 123.73 30.6843 123.514C31.2363 123.286 31.8423 123.172 32.5023 123.172ZM42.3196 133.144C41.5156 133.144 40.7296 133.048 39.9616 132.856C39.1936 132.652 38.5816 132.4 38.1256 132.1L39.0616 130.084C39.4936 130.36 40.0156 130.588 40.6276 130.768C41.2396 130.936 41.8396 131.02 42.4276 131.02C43.6156 131.02 44.2096 130.726 44.2096 130.138C44.2096 129.862 44.0476 129.664 43.7236 129.544C43.3996 129.424 42.9016 129.322 42.2296 129.238C41.4376 129.118 40.7836 128.98 40.2676 128.824C39.7516 128.668 39.3016 128.392 38.9176 127.996C38.5456 127.6 38.3596 127.036 38.3596 126.304C38.3596 125.692 38.5336 125.152 38.8816 124.684C39.2416 124.204 39.7576 123.832 40.4296 123.568C41.1136 123.304 41.9176 123.172 42.8416 123.172C43.5256 123.172 44.2036 123.25 44.8756 123.406C45.5596 123.55 46.1236 123.754 46.5676 124.018L45.6316 126.016C44.7796 125.536 43.8496 125.296 42.8416 125.296C42.2416 125.296 41.7916 125.38 41.4916 125.548C41.1916 125.716 41.0416 125.932 41.0416 126.196C41.0416 126.496 41.2036 126.706 41.5276 126.826C41.8516 126.946 42.3676 127.06 43.0756 127.168C43.8676 127.3 44.5156 127.444 45.0196 127.6C45.5236 127.744 45.9616 128.014 46.3336 128.41C46.7056 128.806 46.8916 129.358 46.8916 130.066C46.8916 130.666 46.7116 131.2 46.3516 131.668C45.9916 132.136 45.4636 132.502 44.7676 132.766C44.0836 133.018 43.2676 133.144 42.3196 133.144ZM54.8701 132.532C54.5941 132.736 54.2521 132.892 53.8441 133C53.4481 133.096 53.0281 133.144 52.5841 133.144C51.4321 133.144 50.5381 132.85 49.9021 132.262C49.2781 131.674 48.9661 130.81 48.9661 129.67V125.692H47.4721V123.532H48.9661V121.174H51.7741V123.532H54.1861V125.692H51.7741V129.634C51.7741 130.042 51.8761 130.36 52.0801 130.588C52.2961 130.804 52.5961 130.912 52.9801 130.912C53.4241 130.912 53.8021 130.792 54.1141 130.552L54.8701 132.532ZM60.3524 123.172C61.8524 123.172 63.0044 123.532 63.8084 124.252C64.6124 124.96 65.0144 126.034 65.0144 127.474V133H62.3864V131.794C61.8584 132.694 60.8744 133.144 59.4344 133.144C58.6904 133.144 58.0424 133.018 57.4904 132.766C56.9504 132.514 56.5364 132.166 56.2484 131.722C55.9604 131.278 55.8164 130.774 55.8164 130.21C55.8164 129.31 56.1524 128.602 56.8244 128.086C57.5084 127.57 58.5584 127.312 59.9744 127.312H62.2064C62.2064 126.7 62.0204 126.232 61.6484 125.908C61.2764 125.572 60.7184 125.404 59.9744 125.404C59.4584 125.404 58.9484 125.488 58.4444 125.656C57.9524 125.812 57.5324 126.028 57.1844 126.304L56.1764 124.342C56.7044 123.97 57.3344 123.682 58.0664 123.478C58.8104 123.274 59.5724 123.172 60.3524 123.172ZM60.1364 131.254C60.6164 131.254 61.0424 131.146 61.4144 130.93C61.7864 130.702 62.0504 130.372 62.2064 129.94V128.95H60.2804C59.1284 128.95 58.5524 129.328 58.5524 130.084C58.5524 130.444 58.6904 130.732 58.9664 130.948C59.2544 131.152 59.6444 131.254 60.1364 131.254ZM77.6512 123.316V131.38C77.6512 133.156 77.1892 134.476 76.2652 135.34C75.3412 136.204 73.9912 136.636 72.2152 136.636C71.2792 136.636 70.3912 136.522 69.5512 136.294C68.7112 136.066 68.0152 135.736 67.4632 135.304L68.5792 133.288C68.9872 133.624 69.5032 133.888 70.1272 134.08C70.7512 134.284 71.3752 134.386 71.9992 134.386C72.9712 134.386 73.6852 134.164 74.1412 133.72C74.6092 133.288 74.8432 132.628 74.8432 131.74V131.326C74.1112 132.13 73.0912 132.532 71.7832 132.532C70.8952 132.532 70.0792 132.34 69.3352 131.956C68.6032 131.56 68.0212 131.008 67.5892 130.3C67.1572 129.592 66.9412 128.776 66.9412 127.852C66.9412 126.928 67.1572 126.112 67.5892 125.404C68.0212 124.696 68.6032 124.15 69.3352 123.766C70.0792 123.37 70.8952 123.172 71.7832 123.172C73.1872 123.172 74.2552 123.634 74.9872 124.558V123.316H77.6512ZM72.3412 130.228C73.0852 130.228 73.6912 130.012 74.1592 129.58C74.6392 129.136 74.8792 128.56 74.8792 127.852C74.8792 127.144 74.6392 126.574 74.1592 126.142C73.6912 125.698 73.0852 125.476 72.3412 125.476C71.5972 125.476 70.9852 125.698 70.5052 126.142C70.0252 126.574 69.7852 127.144 69.7852 127.852C69.7852 128.56 70.0252 129.136 70.5052 129.58C70.9852 130.012 71.5972 130.228 72.3412 130.228ZM82.9468 124.594C83.2828 124.126 83.7328 123.772 84.2968 123.532C84.8728 123.292 85.5328 123.172 86.2768 123.172V125.764C85.9648 125.74 85.7548 125.728 85.6468 125.728C84.8428 125.728 84.2128 125.956 83.7568 126.412C83.3008 126.856 83.0728 127.528 83.0728 128.428V133H80.2648V123.316H82.9468V124.594ZM91.7997 123.172C93.2997 123.172 94.4517 123.532 95.2557 124.252C96.0597 124.96 96.4617 126.034 96.4617 127.474V133H93.8337V131.794C93.3057 132.694 92.3217 133.144 90.8817 133.144C90.1377 133.144 89.4897 133.018 88.9377 132.766C88.3977 132.514 87.9837 132.166 87.6957 131.722C87.4077 131.278 87.2637 130.774 87.2637 130.21C87.2637 129.31 87.5997 128.602 88.2717 128.086C88.9557 127.57 90.0057 127.312 91.4217 127.312H93.6537C93.6537 126.7 93.4677 126.232 93.0957 125.908C92.7237 125.572 92.1657 125.404 91.4217 125.404C90.9057 125.404 90.3957 125.488 89.8917 125.656C89.3997 125.812 88.9797 126.028 88.6317 126.304L87.6237 124.342C88.1517 123.97 88.7817 123.682 89.5137 123.478C90.2577 123.274 91.0197 123.172 91.7997 123.172ZM91.5837 131.254C92.0637 131.254 92.4897 131.146 92.8617 130.93C93.2337 130.702 93.4977 130.372 93.6537 129.94V128.95H91.7277C90.5757 128.95 89.9997 129.328 89.9997 130.084C89.9997 130.444 90.1377 130.732 90.4137 130.948C90.7017 131.152 91.0917 131.254 91.5837 131.254ZM111.405 123.172C112.617 123.172 113.577 123.532 114.285 124.252C115.005 124.96 115.365 126.028 115.365 127.456V133H112.557V127.888C112.557 127.12 112.395 126.55 112.071 126.178C111.759 125.794 111.309 125.602 110.721 125.602C110.061 125.602 109.539 125.818 109.155 126.25C108.771 126.67 108.579 127.3 108.579 128.14V133H105.771V127.888C105.771 126.364 105.159 125.602 103.935 125.602C103.287 125.602 102.771 125.818 102.387 126.25C102.003 126.67 101.811 127.3 101.811 128.14V133H99.003V123.316H101.685V124.432C102.045 124.024 102.483 123.712 102.999 123.496C103.527 123.28 104.103 123.172 104.727 123.172C105.411 123.172 106.029 123.31 106.581 123.586C107.133 123.85 107.577 124.24 107.913 124.756C108.309 124.252 108.807 123.862 109.407 123.586C110.019 123.31 110.685 123.172 111.405 123.172Z" fill="#18171F"/>
<defs>
<filter id="filter0_d" x="0" y="-10" width="136" height="136" filterUnits="userSpaceOnUse" color-interpolation-filters="sRGB">
<feFlood flood-opacity="0" result="BackgroundImageFix"/>
<feColorMatrix in="SourceAlpha" type="matrix" values="0 0 0 0 0 0 0 0 0 0 0 0 0 0 0 0 0 0 127 0" result="hardAlpha"/>
<feOffset dy="10"/>
<feGaussianBlur stdDeviation="10"/>
<feColorMatrix type="matrix" values="0 0 0 0 0.160784 0 0 0 0 0.160784 0 0 0 0 0.164706 0 0 0 0.07 0"/>
<feBlend mode="normal" in2="BackgroundImageFix" result="effect1_dropShadow"/>
<feBlend mode="normal" in="SourceGraphic" in2="effect1_dropShadow" result="shape"/>
</filter>
<radialGradient id="paint0_radial" cx="0" cy="0" r="1" gradientUnits="userSpaceOnUse" gradientTransform="translate(56.7611 75.6625) rotate(-90) scale(47.5122 44.2021)">
<stop stop-color="#FFDD55"/>
<stop offset="0.1" stop-color="#FFDD55"/>
<stop offset="0.5" stop-color="#FF543E"/>
<stop offset="1" stop-color="#C837AB"/>
</radialGradient>
<radialGradient id="paint1_radial" cx="0" cy="0" r="1" gradientUnits="userSpaceOnUse" gradientTransform="translate(35.991 27.4835) rotate(78.6776) scale(21.2384 87.5674)">
<stop stop-color="#3771C8"/>
<stop offset="0.128" stop-color="#3771C8"/>
<stop offset="1" stop-color="#6600FF" stop-opacity="0"/>
</radialGradient>
</defs>
</svg>
