<svg width="689" height="764" viewBox="0 0 689 764" fill="none" xmlns="http://www.w3.org/2000/svg">
<g filter="url(#filter0_f)">
<ellipse rx="136.967" ry="12.6963" transform="matrix(0.999995 0.00310738 0.00310738 -0.999995 317.75 492.994)" fill="url(#paint0_radial)"/>
</g>
<g clip-path="url(#clip0)">
<path d="M590.297 588.596C584.411 584.776 577.942 581.941 571.144 580.201C559.52 588.322 546.732 594.636 533.217 598.928C533.506 599.182 533.807 599.418 534.085 599.678C540.673 605.797 545.84 613.286 549.223 621.617C569.81 613.251 582.492 600.752 590.297 588.596Z" fill="#E70C00"/>
<path d="M563.692 578.683C551.139 584.659 538.035 589.404 524.566 592.853C526.077 593.676 527.54 594.585 528.947 595.575L529.154 595.728C529.803 596.189 530.447 596.667 531.09 597.169C531.734 597.671 532.513 598.314 533.216 598.94C546.731 594.648 559.519 588.334 571.143 580.212C568.69 579.565 566.202 579.055 563.692 578.683Z" fill="#FF3E39"/>
<path d="M590.296 588.596C595.904 579.844 599.801 570.107 601.779 559.902C601.374 558.983 600.642 558.247 599.725 557.836C599.03 557.505 598.253 557.384 597.49 557.489C596.727 557.594 596.012 557.92 595.432 558.426C585.555 566.828 574.467 573.464 563.692 578.66C566.202 579.027 568.69 579.534 571.143 580.177C577.942 581.924 584.411 584.768 590.296 588.596Z" fill="white"/>
<path d="M554.743 652.909C579.369 634.677 591.862 613.818 597.677 594.347C595.374 592.236 592.906 590.313 590.297 588.596C582.492 600.753 569.81 613.275 549.223 621.617C553.081 631.051 554.975 641.172 554.79 651.362C554.784 651.881 554.761 652.395 554.743 652.909Z" fill="#A50400"/>
<path d="M597.676 594.358C600.824 583.685 602.316 572.593 602.098 561.467C602.092 560.934 601.984 560.407 601.779 559.914C599.801 570.119 595.904 579.856 590.296 588.608C592.905 590.325 595.373 592.248 597.676 594.358Z" fill="#DBBDBF"/>
<path d="M258.43 696.793C259.93 694.55 261.937 691.332 264.098 687.282C268.546 678.959 272.06 670.169 274.578 661.074C274.779 660.348 274.979 659.622 275.168 658.872C275.688 656.835 276.148 654.739 276.562 652.525C281.285 627.451 279.455 594.4 279.455 594.4C269.813 573.594 274.082 552.08 279.514 537.45C280.039 536.027 280.576 534.681 281.108 533.399C260.981 528.954 244.184 522.453 232.553 514.63C227.137 512.91 221.814 511.055 216.583 509.063L216.098 508.874C210.785 518.008 189.53 557.877 190.032 611.74C193.793 645.605 206.392 677.965 227.718 708.407C235.889 701.912 246.61 697.65 258.419 696.823L258.43 696.793Z" fill="#E70C00"/>
<path d="M409.663 537.42C415.094 552.05 419.363 573.565 409.722 594.37C409.722 594.37 407.88 627.433 412.615 652.495C413.028 654.68 413.488 656.805 414.008 658.842C414.209 659.651 414.427 660.436 414.646 661.204C417.124 670.128 420.563 678.757 424.901 686.94C427.133 691.143 429.205 694.473 430.74 696.776C442.583 697.602 453.287 701.859 461.441 708.359C482.76 677.918 495.36 645.564 499.126 611.693C499.628 557.836 478.385 517.96 473.06 508.827L472.57 509.016C469.96 510.015 467.323 510.978 464.659 511.903C461.994 512.828 459.308 513.721 456.6 514.583C444.975 522.406 428.178 528.906 408.051 533.352C408.6 534.651 409.137 535.997 409.663 537.42Z" fill="#E70C00"/>
<path d="M389.265 319.821C379.901 301.778 368.731 292.745 359.904 288.235C351.078 283.724 344.589 283.724 344.589 283.724C344.589 283.724 318.611 283.724 299.913 319.821C280.489 357.282 239.733 386.241 190.258 370.643C165.101 362.732 149.278 352.293 135.002 347.57C143.752 398.764 174.559 435.54 213.986 459.457C253.413 483.375 301.425 494.58 344.589 494.58C430.918 494.58 536.671 449.964 554.182 347.57C539.906 352.246 524.071 362.714 498.926 370.643C449.445 386.259 408.689 357.3 389.265 319.821ZM403.83 438.215H403.133C400.953 444.424 397.85 450.27 393.929 455.555C385.959 466.182 370.903 478.905 344.589 478.905C318.245 478.905 303.219 466.206 295.249 455.555C291.336 450.269 288.242 444.423 286.074 438.215H285.378C247.232 437.949 250.402 406.138 250.402 406.138C250.402 406.138 263.438 420.178 292.02 416.175C320.601 412.172 328.294 402.973 329.298 399.295C330.301 395.617 329.298 387.759 329.298 387.759C329.298 387.759 300.811 380.355 298.756 349.288C298.641 348.308 298.581 347.323 298.579 346.336C298.579 328.24 319.19 313.575 344.63 313.575C370.053 313.575 390.682 328.24 390.682 346.336C390.68 347.323 390.619 348.309 390.499 349.288C388.444 380.355 359.957 387.759 359.957 387.759C359.957 387.759 358.954 395.617 359.957 399.295C360.961 402.973 368.648 412.166 397.229 416.175C425.811 420.184 438.853 406.138 438.853 406.138C438.853 406.138 441.976 437.967 403.83 438.232V438.215Z" fill="white"/>
<path d="M361.799 443.056C359.998 442.545 358.123 442.345 356.255 442.466C358.123 442.345 359.998 442.545 361.799 443.056Z" fill="black"/>
<path d="M322.307 445.955C324.603 443.546 328.583 442.294 332.609 442.459C328.583 442.276 324.597 443.534 322.307 445.955Z" fill="black"/>
<path d="M205.319 712.669C179.212 679.258 177.789 630.438 177.783 630.225C177.145 626.943 176.602 623.648 176.124 620.342C175.947 619.12 175.77 617.904 175.61 616.682C167.528 624.569 155.17 641.083 152.136 670.083C153.386 674.587 154.987 678.985 156.924 683.238C160.175 690.348 164.234 697.059 169.021 703.24C186.828 701.015 193.736 707.71 195.229 709.469C198.694 710.179 202.075 711.254 205.313 712.675L205.319 712.669Z" fill="#E70C00"/>
<path d="M579.651 188.752C575.235 149.525 566.48 104.36 549.293 68.7524C547.986 66.0444 546.628 63.3955 545.219 60.8056C542.066 54.9503 538.53 49.3095 534.633 43.92C534.533 43.7724 534.432 43.6249 534.326 43.4832V43.4477L534.22 43.306C533.512 42.3456 532.795 41.4069 532.071 40.4898C525.767 33.2301 517.229 28.2707 507.799 26.391C488.499 22.4766 457.958 29.6146 416.287 79.0195C417.509 80.9086 418.596 82.8815 419.54 84.9235L419.8 85.5139C420.225 86.4763 420.461 87.1139 420.526 87.2851C421.288 88.1944 422.073 89.1921 422.888 90.2371C424.308 92.1023 425.613 94.0523 426.796 96.0762C426.796 96.0762 415.691 88.5781 390.581 83.8313C382.55 82.3402 374.44 81.3054 366.292 80.7317C359.662 80.2475 352.464 79.9818 344.624 80.0232H344.512C343.124 80.0232 341.766 80.0232 340.414 80.0232H338.767C337.555 80.0232 336.36 80.0488 335.183 80.0999L333.696 80.1353C332.515 80.1747 331.334 80.2219 330.153 80.277L328.807 80.3361C327.626 80.3951 326.445 80.466 325.324 80.5368L324.107 80.6136L320.695 80.8733L319.585 80.9678C318.457 81.0623 317.359 81.1686 316.267 81.2807L315.251 81.3811C314.159 81.4992 313.096 81.6232 312.046 81.7472L311.089 81.8593C310.044 81.9951 309.023 82.1309 308.013 82.2726L307.116 82.3966C306.112 82.5383 305.138 82.6918 304.164 82.8453L303.302 82.9811C302.351 83.1346 301.43 83.294 300.515 83.4593L299.653 83.66C298.75 83.8254 297.882 83.9907 297.02 84.1619L296.211 84.3213C295.367 84.4925 294.558 84.6696 293.749 84.8468L292.94 85.018C292.161 85.1951 291.411 85.3663 290.661 85.5493L289.846 85.7383L287.768 86.2637L286.924 86.4822C286.286 86.6475 285.672 86.8187 285.058 86.9899L284.179 87.2379C283.588 87.3973 283.063 87.5626 282.519 87.722L281.598 87.9995C281.103 88.1471 280.63 88.3006 280.158 88.4541C279.833 88.5545 279.503 88.6549 279.19 88.7611L277.979 89.1685C277.631 89.2866 277.283 89.3988 276.952 89.5169L275.978 89.8652C275.606 90.001 275.228 90.1309 274.874 90.2667L274.153 90.5382L272.973 90.9929L272.53 91.1759L271.225 91.7013L271.072 91.7663C265.168 94.2283 262.416 96.0998 262.416 96.0998C263.591 94.092 264.884 92.156 266.289 90.3021C267.086 89.2453 267.883 88.2357 268.651 87.3146V87.232C269.554 84.8825 270.669 82.6199 271.981 80.4719L272.105 80.2652V80.2357C272.258 79.9878 272.412 79.7339 272.577 79.4741C272.672 79.3206 272.76 79.173 272.861 79.0195C272.028 78.0335 271.207 77.083 270.387 76.1324L269.542 75.1464C268.987 74.5088 268.438 73.9007 267.889 73.2808C267.34 72.6609 266.791 72.035 266.254 71.4328C265.717 70.8306 265.286 70.376 264.801 69.8505C264.211 69.1952 263.621 68.528 263.03 67.8904C262.57 67.4004 262.121 66.9398 261.672 66.4557C261.082 65.8122 260.444 65.1509 259.836 64.5251C259.399 64.0705 258.968 63.6395 258.531 63.1967C257.941 62.5709 257.297 61.9332 256.689 61.3251C256.264 60.9 255.845 60.4986 255.42 60.0794C254.83 59.489 254.198 58.8986 253.596 58.3082L252.356 57.1274C251.765 56.5369 251.175 55.982 250.549 55.427L249.321 54.317C248.731 53.7798 248.14 53.2366 247.55 52.717C247.143 52.3569 246.741 52.0145 246.369 51.6661C245.779 51.1584 245.188 50.6447 244.598 50.1606C244.196 49.8182 243.801 49.4935 243.417 49.1628C242.827 48.6905 242.278 48.2123 241.711 47.7518C241.315 47.427 240.92 47.1259 240.53 46.813C239.94 46.3643 239.414 45.9215 238.859 45.4905C238.464 45.1835 238.074 44.9001 237.678 44.599L236.061 43.3769L234.88 42.5267L233.304 41.399L232.123 40.602C231.609 40.2477 231.095 39.8994 230.588 39.5629C230.198 39.3031 229.808 39.0551 229.407 38.8072C228.911 38.4824 228.415 38.1577 227.919 37.8507L226.738 37.1422C226.254 36.847 225.776 36.5518 225.298 36.2743C224.908 36.0441 224.524 35.8315 224.117 35.6072C223.709 35.3828 223.184 35.0758 222.718 34.8219C222.251 34.5681 221.95 34.4028 221.566 34.202C221.183 34.0013 220.663 33.7179 220.214 33.4876C219.766 33.2574 219.441 33.098 219.034 32.8972L217.729 32.2596L216.548 31.7282C216.123 31.5334 215.704 31.3386 215.29 31.1378C214.877 30.9371 214.523 30.8072 214.145 30.6478C213.767 30.4884 213.33 30.3053 212.923 30.1459L211.789 29.7031L210.608 29.2603C210.225 29.1186 209.847 28.9888 209.469 28.8589L208.341 28.4751L207.214 28.1209C206.848 28.0087 206.487 27.8965 206.127 27.7961C205.767 27.6958 205.377 27.5836 205.006 27.4832L203.961 27.2057L202.845 26.9401L201.841 26.7098L200.737 26.4855L199.769 26.3024L198.676 26.1194L197.744 25.9777L196.675 25.8419L195.766 25.7356L194.715 25.6412L193.841 25.5703L192.808 25.5172C192.524 25.5172 192.241 25.5054 191.958 25.4818C191.674 25.4581 191.338 25.4581 190.948 25.4818H190.251H189.218H188.439L187.435 25.5408L186.674 25.5939L185.711 25.6825L184.955 25.7652L184.034 25.8891L183.291 26.0013C182.995 26.0426 182.7 26.0958 182.411 26.1489L181.673 26.2847L180.84 26.4559L180.108 26.6213C179.843 26.6803 179.577 26.7452 179.317 26.8161L178.585 27.005L177.853 27.2117L177.121 27.4301L176.436 27.6485L175.698 27.8906L175.108 28.115L174.364 28.3925L173.773 28.6168L173.018 28.9238L172.522 29.1423L171.748 29.4847L171.317 29.6913L170.532 30.0692L170.166 30.2522L169.363 30.6714L169.074 30.8308L168.247 31.2913L168.035 31.4153L167.184 31.9231L167.043 32.0116L166.169 32.5607L166.116 32.5961C162.756 34.7503 159.732 37.3883 157.142 40.4249C156.413 41.338 155.697 42.2768 154.993 43.2411L154.88 43.3828V43.4182C151.206 48.4605 147.854 53.7294 144.843 59.1938C143.123 62.2835 141.476 65.4579 139.902 68.717C129.127 91.0578 121.67 117.16 116.516 143.19C113.464 158.629 111.202 174.045 109.567 188.651C109.114 192.705 108.703 196.693 108.333 200.613C108.98 201.387 109.726 202.072 110.553 202.65C111.672 203.416 112.946 203.927 114.284 204.147C115.623 204.368 116.993 204.292 118.299 203.925C129.446 201.251 131.087 185.871 131.087 185.871C129.582 127.332 154.874 83.1405 168.513 63.7222C169.257 62.6712 169.959 61.6853 170.626 60.7701C172.514 58.1832 175.226 56.3149 178.315 55.4717C181.405 54.6285 184.69 54.8605 187.63 56.1296C193.362 58.6536 198.589 62.1963 203.057 66.5856L203.104 66.6328C205.204 68.6879 207.157 70.8876 208.949 73.2158C208.98 73.249 209.007 73.2845 209.032 73.3221C217.67 84.5397 222.021 97.5286 224.028 105.239C224.503 107.089 224.322 109.046 223.517 110.778C222.712 112.51 221.332 113.909 219.612 114.739C212.654 118.164 206.066 122.295 199.952 127.066C198.848 128.436 123.436 222.174 133.236 333.619C133.402 335.526 133.608 337.403 133.827 339.269C134.169 342.068 134.565 344.831 135.007 347.535C149.283 352.211 165.118 362.678 190.263 370.608C239.739 386.206 280.494 357.247 299.919 319.786C318.629 283.694 344.577 283.688 344.594 283.688C344.612 283.688 351.089 283.689 359.909 288.199C368.73 292.71 379.906 301.743 389.27 319.786C408.694 357.247 449.45 386.206 498.926 370.608C524.083 362.678 539.906 352.211 554.181 347.535C554.642 344.819 555.036 342.064 555.362 339.269C555.593 337.403 555.799 335.526 555.953 333.619C565.765 222.174 490.353 128.436 489.237 127.066C483.125 122.295 476.539 118.164 469.583 114.739C467.861 113.91 466.48 112.511 465.674 110.779C464.868 109.047 464.686 107.09 465.161 105.239C467.168 97.4991 471.519 84.5397 480.163 73.3221C480.185 73.2832 480.213 73.2474 480.245 73.2158C482.036 70.8862 483.989 68.6864 486.09 66.6328L486.138 66.5856C490.608 62.2007 495.837 58.6639 501.571 56.1473C504.511 54.8793 507.795 54.6478 510.885 55.491C513.974 56.3341 516.686 58.2018 518.574 60.7879C519.241 61.6971 519.944 62.683 520.688 63.7399C534.326 83.1818 559.619 127.35 558.108 185.888C558.108 185.888 559.749 201.268 570.89 203.943C572.197 204.31 573.568 204.386 574.907 204.166C576.247 203.945 577.522 203.434 578.642 202.668C579.469 202.09 580.215 201.405 580.862 200.631C580.519 196.74 580.094 192.761 579.651 188.752Z" fill="#E70C00"/>
<path d="M265.41 743.813C286.429 744.521 293.36 735.878 295.326 727.872C294.984 727.282 294.612 726.733 294.222 726.184L294.175 726.113C294.104 726.006 294.015 725.906 293.939 725.8C290.5 721.283 285.964 717.721 280.761 715.45C275.079 712.909 268.919 711.611 262.695 711.642C255.505 711.584 248.416 713.325 242.072 716.708C237.779 718.993 234.06 722.223 231.197 726.154C230.398 727.276 229.691 728.461 229.083 729.696C229.29 736.716 235.548 742.815 265.41 743.813Z" fill="white"/>
<path d="M158.63 735.364C161.263 750.355 180.971 747.822 197.555 741.977C216.088 735.447 205.343 712.722 205.319 712.675C202.08 711.254 198.7 710.179 195.235 709.469C195.447 709.729 195.548 709.877 195.548 709.877C168.856 710.03 160.171 722.653 158.63 735.364Z" fill="white"/>
<path d="M254.93 208.365C257.382 212.348 260.467 215.903 264.064 218.892C273.658 226.815 285.584 229.094 294.411 223.615C306.142 216.347 308.049 198.104 298.898 182.47C298.703 182.133 298.514 181.803 298.307 181.472C288.79 166.122 271.898 159.226 259.931 165.567C259.537 165.775 259.16 165.994 258.797 166.222C246.848 173.649 245.106 192.519 254.93 208.365Z" fill="white"/>
<path d="M160.607 149.342C178.91 117.691 210.443 73.5228 168.477 63.7339C154.839 83.1759 129.546 127.344 131.052 185.882C131.388 185.735 142.606 180.486 160.607 149.342Z" fill="white"/>
<path d="M203.068 66.6506C205.206 68.9098 207.154 71.1042 208.913 73.2336C207.121 70.9053 205.168 68.7056 203.068 66.6506Z" fill="white"/>
<path d="M199.916 127.084C206.031 122.313 212.619 118.182 219.577 114.757C221.297 113.927 222.677 112.528 223.482 110.796C224.287 109.064 224.468 107.107 223.993 105.257C221.986 97.5168 217.634 84.5575 208.997 73.3398C208.972 73.3022 208.944 73.2667 208.914 73.2336C207.151 71.1081 205.202 68.9138 203.069 66.6506L203.022 66.6033C198.554 62.214 193.327 58.6714 187.595 56.1473C184.654 54.8782 181.37 54.6462 178.28 55.4894C175.19 56.3326 172.479 58.201 170.591 60.7879C169.924 61.6971 169.221 62.6831 168.477 63.7399C210.443 73.5288 178.892 117.697 160.607 149.348C142.606 180.486 131.388 185.735 131.052 185.882C131.272 194.334 132.033 202.762 133.331 211.116C133.439 211.812 133.772 212.454 134.279 212.944C134.786 213.434 135.438 213.744 136.138 213.829C136.837 213.914 137.545 213.768 138.155 213.414C138.764 213.06 139.24 212.516 139.512 211.866C147.489 192.814 167.261 152.342 199.899 127.102L199.916 127.084Z" fill="#DBBDBF"/>
<path d="M128.011 345.799C130.379 346.228 132.715 346.82 135.002 347.57C134.535 344.854 134.14 342.091 133.821 339.304C133.59 337.439 133.384 335.561 133.23 333.654C123.382 222.21 198.795 128.472 199.875 127.102C167.214 152.342 147.465 192.814 139.489 211.866C139.217 212.516 138.74 213.06 138.131 213.414C137.522 213.768 136.814 213.914 136.114 213.829C135.415 213.744 134.762 213.434 134.255 212.944C133.749 212.454 133.416 211.812 133.307 211.116C132.009 202.762 131.248 194.334 131.028 185.882C131.028 185.882 129.387 201.262 118.24 203.937C116.934 204.305 115.564 204.382 114.225 204.162C112.886 203.941 111.613 203.429 110.494 202.662C109.667 202.084 108.921 201.399 108.274 200.625C105.458 230.446 105.08 255.579 105.115 268.444C105.115 274.148 105.233 277.448 105.245 277.666C105.254 278.233 105.201 278.8 105.086 279.355C105.039 279.579 105.009 279.81 104.944 280.034C104.879 280.258 98.3139 303.219 97.9656 333.17C97.9302 336.53 97.9656 340.078 98.1309 343.756C98.2431 346.531 98.4084 349.377 98.6564 352.293C109.803 345.504 118.854 344.11 128.011 345.799Z" fill="#A50400"/>
<path d="M294.605 422.516C319.355 418.973 332.308 409.846 338.218 404.137V384.919C330.573 383.828 323.292 380.954 316.963 376.529C316.456 376.175 315.954 375.815 315.464 375.449C314.484 374.711 313.533 373.943 312.624 373.146C304.872 366.392 299.741 357.684 298.749 349.294C300.804 380.361 329.291 387.765 329.291 387.765C329.291 387.765 330.295 395.623 329.291 399.301C328.287 402.979 320.6 412.172 292.013 416.181C263.426 420.19 250.396 406.144 250.396 406.144C250.396 406.144 262.381 427.145 294.605 422.516Z" fill="#DBBDBF"/>
<path d="M197.041 686.219C192.159 676.498 187.992 666.435 184.572 656.109C182.604 650.165 180.903 644.165 179.471 638.107C178.88 635.492 178.29 632.876 177.782 630.237C177.782 630.45 179.211 679.241 205.319 712.681C209.649 714.569 213.683 717.073 217.298 720.114C217.339 720.055 217.369 719.996 217.404 719.943C217.44 719.89 217.404 719.89 217.445 719.86C209.763 709.205 202.94 697.956 197.041 686.219Z" fill="#A50400"/>
<path d="M279.462 594.358C279.462 594.518 281.286 627.468 276.563 652.478C276.15 654.662 275.689 656.788 275.17 658.825C274.981 659.574 274.78 660.301 274.579 661.027C272.066 670.133 268.552 678.933 264.1 687.264C261.939 691.314 259.931 694.532 258.432 696.776C259.837 696.675 261.254 696.616 262.683 696.616C266.326 696.614 269.963 696.946 273.546 697.608L273.747 697.649C274.845 697.856 275.931 698.086 277.006 698.352C278.009 690.004 279.987 676.224 283.848 656.906C289.422 629.045 280.489 597.865 279.539 594.642C279.491 594.476 279.462 594.376 279.456 594.364L279.462 594.358Z" fill="#A50400"/>
<path d="M298.59 738.021C298.59 738.021 298.59 737.974 298.59 737.956C298.376 735.209 297.658 732.525 296.471 730.039C296.133 729.303 295.756 728.586 295.343 727.89C293.377 735.884 286.446 744.527 265.428 743.831C235.553 742.833 229.295 736.746 229.082 729.661C227.547 732.741 226.739 736.132 226.721 739.574C226.724 742.655 227.375 745.7 228.634 748.513H296.737C296.737 748.459 296.778 748.406 296.802 748.353C298.012 745.592 298.641 742.612 298.649 739.597C298.649 739.326 298.649 739.054 298.649 738.783C298.649 738.511 298.608 738.263 298.59 738.021Z" fill="#DBBDBF"/>
<path d="M197.554 741.959C180.97 747.804 161.262 750.337 158.629 735.347C158.576 735.813 158.546 736.274 158.505 736.74C158.422 737.773 158.369 738.806 158.369 739.828C158.367 742.807 158.97 745.755 160.14 748.495H212.863C212.556 747.261 212.32 746.003 212.137 744.746C211.876 743.028 211.742 741.294 211.736 739.556C211.741 736.696 212.086 733.846 212.763 731.066C213.701 727.191 215.235 723.484 217.309 720.079C213.694 717.041 209.659 714.542 205.33 712.657C205.342 712.722 216.087 735.465 197.554 741.959Z" fill="#DBBDBF"/>
<path d="M266.283 90.2726C264.878 92.1265 263.585 94.0625 262.41 96.0703C265.164 94.3804 268.06 92.9343 271.065 91.7486L271.219 91.6836L272.524 91.1582L272.967 90.9752L274.147 90.5205L274.868 90.249C275.222 90.1132 275.6 89.9833 275.972 89.8475L276.946 89.4992C277.276 89.3811 277.625 89.2689 277.973 89.1508L279.184 88.7434C279.496 88.6372 279.827 88.5368 280.152 88.4364C280.624 88.2829 281.096 88.1294 281.592 87.9818L282.513 87.7043C283.057 87.5449 283.606 87.3796 284.172 87.2202L285.052 86.9722C285.643 86.801 286.28 86.6298 286.918 86.4645L287.762 86.246L289.84 85.7206L290.655 85.5317C291.405 85.3486 292.155 85.1774 292.934 85.0003L293.749 84.8409C294.558 84.6638 295.366 84.4866 296.211 84.3154L297.02 84.156C297.882 83.9848 298.749 83.8195 299.653 83.6542L300.479 83.5066C301.394 83.3413 302.315 83.1818 303.266 83.0283L304.128 82.8926C305.09 82.7391 306.065 82.5855 307.08 82.4438L307.977 82.3199C308.987 82.1782 310.008 82.0424 311.053 81.9066L312.01 81.7944C313.061 81.6704 314.124 81.5464 315.216 81.4284L316.231 81.328C317.324 81.2158 318.422 81.1095 319.549 81.0151L320.659 80.9206L324.072 80.6608L325.288 80.5841C326.433 80.5132 327.591 80.4424 328.771 80.3833L330.118 80.3243C331.298 80.2731 332.479 80.2259 333.66 80.1826L335.148 80.1472C336.329 80.1117 337.523 80.0862 338.732 80.0704H340.379C341.731 80.0704 343.089 80.0704 344.476 80.0704H344.588C352.429 80.0291 359.626 80.2948 366.256 80.7789C374.405 81.3526 382.514 82.3875 390.545 83.8785C415.519 88.6017 426.642 96.0349 426.755 96.1117C425.572 94.0877 424.266 92.1377 422.846 90.2726C422.055 89.2276 421.264 88.218 420.485 87.3206C420.189 87.0785 415.903 83.9258 407.443 80.2889C395.292 75.0697 374.528 68.8528 344.565 68.8528C314.602 68.8528 293.867 75.0579 281.716 80.2771C273.238 83.9139 268.94 87.0785 268.645 87.3206C267.889 88.1885 267.086 89.2099 266.283 90.2726Z" fill="#FF3E39"/>
<path d="M157.136 40.4603C159.726 37.4237 162.75 34.7858 166.11 32.6316L166.163 32.5962L167.037 32.0471L167.178 31.9585L168.029 31.4508L168.241 31.3268L169.068 30.8663L169.357 30.7069L170.16 30.2877L170.526 30.1047L171.311 29.7268L171.742 29.5202L172.516 29.1777L173.012 28.9593L173.767 28.6523L174.358 28.4279L175.078 28.1622L175.668 27.9379L176.406 27.6958L177.091 27.4774L177.823 27.2589L178.556 27.0523L179.288 26.8634C179.547 26.7925 179.813 26.7276 180.079 26.6685L180.811 26.5032L181.643 26.332L182.381 26.1962C182.671 26.1431 182.972 26.0899 183.261 26.0486L184.005 25.9364L184.926 25.8124L185.682 25.7298L186.644 25.6412L187.406 25.5881L188.409 25.5291H189.189H190.222H191.037C191.371 25.5291 191.708 25.5291 192.046 25.5291C192.385 25.5291 192.668 25.5409 192.896 25.5645L193.93 25.6176L194.803 25.6885L195.854 25.7829L196.764 25.8892L197.832 26.025L198.765 26.1667L199.857 26.3497L200.826 26.5327L201.93 26.7571L202.933 26.9874L204.049 27.253L205.094 27.5305C205.466 27.6309 205.838 27.7312 206.216 27.8434C206.594 27.9556 206.936 28.056 207.302 28.1682L208.43 28.5224L209.558 28.9062C209.935 29.036 210.313 29.1659 210.697 29.3076L211.878 29.7504L213.011 30.1932C213.419 30.3526 213.826 30.5239 214.234 30.6951C214.641 30.8663 214.995 31.0139 215.379 31.1851C215.763 31.3563 216.211 31.5571 216.637 31.7755L217.817 32.3069L219.122 32.9445C219.506 33.1334 219.89 33.3224 220.303 33.5349C220.716 33.7475 221.2 34.0072 221.655 34.2493C222.11 34.4914 222.423 34.6508 222.806 34.8692C223.19 35.0877 223.739 35.3888 224.206 35.6545C224.672 35.9201 224.979 36.0914 225.386 36.3216C225.865 36.5991 226.343 36.912 226.827 37.1895L228.008 37.898C228.504 38.205 229 38.5297 229.495 38.8544C229.885 39.1024 230.275 39.3504 230.676 39.6102C231.184 39.9467 231.698 40.295 232.211 40.6493L233.392 41.4463L234.969 42.574L236.149 43.4242L237.661 44.5754C238.056 44.8706 238.446 45.1658 238.842 45.467C239.397 45.8979 239.952 46.3407 240.512 46.7894C240.902 47.1024 241.298 47.3799 241.693 47.7282C242.284 48.1887 242.827 48.6669 243.399 49.1393C243.795 49.4699 244.191 49.7946 244.58 50.137C245.171 50.6212 245.761 51.1348 246.351 51.6426C246.753 51.9909 247.154 52.3333 247.532 52.6935C248.123 53.213 248.713 53.7562 249.304 54.2935L250.532 55.4034C251.122 55.9584 251.712 56.537 252.338 57.1038L253.578 58.2846C254.168 58.875 254.794 59.4654 255.402 60.0558C255.827 60.475 256.247 60.8765 256.672 61.3016C257.262 61.892 257.9 62.5473 258.514 63.1731C258.951 63.6159 259.382 64.0469 259.819 64.5015C260.409 65.1274 261.041 65.7886 261.655 66.4322C262.103 66.9163 262.552 67.3768 263.013 67.8668C263.603 68.5045 264.193 69.1716 264.784 69.827C265.268 70.3524 265.746 70.8661 266.236 71.4093C266.726 71.9524 267.329 72.6373 267.872 73.2572C268.415 73.8771 268.97 74.4853 269.525 75.1229L270.369 76.1089C271.19 77.0594 272.01 78.01 272.843 78.9959C276.478 73.2394 281.384 68.3922 287.184 64.8263C268.433 45.585 250.402 31.7637 233.711 23.7224C232.312 23.0553 230.918 22.4117 229.543 21.8213C228.952 21.5675 228.362 21.3254 227.742 21.0833C227.423 20.9593 227.11 20.8176 226.791 20.6995L226.042 20.4162C225.357 20.1564 224.672 19.8966 223.993 19.6604C215.29 16.5844 207.007 15.2383 199.249 15.6929C192.229 16.1198 185.382 18.0528 179.175 21.3608C171.3 25.5015 163.953 31.868 157.136 40.4603Z" fill="#FF3E39"/>
<path d="M513.568 616.687C513.409 617.921 513.226 619.155 513.043 620.389C512.565 623.678 512.027 626.96 511.396 630.225C511.396 630.473 509.961 679.27 483.859 712.669C487.101 711.248 490.483 710.174 493.949 709.463C495.431 707.692 502.351 701.009 520.151 703.235C525.047 696.918 529.179 690.046 532.461 682.759C534.307 678.654 535.839 674.415 537.043 670.078C534.008 641.083 521.645 624.575 513.568 616.687Z" fill="#E70C00"/>
<path d="M423.755 743.813C453.629 742.815 459.888 736.728 460.094 729.643C459.442 728.312 458.674 727.042 457.798 725.847L457.709 725.735C454.868 721.982 451.241 718.895 447.082 716.69C440.738 713.308 433.648 711.566 426.459 711.624C420.202 711.594 414.011 712.906 408.304 715.474C403.192 717.711 398.725 721.199 395.315 725.617C394.772 726.349 394.253 727.099 393.792 727.866C395.805 735.878 402.737 744.521 423.755 743.813Z" fill="white"/>
<path d="M491.623 741.959C508.207 747.804 527.915 750.337 530.542 735.347C529.007 722.635 520.316 710.012 493.63 709.865C493.63 709.865 493.73 709.717 493.943 709.457C490.476 710.168 487.094 711.243 483.853 712.663C483.859 712.722 473.09 735.465 491.623 741.959Z" fill="white"/>
<path d="M394.761 223.615C403.617 229.118 415.637 226.791 425.261 218.774C428.535 216.024 431.379 212.801 433.698 209.209C433.881 208.932 434.07 208.654 434.247 208.365C444.071 192.519 442.33 173.649 430.35 166.222C430.026 166.021 429.701 165.838 429.37 165.632C417.42 159.137 400.44 166.027 390.87 181.448C390.663 181.779 390.469 182.11 390.28 182.446C381.128 198.104 383.035 216.347 394.761 223.615Z" fill="white"/>
<path d="M528.569 149.342C546.559 180.492 557.776 185.735 558.089 185.882C559.601 127.344 534.308 83.1523 520.67 63.7339C478.733 73.5228 510.284 117.691 528.569 149.342Z" fill="white"/>
<path d="M480.263 73.2336C482.034 71.1081 483.965 68.9118 486.108 66.6506C484.006 68.7041 482.053 70.9039 480.263 73.2336Z" fill="white"/>
<path d="M368.494 448.612C367.849 446.838 366.593 445.352 364.952 444.42C364.722 444.278 364.48 444.148 364.238 444.018L363.871 443.847L363.464 443.652C363.259 443.562 363.047 443.479 362.826 443.404L362.655 443.339C362.384 443.239 362.1 443.151 361.817 443.068C360.016 442.557 358.141 442.357 356.273 442.477H356.232C355.966 442.477 355.694 442.519 355.429 442.548H355.257L354.602 442.649L354.283 442.702L353.787 442.808L353.315 442.908L352.984 443.003C352.772 443.062 352.565 443.115 352.394 443.186L352.217 443.245C351.963 443.328 351.709 443.416 351.455 443.517C349.913 444.092 348.51 444.986 347.337 446.141C346.164 447.296 345.248 448.685 344.648 450.218C342.67 445.069 337.64 442.661 332.669 442.436C328.642 442.271 324.663 443.522 322.366 445.931C321.635 446.686 321.08 447.593 320.743 448.588C320.158 450.15 320.015 451.842 320.327 453.48C320.639 455.118 321.396 456.638 322.514 457.875C323.459 458.958 324.581 459.872 325.832 460.579C331.81 462.807 338.144 463.926 344.524 463.88H344.807C351.165 463.934 357.479 462.819 363.435 460.591C364.007 460.302 371.092 456.322 368.494 448.612Z" fill="#FF9C9C"/>
<path d="M549.659 211.866C549.931 212.516 550.408 213.06 551.017 213.414C551.626 213.768 552.334 213.914 553.033 213.829C553.733 213.744 554.386 213.434 554.892 212.944C555.399 212.454 555.732 211.812 555.841 211.116C557.141 202.763 557.902 194.334 558.12 185.882C557.777 185.735 546.559 180.492 528.599 149.342C510.297 117.691 478.764 73.5228 520.729 63.734C519.985 62.683 519.283 61.6971 518.616 60.7819C516.727 58.1959 514.016 56.3282 510.926 55.4851C507.837 54.642 504.553 54.8734 501.612 56.1414C495.879 58.6639 490.652 62.2068 486.185 66.5974L486.138 66.6446C483.994 68.9059 482.058 71.1022 480.293 73.2276C480.261 73.2592 480.233 73.295 480.21 73.3339C471.567 84.5516 467.221 97.5404 465.208 105.251C464.734 107.102 464.915 109.059 465.721 110.791C466.528 112.523 467.909 113.922 469.63 114.751C476.586 118.176 483.172 122.307 489.284 127.078C521.934 152.342 541.718 192.814 549.659 211.866Z" fill="#DBBDBF"/>
<path d="M580.885 200.637C580.239 201.411 579.492 202.096 578.665 202.673C577.545 203.441 576.271 203.953 574.931 204.174C573.592 204.394 572.22 204.317 570.913 203.949C559.772 201.274 558.131 185.894 558.131 185.894C557.914 194.346 557.153 202.774 555.852 211.128C555.743 211.824 555.41 212.466 554.904 212.956C554.397 213.445 553.744 213.756 553.045 213.841C552.345 213.926 551.637 213.78 551.028 213.426C550.419 213.071 549.942 212.528 549.671 211.878C541.7 192.826 521.922 152.353 489.29 127.114C490.394 128.483 565.806 222.222 556.006 333.666C555.84 335.573 555.634 337.451 555.415 339.316C555.073 342.115 554.679 344.87 554.234 347.582C556.507 346.838 558.826 346.246 561.178 345.811C570.352 344.134 579.409 345.516 590.556 352.305C590.81 349.389 590.969 346.543 591.087 343.768C591.235 340.09 591.288 336.541 591.253 333.182C590.904 303.225 584.339 280.258 584.274 280.046C584.209 279.833 584.18 279.591 584.132 279.367C584.017 278.811 583.964 278.245 583.973 277.678C583.973 277.454 584.085 274.047 584.103 268.149C584.073 255.19 583.672 230.216 580.885 200.637Z" fill="#A50400"/>
<path d="M376.572 373.146C375.656 373.943 374.712 374.711 373.726 375.449C373.236 375.815 372.74 376.175 372.232 376.529C365.903 380.954 358.622 383.828 350.978 384.919V404.137C356.882 409.846 369.841 418.962 394.585 422.516C426.815 427.145 438.818 406.162 438.818 406.156C438.818 406.15 425.776 420.195 397.194 416.193C368.613 412.19 360.926 402.991 359.922 399.313C358.918 395.635 359.922 387.776 359.922 387.776C359.922 387.776 388.409 380.373 390.464 349.306C389.454 357.684 384.324 366.392 376.572 373.146Z" fill="#DBBDBF"/>
<path d="M483.858 712.669C509.96 679.27 511.389 630.473 511.395 630.225C510.875 632.864 510.314 635.48 509.706 638.095C508.277 644.149 506.577 650.149 504.605 656.097C501.159 666.503 496.954 676.642 492.024 686.432C486.15 698.085 479.363 709.255 471.726 719.837C471.744 719.863 471.759 719.891 471.773 719.919C471.805 719.979 471.84 720.036 471.879 720.091C475.495 717.056 479.53 714.559 483.858 712.675V712.669Z" fill="#A50400"/>
<path d="M430.721 696.793C429.186 694.491 427.114 691.161 424.882 686.957C420.542 678.776 417.103 670.146 414.627 661.222C414.409 660.436 414.19 659.651 413.99 658.86C413.47 656.823 413.009 654.727 412.596 652.513C407.873 627.498 409.685 594.547 409.697 594.394C409.697 594.394 409.662 594.512 409.615 594.683C409.615 594.748 409.573 594.813 409.55 594.896C408.274 599.277 399.873 629.694 405.311 656.888C409.178 676.206 411.156 689.986 412.159 698.334C413.234 698.069 414.32 697.838 415.412 697.632L415.613 697.59C419.198 696.928 422.837 696.596 426.482 696.599C427.917 696.634 429.334 696.693 430.721 696.793Z" fill="#A50400"/>
<path d="M423.756 743.813C402.738 744.521 395.807 735.878 393.841 727.872C393.407 728.596 393.013 729.343 392.66 730.11C391.5 732.572 390.798 735.225 390.587 737.938C390.584 737.96 390.584 737.982 390.587 738.003C390.587 738.245 390.587 738.493 390.587 738.741C390.587 738.989 390.587 739.285 390.587 739.556C390.593 742.594 391.229 745.597 392.453 748.377C392.453 748.418 392.483 748.459 392.5 748.495H460.585C461.846 745.683 462.498 742.637 462.498 739.556C462.482 736.114 461.674 732.723 460.137 729.643C459.889 736.716 453.631 742.815 423.756 743.813Z" fill="#DBBDBF"/>
<path d="M491.623 741.959C473.09 735.429 483.83 712.705 483.853 712.657C479.526 714.543 475.494 717.043 471.88 720.079C473.948 723.473 475.478 727.168 476.414 731.031C477.098 733.821 477.447 736.683 477.453 739.556C477.447 741.294 477.313 743.028 477.052 744.746C476.869 746.003 476.633 747.261 476.326 748.495H529.049C530.219 745.755 530.822 742.807 530.82 739.828C530.82 738.806 530.767 737.767 530.678 736.728C530.643 736.268 530.613 735.807 530.554 735.347C527.915 750.355 508.207 747.822 491.623 741.959Z" fill="#DBBDBF"/>
<path d="M507.799 26.391C517.217 28.2736 525.743 33.2282 532.041 40.478C525.246 31.8936 517.872 25.5172 509.978 21.3667C503.771 18.0575 496.925 16.1244 489.904 15.6988C482.152 15.2442 473.869 16.5903 465.166 19.6663C464.487 19.9025 463.803 20.1623 463.118 20.4221C462.87 20.5165 462.616 20.6051 462.368 20.7054C462.12 20.8058 461.913 20.8885 461.689 20.977C460.296 21.5379 458.89 22.1578 457.473 22.7778C457.019 22.9844 456.564 23.1969 456.115 23.4154C439.236 31.3799 420.975 45.337 401.976 64.8321C407.775 68.398 412.681 73.2452 416.316 79.0018C457.958 29.5969 488.499 22.4589 507.799 26.391Z" fill="#FF3E39"/>
<path d="M344.589 730.31C329.392 730.192 318.156 727.358 310.269 724.194C312.488 729.008 313.642 734.244 313.652 739.544C313.646 742.559 313.266 745.562 312.518 748.483H376.659C375.91 745.562 375.527 742.56 375.52 739.544C375.532 734.243 376.688 729.007 378.909 724.194C374.247 726.051 369.42 727.461 364.491 728.403C357.93 729.654 351.268 730.292 344.589 730.31Z" fill="#A50400"/>
<path d="M344.617 440.311H344.558C323.894 432.883 312.907 446.652 310.374 450.277C314.659 454.831 319.916 458.36 325.754 460.603C324.51 459.896 323.396 458.981 322.46 457.899C321.342 456.662 320.585 455.141 320.273 453.503C319.961 451.866 320.104 450.173 320.688 448.612C321.026 447.617 321.58 446.709 322.312 445.955C324.603 443.534 328.588 442.277 332.615 442.46C337.586 442.684 342.616 445.093 344.594 450.241C345.193 448.708 346.11 447.319 347.283 446.164C348.456 445.01 349.859 444.116 351.401 443.54C351.655 443.44 351.909 443.351 352.163 443.269L352.34 443.209C352.541 443.139 352.747 443.086 352.93 443.026L353.261 442.932L353.733 442.832L354.229 442.725L354.548 442.672L355.203 442.572H355.375C355.64 442.572 355.912 442.519 356.178 442.501H356.219C358.087 442.38 359.962 442.58 361.763 443.091C362.046 443.174 362.353 443.263 362.601 443.363L362.772 443.428C362.989 443.507 363.201 443.589 363.41 443.676L363.817 443.871L364.183 444.042C364.425 444.172 364.668 444.302 364.898 444.443C366.539 445.375 367.795 446.861 368.44 448.635C371.014 456.346 363.93 460.325 363.363 460.626C369.203 458.386 374.462 454.856 378.749 450.3C376.269 446.652 365.287 432.883 344.617 440.311Z" fill="#E06E6E"/>
<path d="M200.979 485.825C214.344 492.273 228.211 497.624 242.443 501.825C260.52 507.153 279.02 510.923 297.74 513.095C305.27 514.001 312.945 514.68 320.766 515.132C327.378 515.526 334.093 515.748 340.91 515.799C342.138 515.799 343.36 515.799 344.588 515.799H345.114C347.877 515.799 350.628 515.799 353.379 515.711C354.289 515.711 355.151 515.652 356.084 515.628C363.837 515.416 371.469 514.997 378.979 514.371C379.765 514.306 380.538 514.223 381.341 514.146L383.413 513.946L385.267 513.768C385.946 513.709 386.631 513.65 387.304 513.574C431.342 508.85 470.669 496.67 503.519 477.748H503.56H503.607C504.198 477.423 504.717 477.087 505.272 476.756L506.4 476.083C517.872 469.267 528.705 461.428 538.766 452.662C546.145 446.234 553.051 439.283 559.43 431.862C560.15 431.012 560.877 430.167 561.585 429.311C565.857 424.147 569.665 418.615 572.962 412.78C577.616 404.466 581.342 395.665 584.073 386.537C586.965 376.913 588.959 367.043 590.031 357.052C590.188 355.619 590.33 354.2 590.456 352.795C590.456 352.636 590.456 352.47 590.497 352.317C579.35 345.498 570.293 344.116 561.119 345.822C558.767 346.255 556.447 346.847 554.175 347.594C536.67 449.97 430.917 494.604 344.582 494.604C301.418 494.604 253.395 483.451 213.979 459.499C174.564 435.546 143.751 398.782 135.001 347.57C132.714 346.82 130.379 346.229 128.011 345.799C118.854 344.128 109.803 345.521 98.6738 352.329C98.6738 352.482 98.7092 352.648 98.721 352.807C98.847 354.212 98.9887 355.631 99.1461 357.064C100.216 367.051 102.21 376.918 105.103 386.537C106.873 392.398 109.043 398.13 111.598 403.694C112.95 406.646 114.42 409.539 116.032 412.408C116.315 412.916 116.622 413.424 116.905 413.931C120.04 419.331 123.612 424.465 127.586 429.282C146.986 452.662 171.801 471.661 200.979 485.825Z" fill="#DBBDBF"/>
<path d="M438.8 406.156C438.8 406.156 426.797 427.145 394.567 422.516C369.823 418.973 356.869 409.846 350.959 404.137V384.919C358.604 383.828 365.885 380.954 372.214 376.529C372.722 376.175 373.218 375.815 373.708 375.449C374.694 374.711 375.638 373.943 376.553 373.146C384.305 366.392 389.436 357.684 390.422 349.294C390.542 348.315 390.603 347.329 390.605 346.342C390.605 328.246 369.994 313.581 344.554 313.581C319.131 313.581 298.502 328.246 298.502 346.342C298.505 347.329 298.564 348.314 298.679 349.294C299.671 357.684 304.802 366.416 312.554 373.146C313.463 373.943 314.413 374.711 315.394 375.449C315.884 375.815 316.385 376.175 316.893 376.529C323.222 380.954 330.503 383.828 338.148 384.919V404.137C332.244 409.846 319.255 418.962 294.535 422.516C262.31 427.145 250.308 406.162 250.308 406.156C250.308 406.156 247.137 437.967 285.283 438.232H285.98C288.157 444.443 291.26 450.289 295.184 455.572C303.155 466.2 318.21 478.923 344.524 478.923C370.868 478.923 385.894 466.223 393.864 455.572C397.785 450.287 400.888 444.442 403.068 438.232H403.765C441.976 437.967 438.8 406.156 438.8 406.156ZM363.417 460.603C357.462 462.831 351.148 463.946 344.79 463.891H344.524C338.133 463.946 331.786 462.831 325.796 460.603C324.545 459.896 323.423 458.981 322.478 457.899C323.414 458.981 324.529 459.896 325.773 460.603C319.931 458.37 314.668 454.848 310.375 450.3C312.908 446.675 323.889 432.907 344.559 440.334H344.618C365.283 432.907 376.27 446.675 378.803 450.3C374.514 454.847 369.255 458.369 363.417 460.603Z" fill="black"/>
<path d="M498.973 566.155C495.643 537.225 486.858 515.209 482.206 505.143C479.2 506.412 476.172 507.658 473.09 508.839C478.403 517.972 499.658 557.842 499.156 611.704C500.815 596.563 500.754 581.282 498.973 566.155Z" fill="#FF3E39"/>
<path d="M523.952 610.754C521.28 608.229 518.168 606.215 514.772 604.808C514.484 608.784 514.091 612.742 513.591 616.682C521.673 624.569 534.031 641.077 537.065 670.078C538.782 663.923 539.704 657.574 539.811 651.185C540.076 628.011 528.811 615.194 523.952 610.754Z" fill="#FF3E39"/>
<path d="M206.96 505.149C202.307 515.185 193.516 537.243 190.186 566.161C188.414 581.291 188.359 596.574 190.021 611.716C189.519 557.86 210.762 517.984 216.087 508.85C213.017 507.664 209.988 506.418 206.96 505.149Z" fill="#FF3E39"/>
<path d="M175.61 616.682C175.102 612.746 174.708 608.788 174.429 604.808C171.031 606.213 167.92 608.228 165.248 610.754C160.389 615.194 149.124 628.017 149.414 651.173C149.517 657.562 150.44 663.911 152.159 670.066C155.17 641.083 167.527 624.569 175.61 616.682Z" fill="#FF3E39"/>
<path d="M617.1 561.202C617.04 557.592 615.954 554.074 613.971 551.058C611.987 548.041 609.186 545.651 605.896 544.166C602.605 542.681 598.961 542.162 595.386 542.669C591.812 543.176 588.456 544.689 585.709 547.032C561.384 567.696 527.595 576.865 515.067 579.687C514.837 574.373 514.435 569.06 513.803 563.746C510.172 533.087 501.027 509.972 495.879 498.896C526.633 483.817 552.557 463.685 573.127 438.84C595.332 412.024 606.78 375.278 606.19 332.568C605.818 304.229 600.374 282.307 598.951 277.017C599.14 269.879 599.796 232.489 594.582 186.532C586.907 118.736 570.689 67.607 546.423 34.5563C530.848 13.3313 512.103 1.93061 490.748 0.684856C470.574 -0.495949 448.523 7.47449 425.214 24.3777C407.702 37.0773 393.81 51.7783 387.351 58.6978C375.944 55.8108 361.816 53.7857 344.588 53.7857C327.36 53.7857 313.232 55.8108 301.825 58.6978C295.366 51.7783 281.474 37.0773 263.963 24.3777C240.654 7.47449 218.602 -0.495949 198.428 0.684856C177.067 1.93061 158.328 13.3313 142.747 34.5563C118.488 67.6188 102.287 118.736 94.5939 186.532C89.3807 232.489 90.036 269.879 90.225 277.017C88.7962 282.331 83.3586 304.252 82.9807 332.568C82.3903 375.278 93.8441 412.024 116.043 438.84C136.625 463.685 162.537 483.817 193.297 498.896C188.149 509.972 179.004 533.087 175.373 563.746C174.371 572.221 173.866 580.747 173.861 589.281C167.55 590.674 161.02 594.252 155.092 599.66C141.679 611.923 134.127 630.757 134.381 651.344C134.729 679.093 148.445 701.038 156.321 711.365C148.309 718.686 143.332 728.74 143.332 739.828C143.349 746.991 145.412 754 149.277 760.031C149.954 761.097 150.889 761.974 151.996 762.581C153.102 763.187 154.344 763.505 155.606 763.503H533.511C534.773 763.504 536.015 763.187 537.121 762.58C538.228 761.973 539.163 761.096 539.84 760.031C543.705 754 545.768 746.991 545.786 739.828C545.786 728.74 540.832 718.686 532.797 711.365C538.488 703.896 547.226 690.376 551.76 672.988C576.321 657.715 594.269 638.609 605.139 616.127C613.402 599.018 617.501 580.197 617.1 561.202ZM127.609 429.282C123.632 424.468 120.06 419.334 116.929 413.931C116.634 413.424 116.338 412.916 116.055 412.408C114.443 409.539 112.973 406.622 111.621 403.694C109.065 398.131 106.895 392.398 105.127 386.537C102.233 376.914 100.238 367.043 99.1695 357.052C99.0121 355.619 98.8704 354.2 98.7445 352.795C98.7445 352.636 98.7445 352.47 98.6972 352.317C98.4493 349.4 98.2839 346.555 98.1718 343.78C98.0242 340.102 97.9651 336.553 98.0065 333.194C98.3489 303.237 104.92 280.276 104.985 280.058C105.05 279.839 105.079 279.603 105.127 279.379C105.242 278.823 105.295 278.257 105.286 277.69C105.286 277.472 105.174 274.148 105.156 268.468C105.115 255.603 105.499 230.47 108.315 200.648C108.681 196.732 109.092 192.745 109.549 188.687C111.196 174.092 113.445 158.677 116.498 143.226C121.652 117.189 129.109 91.0932 139.884 68.7524C141.458 65.4934 143.105 62.319 144.825 59.2292C147.836 53.7649 151.188 48.4959 154.862 43.4536V43.4182L154.968 43.2765C155.683 42.3083 156.397 41.3754 157.118 40.4603C163.927 31.868 171.291 25.4975 179.21 21.349C185.417 18.041 192.264 16.1079 199.284 15.6811C207.042 15.2265 215.325 16.5726 224.028 19.6486C224.707 19.8848 225.392 20.1445 226.077 20.4043L226.826 20.6877C227.145 20.8058 227.458 20.9475 227.777 21.0715C228.367 21.3135 228.958 21.5556 229.578 21.8095C230.953 22.3999 232.347 23.0434 233.746 23.7106C250.437 31.7282 268.468 45.5555 287.219 64.8144C281.419 68.3803 276.513 73.2275 272.878 78.9841L272.594 79.4387L272.122 80.2003V80.2298L271.998 80.4365C270.684 82.5861 269.567 84.8508 268.662 87.2025C268.666 87.226 268.666 87.2499 268.662 87.2733C268.958 87.0313 273.256 83.8726 281.734 80.2357C293.884 75.0166 314.643 68.8114 344.582 68.8114C374.522 68.8114 395.31 75.0284 407.46 80.2476C415.921 83.8844 420.207 87.0313 420.502 87.2733C420.437 87.0962 420.201 86.4586 419.776 85.5021C418.761 83.251 417.577 81.0799 416.233 79.0077C412.598 73.2511 407.692 68.4039 401.893 64.838C420.892 45.3547 439.153 31.3858 456.033 23.4213C456.481 23.2028 456.936 22.9903 457.39 22.7836C458.807 22.1401 460.213 21.5438 461.606 20.9829C461.83 20.8944 462.061 20.794 462.285 20.7113C462.509 20.6287 462.787 20.5224 463.035 20.4279C463.72 20.1682 464.404 19.9084 465.083 19.6722C473.786 16.5962 482.069 15.2501 489.821 15.7047C496.842 16.1302 503.689 18.0634 509.895 21.3726C517.787 25.5251 525.143 31.8955 531.964 40.4839C532.685 41.399 533.399 42.3319 534.113 43.3001L534.214 43.4418V43.4773C534.32 43.619 534.42 43.7666 534.521 43.9142C538.42 49.3018 541.956 54.9427 545.107 60.7997C546.512 63.3896 547.87 66.0385 549.18 68.7465C566.367 104.354 575.123 149.52 579.539 188.746C579.992 192.788 580.403 196.76 580.773 200.66C583.565 230.239 583.961 255.213 583.931 268.173C583.931 274.077 583.813 277.478 583.802 277.702C583.793 278.269 583.846 278.835 583.961 279.39C584.008 279.615 584.038 279.845 584.103 280.069C584.168 280.294 590.733 303.254 591.081 333.206C591.117 336.565 591.081 340.113 590.916 343.792C590.798 346.566 590.638 349.412 590.385 352.329C590.385 352.482 590.385 352.648 590.343 352.807C590.217 354.212 590.076 355.631 589.918 357.064C588.882 367.047 586.926 376.914 584.073 386.537C581.332 395.651 577.6 404.438 572.944 412.739C569.642 418.573 565.833 424.104 561.561 429.27C560.853 430.126 560.126 430.97 559.406 431.821C553.027 439.241 546.121 446.193 538.742 452.621C528.663 461.389 517.812 469.23 506.323 476.048L505.195 476.715C504.64 477.045 504.091 477.382 503.53 477.707H503.483H503.442C470.586 496.6 431.265 508.809 387.221 513.538C386.548 513.609 385.869 513.668 385.19 513.727L383.336 513.904L381.264 514.105C380.485 514.188 379.711 514.264 378.902 514.335C371.398 514.973 363.753 515.374 356.001 515.587C355.097 515.587 354.229 515.652 353.297 515.67C350.563 515.729 347.812 515.752 345.031 515.758H344.517C343.289 515.758 342.067 515.758 340.839 515.758C334.034 515.699 327.319 515.477 320.695 515.091C312.878 514.642 305.202 513.963 297.669 513.054C278.949 510.882 260.449 507.111 242.372 501.783C228.141 497.582 214.274 492.233 200.908 485.789C171.801 471.661 146.98 452.662 127.609 429.282ZM217.404 719.92C217.368 719.973 217.339 720.032 217.297 720.091C215.223 723.496 213.689 727.203 212.751 731.078C212.074 733.858 211.729 736.707 211.724 739.568C211.731 741.305 211.865 743.04 212.125 744.758C212.308 746.015 212.545 747.273 212.852 748.507H160.129C158.958 745.767 158.355 742.819 158.357 739.84C158.357 738.818 158.411 737.785 158.493 736.752C158.535 736.285 158.564 735.819 158.617 735.358C160.158 722.647 168.843 710.024 195.529 709.871C195.529 709.871 195.429 709.723 195.216 709.463C193.723 707.692 186.815 701.009 169.008 703.235C164.221 697.054 160.162 690.342 156.911 683.232C154.974 678.981 153.374 674.585 152.123 670.084C150.403 663.929 149.481 657.58 149.377 651.191C149.088 628.035 160.353 615.212 165.212 610.772C167.884 608.246 170.995 606.231 174.393 604.826C174.684 608.802 175.078 612.759 175.574 616.699C175.733 617.921 175.91 619.138 176.087 620.36C176.571 623.666 177.109 626.961 177.746 630.243C178.26 632.882 178.827 635.498 179.435 638.113C180.86 644.167 182.56 650.167 184.536 656.115C187.956 666.441 192.123 676.504 197.005 686.225C202.905 697.954 209.728 709.195 217.41 719.843C217.405 719.868 217.403 719.894 217.404 719.92ZM298.649 739.598C298.644 742.62 298.015 745.609 296.801 748.377C296.801 748.43 296.754 748.483 296.736 748.536H228.645C227.387 745.724 226.735 742.678 226.732 739.598C226.751 736.156 227.559 732.765 229.094 729.685C229.702 728.449 230.409 727.264 231.207 726.142C234.069 722.21 237.788 718.979 242.082 716.696C248.427 713.314 255.516 711.572 262.705 711.63C268.93 711.599 275.089 712.897 280.772 715.438C285.985 717.704 290.529 721.272 293.967 725.8C294.044 725.906 294.132 726.007 294.203 726.113L294.25 726.184C294.64 726.733 295.012 727.3 295.354 727.872C295.767 728.569 296.144 729.286 296.482 730.021C297.669 732.508 298.387 735.192 298.602 737.939C298.602 737.939 298.602 737.98 298.602 738.004C298.602 738.246 298.602 738.494 298.602 738.742C298.602 738.99 298.602 739.285 298.602 739.556L298.649 739.598ZM378.908 724.247C376.687 729.061 375.531 734.297 375.519 739.598C375.526 742.613 375.909 745.616 376.659 748.536H312.517C313.265 745.615 313.646 742.613 313.651 739.598C313.641 734.297 312.487 729.061 310.268 724.247C306.525 716.076 299.912 709.097 291.47 704.209C292.202 697.177 295.602 682.612 298.554 659.929C300.58 644.578 298.602 631.778 295.272 621.676C289.651 604.626 280.152 595.285 279.449 594.447C279.449 594.483 279.49 594.583 279.526 594.719C280.476 597.919 289.409 629.121 283.836 656.983C279.974 676.301 277.997 690.081 276.993 698.429C275.918 698.163 274.832 697.933 273.734 697.726L273.533 697.685C269.95 697.023 266.314 696.691 262.67 696.693C261.235 696.693 259.818 696.752 258.419 696.852C246.575 697.679 235.871 701.936 227.718 708.436C206.393 677.995 193.793 645.635 190.033 611.77C188.37 596.627 188.426 581.344 190.198 566.214C193.528 537.284 202.319 515.268 206.971 505.202C209.976 506.471 213.005 507.717 216.087 508.898L216.571 509.087C221.802 511.082 227.126 512.938 232.542 514.654L233.398 514.914C235.57 515.599 237.761 516.254 239.969 516.898L242.448 517.6C244.216 518.096 245.987 518.578 247.762 519.047C248.571 519.265 249.38 519.478 250.195 519.684C252.71 520.328 255.231 520.948 257.775 521.532L258.236 521.633C260.676 522.188 263.13 522.717 265.598 523.221C266.401 523.386 267.21 523.54 268.019 523.699C269.944 524.093 271.876 524.459 273.817 524.797L276.208 525.228C278.876 525.689 281.521 526.132 284.249 526.533C304.206 529.48 324.355 530.935 344.529 530.884C354.979 530.884 365.231 530.522 375.283 529.798C385.336 529.074 395.176 527.989 404.803 526.545C404.803 526.545 404.803 526.545 404.839 526.545C407.537 526.143 410.211 525.701 412.874 525.24L415.265 524.809C417.206 524.463 419.14 524.097 421.069 523.711C421.878 523.551 422.687 523.398 423.49 523.233C425.957 522.725 428.411 522.196 430.852 521.645L431.306 521.544C433.857 520.954 436.378 520.363 438.887 519.696C439.708 519.49 440.517 519.277 441.326 519.059C443.097 518.592 444.868 518.108 446.639 517.612L449.125 516.909C451.329 516.272 453.515 515.611 455.684 514.926L456.546 514.666C459.258 513.804 461.944 512.91 464.605 511.986C467.266 511.061 469.903 510.098 472.517 509.098L473.007 508.91C476.089 507.729 479.117 506.483 482.122 505.214C486.775 515.25 495.56 537.308 498.89 566.226C500.667 581.356 500.724 596.638 499.061 611.781C495.294 645.653 482.695 678.007 461.376 708.448C453.205 701.954 442.483 697.691 430.675 696.864C429.276 696.764 427.858 696.705 426.424 696.705C422.778 696.702 419.14 697.035 415.555 697.697L415.354 697.738C414.256 697.945 413.169 698.175 412.101 698.441C411.097 690.092 409.149 676.312 405.252 656.994C399.814 629.783 408.204 599.365 409.491 595.002C409.491 594.919 409.532 594.854 409.556 594.79L409.639 594.506C408.936 595.345 399.437 604.685 393.816 621.736C390.486 631.837 388.502 644.643 390.533 659.988C393.485 682.677 396.904 697.242 397.618 704.268C389.264 709.044 382.651 716.023 378.908 724.194V724.247ZM460.525 748.566H392.44C392.44 748.53 392.411 748.489 392.393 748.448C391.165 745.669 390.529 742.665 390.527 739.627C390.527 739.356 390.527 739.084 390.527 738.812C390.527 738.541 390.527 738.316 390.527 738.074C390.524 738.053 390.524 738.031 390.527 738.009C390.738 735.296 391.44 732.643 392.6 730.181C392.953 729.414 393.347 728.667 393.781 727.943C394.241 727.176 394.761 726.426 395.304 725.694C398.714 721.276 403.181 717.788 408.293 715.551C413.999 712.983 420.19 711.67 426.447 711.701C433.637 711.643 440.726 713.385 447.07 716.767C451.232 718.968 454.859 722.056 457.697 725.812L457.786 725.924C458.662 727.119 459.431 728.389 460.083 729.72C461.62 732.8 462.428 736.191 462.444 739.633C462.434 742.695 461.78 745.72 460.525 748.513V748.566ZM537.042 670.143C535.84 674.479 534.309 678.716 532.46 682.819C529.178 690.105 525.046 696.978 520.15 703.294C502.35 701.068 495.43 707.763 493.948 709.523C493.736 709.782 493.635 709.93 493.635 709.93C520.327 710.083 529.012 722.706 530.553 735.418C530.606 735.878 530.636 736.339 530.671 736.799C530.76 737.838 530.813 738.877 530.813 739.899C530.815 742.878 530.212 745.826 529.042 748.566H476.319C476.626 747.332 476.862 746.074 477.045 744.817C477.303 743.099 477.436 741.364 477.441 739.627C477.436 736.754 477.089 733.892 476.407 731.102C475.471 727.239 473.941 723.544 471.873 720.15C471.834 720.095 471.799 720.038 471.767 719.979C471.755 719.951 471.739 719.925 471.72 719.902C479.357 709.32 486.144 698.15 492.018 686.497C496.948 676.707 501.153 666.568 504.599 656.162C506.567 650.219 508.267 644.218 509.7 638.16C510.291 635.545 510.881 632.93 511.389 630.29C512.02 627.025 512.57 623.743 513.036 620.454C513.219 619.22 513.402 617.986 513.561 616.747C514.069 612.811 514.463 608.853 514.742 604.874C518.139 606.28 521.25 608.295 523.923 610.819C528.782 615.259 540.047 628.082 539.758 651.238C539.657 657.612 538.745 663.947 537.042 670.09V670.143ZM549.222 621.671C545.839 613.339 540.672 605.85 534.084 599.731C533.794 599.471 533.493 599.235 533.216 598.981C532.515 598.367 531.807 597.777 531.09 597.21C530.447 596.708 529.803 596.23 529.154 595.77L528.947 595.616C527.54 594.626 526.077 593.718 524.566 592.894C538.035 589.446 551.139 584.7 563.692 578.725C574.467 573.529 585.537 566.917 595.432 558.492C596.012 557.985 596.728 557.659 597.49 557.554C598.253 557.449 599.03 557.57 599.725 557.901C600.642 558.312 601.374 559.048 601.779 559.968C601.984 560.46 602.092 560.987 602.098 561.52C602.316 572.646 600.824 583.739 597.676 594.412C591.861 613.895 579.374 634.742 554.742 652.974C554.742 652.46 554.783 651.946 554.789 651.427C554.983 641.215 553.088 631.071 549.222 621.617V621.671Z" fill="black"/>
<path d="M390.604 659.893C388.579 644.543 390.557 631.743 393.887 621.641C399.507 604.59 409.007 595.25 409.71 594.412C419.351 573.606 415.082 552.092 409.65 537.461C409.125 536.038 408.588 534.692 408.056 533.411C389.293 537.544 367.637 539.906 344.576 539.906C321.515 539.906 299.859 537.544 281.096 533.411C280.565 534.692 280.028 536.038 279.502 537.461C274.07 552.092 269.802 573.606 279.443 594.412C280.146 595.25 289.645 604.59 295.266 621.641C298.596 631.743 300.579 644.549 298.548 659.893C295.596 682.582 292.178 697.147 291.464 704.173C299.906 709.062 306.519 716.04 310.262 724.212C318.15 727.4 329.385 730.21 344.582 730.328C351.261 730.31 357.924 729.672 364.485 728.421C369.413 727.478 374.241 726.069 378.902 724.212C382.645 716.04 389.258 709.062 397.695 704.173C396.975 697.124 393.586 682.559 390.604 659.893Z" fill="white"/>
<path d="M284.303 526.462C281.605 526.061 278.93 525.618 276.262 525.157L273.871 524.726C271.93 524.38 269.998 524.014 268.073 523.628C267.264 523.469 266.455 523.315 265.652 523.15C263.184 522.642 260.73 522.113 258.29 521.562L257.829 521.461C255.285 520.871 252.764 520.281 250.249 519.613C249.434 519.407 248.625 519.194 247.816 518.976C246.029 518.511 244.258 518.029 242.503 517.529L240.023 516.827C237.815 516.183 235.624 515.528 233.452 514.843L232.596 514.583C244.227 522.406 261.024 528.906 281.15 533.352C282.201 530.76 283.288 528.446 284.303 526.462Z" fill="#A50400"/>
<path d="M456.617 514.601L455.755 514.861C453.586 515.546 451.399 516.207 449.195 516.844L446.71 517.547C444.938 518.043 443.167 518.527 441.396 518.994C440.587 519.212 439.778 519.425 438.958 519.631C436.448 520.275 433.927 520.895 431.377 521.479L430.922 521.579C428.486 522.134 426.032 522.664 423.56 523.168C422.757 523.333 421.948 523.486 421.139 523.646C419.215 524.039 417.28 524.406 415.336 524.744L412.945 525.175C410.282 525.636 407.631 526.078 404.909 526.48C405.895 528.446 406.987 530.76 408.08 533.37C428.195 528.924 444.992 522.424 456.617 514.601Z" fill="#A50400"/>
<path d="M344.589 539.882C367.65 539.882 389.306 537.52 408.069 533.388C406.977 530.778 405.885 528.464 404.899 526.497C404.899 526.497 404.899 526.497 404.863 526.497C395.24 527.934 385.4 529.018 375.343 529.751C365.287 530.483 355.035 530.845 344.589 530.837C324.413 530.88 304.262 529.417 284.303 526.462C283.311 528.428 282.225 530.743 281.133 533.352C299.872 537.515 321.499 539.882 344.589 539.882Z" fill="#DBBDBF"/>
<path d="M246.706 328.659C267.946 328.659 285.165 306.939 285.165 280.146C285.165 253.353 267.946 231.633 246.706 231.633C225.466 231.633 208.247 253.353 208.247 280.146C208.247 306.939 225.466 328.659 246.706 328.659Z" fill="black"/>
<path d="M446.256 328.659C467.496 328.659 484.714 306.939 484.714 280.146C484.714 253.353 467.496 231.633 446.256 231.633C425.015 231.633 407.797 253.353 407.797 280.146C407.797 306.939 425.015 328.659 446.256 328.659Z" fill="black"/>
<path d="M255.024 277.365C261.722 277.365 267.151 270.064 267.151 261.058C267.151 252.052 261.722 244.751 255.024 244.751C248.327 244.751 242.897 252.052 242.897 261.058C242.897 270.064 248.327 277.365 255.024 277.365Z" fill="white"/>
<path d="M438.469 277.365C445.166 277.365 450.596 270.064 450.596 261.058C450.596 252.052 445.166 244.751 438.469 244.751C431.771 244.751 426.342 252.052 426.342 261.058C426.342 270.064 431.771 277.365 438.469 277.365Z" fill="white"/>
</g>
<defs>
<filter id="filter0_f" x="150.783" y="450.291" width="333.932" height="85.4071" filterUnits="userSpaceOnUse" color-interpolation-filters="sRGB">
<feFlood flood-opacity="0" result="BackgroundImageFix"/>
<feBlend mode="normal" in="SourceGraphic" in2="BackgroundImageFix" result="shape"/>
<feGaussianBlur stdDeviation="15" result="effect1_foregroundBlur"/>
</filter>
<radialGradient id="paint0_radial" cx="0" cy="0" r="1" gradientUnits="userSpaceOnUse" gradientTransform="translate(136.967 12.6963) rotate(5.29599) scale(137.554 25.4223)">
<stop stop-color="#474A57"/>
<stop offset="1" stop-color="#474A57" stop-opacity="0"/>
</radialGradient>
<clipPath id="clip0">
<rect width="689" height="763.981" fill="white"/>
</clipPath>
</defs>
</svg>
